<?xml version="1.0" encoding="UTF-8" standalone="no"?>
<!DOCTYPE svg PUBLIC "-//W3C//DTD SVG 1.1//EN"
 "http://www.w3.org/Graphics/SVG/1.1/DTD/svg11.dtd">
<!-- Generated by graphviz version 2.40.1 (20161225.0304)
 -->
<!-- Title: twoDegreesRelationshipsDiagram Pages: 1 -->
<svg width="385pt" height="311pt"
 viewBox="0.00 0.00 385.00 310.70" xmlns="http://www.w3.org/2000/svg" xmlns:xlink="http://www.w3.org/1999/xlink">
<g id="graph0" class="graph" transform="scale(1 1) rotate(0) translate(4 306.7)">
<title>twoDegreesRelationshipsDiagram</title>
<polygon fill="#ffffff" stroke="transparent" points="-4,4 -4,-306.7 381,-306.7 381,4 -4,4"/>
<text text-anchor="middle" x="72.4936" y="-7.3" font-family="Helvetica,sans-Serif" font-size="11.00" fill="#000000">Generated by SchemaSpy</text>
<!-- emprunt -->
<g id="node1" class="node">
<title>emprunt</title>
<g id="a_node1"><a xlink:href="../../tables/emprunt.html" xlink:title="emprunt" target="_top">
<polygon fill="#ffffff" stroke="transparent" points="239,-82.2 239,-209.2 369,-209.2 369,-82.2 239,-82.2"/>
<polygon fill="#f5f5f5" stroke="transparent" points="239,-185.7 239,-208.7 369,-208.7 369,-185.7 239,-185.7"/>
<polygon fill="none" stroke="#000000" points="239,-185.7 239,-208.7 369,-208.7 369,-185.7 239,-185.7"/>
<text text-anchor="start" x="244" y="-194.3" font-family="Helvetica,sans-Serif" font-weight="bold" font-size="11.00" fill="#000000">emprunt</text>
<text text-anchor="start" x="334.0437" y="-193.8" font-family="Helvetica,sans-Serif" font-size="11.00" fill="#000000">[table]</text>
<polygon fill="#ffffff" stroke="transparent" points="239,-163.7 239,-185.7 369,-185.7 369,-163.7 239,-163.7"/>
<polygon fill="none" stroke="#000000" points="239,-163.7 239,-185.7 369,-185.7 369,-163.7 239,-163.7"/>
<image xlink:href="../../images/foreignKeys.png" width="11px" height="12px" preserveAspectRatio="xMinYMin meet" x="244" y="-180.7"/>
<text text-anchor="start" x="259" y="-170.8" font-family="Helvetica,sans-Serif" font-size="11.00" fill="#000000">adherent_id</text>
<polygon fill="#ffffff" stroke="transparent" points="239,-141.7 239,-163.7 369,-163.7 369,-141.7 239,-141.7"/>
<polygon fill="none" stroke="#000000" points="239,-141.7 239,-163.7 369,-163.7 369,-141.7 239,-141.7"/>
<image xlink:href="../../images/foreignKeys.png" width="11px" height="12px" preserveAspectRatio="xMinYMin meet" x="244" y="-158.7"/>
<text text-anchor="start" x="259" y="-148.8" font-family="Helvetica,sans-Serif" font-size="11.00" fill="#000000">media_id</text>
<polygon fill="none" stroke="#000000" points="239,-119.7 239,-141.7 369,-141.7 369,-119.7 239,-119.7"/>
<image xlink:href="../../images/primaryKeys.png" width="11px" height="12px" preserveAspectRatio="xMinYMin meet" x="244" y="-136.7"/>
<text text-anchor="start" x="259" y="-126.8" font-family="Helvetica,sans-Serif" font-size="11.00" fill="#000000">numeroEmprunt</text>
<polygon fill="none" stroke="#000000" points="239,-100.7 239,-119.7 369,-119.7 369,-100.7 239,-100.7"/>
<text text-anchor="start" x="242" y="-106.8" font-family="Helvetica,sans-Serif" font-size="11.00" fill="#000000">...</text>
<polygon fill="#ffffff" stroke="transparent" points="239,-81.7 239,-100.7 292,-100.7 292,-81.7 239,-81.7"/>
<polygon fill="none" stroke="#000000" points="239,-81.7 239,-100.7 292,-100.7 292,-81.7 239,-81.7"/>
<text text-anchor="start" x="242" y="-87.8" font-family="Helvetica,sans-Serif" font-size="11.00" fill="#000000">&lt; 2</text>
<polygon fill="#ffffff" stroke="transparent" points="292,-81.7 292,-100.7 340,-100.7 340,-81.7 292,-81.7"/>
<polygon fill="none" stroke="#000000" points="292,-81.7 292,-100.7 340,-100.7 340,-81.7 292,-81.7"/>
<text text-anchor="start" x="310.1105" y="-87.8" font-family="Helvetica,sans-Serif" font-size="11.00" fill="#000000">1 row</text>
<polygon fill="#ffffff" stroke="transparent" points="340,-81.7 340,-100.7 369,-100.7 369,-81.7 340,-81.7"/>
<polygon fill="none" stroke="#000000" points="340,-81.7 340,-100.7 369,-100.7 369,-81.7 340,-81.7"/>
<text text-anchor="start" x="359.8862" y="-87.8" font-family="Helvetica,sans-Serif" font-size="11.00" fill="#000000"> &#160;</text>
</a>
</g>
</g>
<!-- adherent -->
<g id="node2" class="node">
<title>adherent</title>
<g id="a_node2"><a xlink:href="../../tables/adherent.html" xlink:title="adherent" target="_top">
<polygon fill="#ffffff" stroke="transparent" points="8,-120.7 8,-298.7 190,-298.7 190,-120.7 8,-120.7"/>
<polygon fill="#f5f5f5" stroke="transparent" points="10,-273.7 10,-296.7 188,-296.7 188,-273.7 10,-273.7"/>
<polygon fill="none" stroke="#000000" points="10,-273.7 10,-296.7 188,-296.7 188,-273.7 10,-273.7"/>
<text text-anchor="start" x="15" y="-282.3" font-family="Helvetica,sans-Serif" font-weight="bold" font-size="11.00" fill="#000000">adherent</text>
<text text-anchor="start" x="153.0437" y="-281.8" font-family="Helvetica,sans-Serif" font-size="11.00" fill="#000000">[table]</text>
<polygon fill="none" stroke="#000000" points="10,-251.7 10,-273.7 127,-273.7 127,-251.7 10,-251.7"/>
<image xlink:href="../../images/primaryKeys.png" width="11px" height="12px" preserveAspectRatio="xMinYMin meet" x="15" y="-268.7"/>
<text text-anchor="start" x="30" y="-258.8" font-family="Helvetica,sans-Serif" font-size="11.00" fill="#000000">id</text>
<polygon fill="none" stroke="#000000" points="127,-251.7 127,-273.7 188,-273.7 188,-251.7 127,-251.7"/>
<text text-anchor="start" x="130" y="-259.4" font-family="Helvetica,sans-Serif" font-size="11.00" fill="#000000">int[10]</text>
<polygon fill="none" stroke="#000000" points="10,-229.7 10,-251.7 127,-251.7 127,-229.7 10,-229.7"/>
<text text-anchor="start" x="30" y="-236.8" font-family="Helvetica,sans-Serif" font-size="11.00" fill="#000000">numeroAdherent</text>
<polygon fill="none" stroke="#000000" points="127,-229.7 127,-251.7 188,-251.7 188,-229.7 127,-229.7"/>
<text text-anchor="start" x="129.994" y="-237.4" font-family="Helvetica,sans-Serif" font-size="11.00" fill="#000000">varchar[14]</text>
<polygon fill="none" stroke="#000000" points="10,-207.7 10,-229.7 127,-229.7 127,-207.7 10,-207.7"/>
<text text-anchor="start" x="30" y="-214.8" font-family="Helvetica,sans-Serif" font-size="11.00" fill="#000000">prenomAdherent</text>
<polygon fill="none" stroke="#000000" points="127,-207.7 127,-229.7 188,-229.7 188,-207.7 127,-207.7"/>
<text text-anchor="start" x="129.994" y="-215.4" font-family="Helvetica,sans-Serif" font-size="11.00" fill="#000000">varchar[50]</text>
<polygon fill="none" stroke="#000000" points="10,-185.7 10,-207.7 127,-207.7 127,-185.7 10,-185.7"/>
<text text-anchor="start" x="30" y="-192.8" font-family="Helvetica,sans-Serif" font-size="11.00" fill="#000000">nomAdherent</text>
<polygon fill="none" stroke="#000000" points="127,-185.7 127,-207.7 188,-207.7 188,-185.7 127,-185.7"/>
<text text-anchor="start" x="129.994" y="-193.4" font-family="Helvetica,sans-Serif" font-size="11.00" fill="#000000">varchar[60]</text>
<polygon fill="none" stroke="#000000" points="10,-163.7 10,-185.7 127,-185.7 127,-163.7 10,-163.7"/>
<text text-anchor="start" x="30" y="-170.8" font-family="Helvetica,sans-Serif" font-size="11.00" fill="#000000">mailAdherent</text>
<polygon fill="none" stroke="#000000" points="127,-163.7 127,-185.7 188,-185.7 188,-163.7 127,-163.7"/>
<text text-anchor="start" x="129.994" y="-171.4" font-family="Helvetica,sans-Serif" font-size="11.00" fill="#000000">varchar[60]</text>
<polygon fill="none" stroke="#000000" points="10,-141.7 10,-163.7 127,-163.7 127,-141.7 10,-141.7"/>
<text text-anchor="start" x="30" y="-148.8" font-family="Helvetica,sans-Serif" font-size="11.00" fill="#000000">dateAdhesion</text>
<polygon fill="none" stroke="#000000" points="127,-141.7 127,-163.7 188,-163.7 188,-141.7 127,-141.7"/>
<text text-anchor="start" x="130" y="-149.4" font-family="Helvetica,sans-Serif" font-size="11.00" fill="#000000">date[10]</text>
<polygon fill="#ffffff" stroke="transparent" points="10,-122.7 10,-141.7 63,-141.7 63,-122.7 10,-122.7"/>
<polygon fill="none" stroke="#000000" points="10,-122.7 10,-141.7 63,-141.7 63,-122.7 10,-122.7"/>
<text text-anchor="start" x="13" y="-128.8" font-family="Helvetica,sans-Serif" font-size="11.00" fill="#000000">&lt; 0</text>
<polygon fill="#ffffff" stroke="transparent" points="63,-122.7 63,-141.7 127,-141.7 127,-122.7 63,-122.7"/>
<polygon fill="none" stroke="#000000" points="63,-122.7 63,-141.7 127,-141.7 127,-122.7 63,-122.7"/>
<text text-anchor="start" x="97.1105" y="-128.8" font-family="Helvetica,sans-Serif" font-size="11.00" fill="#000000">1 row</text>
<polygon fill="#ffffff" stroke="transparent" points="127,-122.7 127,-141.7 188,-141.7 188,-122.7 127,-122.7"/>
<polygon fill="none" stroke="#000000" points="127,-122.7 127,-141.7 188,-141.7 188,-122.7 127,-122.7"/>
<text text-anchor="start" x="169.4053" y="-128.8" font-family="Helvetica,sans-Serif" font-size="11.00" fill="#000000">1 &gt;</text>
<polygon fill="none" stroke="#000000" stroke-width="2" points="9,-121.7 9,-297.7 189,-297.7 189,-121.7 9,-121.7"/>
</a>
</g>
</g>
<!-- emprunt&#45;&gt;adherent -->
<g id="edge1" class="edge">
<title>emprunt:w&#45;&gt;adherent:e</title>
<path fill="none" stroke="#000000" d="M225.0699,-178.9444C202.7709,-196.5228 227.2009,-262.7 188,-262.7"/>
<polygon fill="#000000" stroke="#000000" points="231.3473,-177.0318 240.0493,-178.1437 235.1737,-175.8659 239,-174.7 239,-174.7 239,-174.7 235.1737,-175.8659 237.9507,-171.2563 231.3473,-177.0318 231.3473,-177.0318"/>
<ellipse fill="none" stroke="#000000" cx="228.2863" cy="-177.9645" rx="3.2" ry="3.2"/>
</g>
<!-- media -->
<g id="node3" class="node">
<title>media</title>
<g id="a_node3"><a xlink:href="../../tables/media.html" xlink:title="media" target="_top">
<polygon fill="#ffffff" stroke="transparent" points="62.5,-38.2 62.5,-99.2 135.5,-99.2 135.5,-38.2 62.5,-38.2"/>
<polygon fill="#f5f5f5" stroke="transparent" points="63,-75.7 63,-98.7 136,-98.7 136,-75.7 63,-75.7"/>
<polygon fill="none" stroke="#000000" points="63,-75.7 63,-98.7 136,-98.7 136,-75.7 63,-75.7"/>
<text text-anchor="start" x="68" y="-84.3" font-family="Helvetica,sans-Serif" font-weight="bold" font-size="11.00" fill="#000000">media</text>
<text text-anchor="start" x="101.5219" y="-83.8" font-family="Helvetica,sans-Serif" font-size="11.00" fill="#000000">[table]</text>
<polygon fill="none" stroke="#000000" points="63,-56.7 63,-75.7 136,-75.7 136,-56.7 63,-56.7"/>
<text text-anchor="start" x="66" y="-62.8" font-family="Helvetica,sans-Serif" font-size="11.00" fill="#000000">...</text>
<polygon fill="#ffffff" stroke="transparent" points="63,-37.7 63,-56.7 76,-56.7 76,-37.7 63,-37.7"/>
<polygon fill="none" stroke="#000000" points="63,-37.7 63,-56.7 76,-56.7 76,-37.7 63,-37.7"/>
<text text-anchor="start" x="66" y="-43.8" font-family="Helvetica,sans-Serif" font-size="11.00" fill="#000000"> &#160;</text>
<polygon fill="#ffffff" stroke="transparent" points="76,-37.7 76,-56.7 114,-56.7 114,-37.7 76,-37.7"/>
<polygon fill="none" stroke="#000000" points="76,-37.7 76,-56.7 114,-56.7 114,-37.7 76,-37.7"/>
<text text-anchor="start" x="78.8053" y="-43.8" font-family="Helvetica,sans-Serif" font-size="11.00" fill="#000000">3 rows</text>
<polygon fill="#ffffff" stroke="transparent" points="114,-37.7 114,-56.7 136,-56.7 136,-37.7 114,-37.7"/>
<polygon fill="none" stroke="#000000" points="114,-37.7 114,-56.7 136,-56.7 136,-37.7 114,-37.7"/>
<text text-anchor="start" x="117.4053" y="-43.8" font-family="Helvetica,sans-Serif" font-size="11.00" fill="#000000">4 &gt;</text>
</a>
</g>
</g>
<!-- emprunt&#45;&gt;media -->
<g id="edge2" class="edge">
<title>emprunt:w&#45;&gt;media:e</title>
<path fill="none" stroke="#000000" d="M225.0378,-149.0121C213.8258,-141.4408 213.1118,-123.7586 198,-110.7 172.2375,-88.4378 170.0486,-65.7 136,-65.7"/>
<polygon fill="#000000" stroke="#000000" points="231.2653,-150.6569 238.0806,-156.1806 235.1326,-151.6785 239,-152.7 239,-152.7 239,-152.7 235.1326,-151.6785 239.9194,-149.2194 231.2653,-150.6569 231.2653,-150.6569"/>
<ellipse fill="none" stroke="#000000" cx="228.1714" cy="-149.8397" rx="3.2" ry="3.2"/>
</g>
</g>
</svg>
