<?xml version="1.0" encoding="UTF-8" standalone="no"?>
<!DOCTYPE svg PUBLIC "-//W3C//DTD SVG 1.1//EN"
 "http://www.w3.org/Graphics/SVG/1.1/DTD/svg11.dtd">
<!-- Generated by graphviz version 2.40.1 (20161225.0304)
 -->
<!-- Title: oneDegreeRelationshipsDiagram Pages: 1 -->
<svg width="385pt" height="228pt"
 viewBox="0.00 0.00 385.00 228.20" xmlns="http://www.w3.org/2000/svg" xmlns:xlink="http://www.w3.org/1999/xlink">
<g id="graph0" class="graph" transform="scale(1 1) rotate(0) translate(4 224.2)">
<title>oneDegreeRelationshipsDiagram</title>
<polygon fill="#ffffff" stroke="transparent" points="-4,4 -4,-224.2 381,-224.2 381,4 -4,4"/>
<text text-anchor="middle" x="72.4936" y="-7.3" font-family="Helvetica,sans-Serif" font-size="11.00" fill="#000000">Generated by SchemaSpy</text>
<!-- emprunt -->
<g id="node1" class="node">
<title>emprunt</title>
<g id="a_node1"><a xlink:href="../../tables/emprunt.html" xlink:title="emprunt" target="_top">
<polygon fill="#ffffff" stroke="transparent" points="239,-87.7 239,-214.7 369,-214.7 369,-87.7 239,-87.7"/>
<polygon fill="#f5f5f5" stroke="transparent" points="239,-191.2 239,-214.2 369,-214.2 369,-191.2 239,-191.2"/>
<polygon fill="none" stroke="#000000" points="239,-191.2 239,-214.2 369,-214.2 369,-191.2 239,-191.2"/>
<text text-anchor="start" x="244" y="-199.8" font-family="Helvetica,sans-Serif" font-weight="bold" font-size="11.00" fill="#000000">emprunt</text>
<text text-anchor="start" x="334.0437" y="-199.3" font-family="Helvetica,sans-Serif" font-size="11.00" fill="#000000">[table]</text>
<polygon fill="#ffffff" stroke="transparent" points="239,-169.2 239,-191.2 369,-191.2 369,-169.2 239,-169.2"/>
<polygon fill="none" stroke="#000000" points="239,-169.2 239,-191.2 369,-191.2 369,-169.2 239,-169.2"/>
<image xlink:href="../../images/foreignKeys.png" width="11px" height="12px" preserveAspectRatio="xMinYMin meet" x="244" y="-186.2"/>
<text text-anchor="start" x="259" y="-176.3" font-family="Helvetica,sans-Serif" font-size="11.00" fill="#000000">adherent_id</text>
<polygon fill="#ffffff" stroke="transparent" points="239,-147.2 239,-169.2 369,-169.2 369,-147.2 239,-147.2"/>
<polygon fill="none" stroke="#000000" points="239,-147.2 239,-169.2 369,-169.2 369,-147.2 239,-147.2"/>
<image xlink:href="../../images/foreignKeys.png" width="11px" height="12px" preserveAspectRatio="xMinYMin meet" x="244" y="-164.2"/>
<text text-anchor="start" x="259" y="-154.3" font-family="Helvetica,sans-Serif" font-size="11.00" fill="#000000">media_id</text>
<polygon fill="none" stroke="#000000" points="239,-125.2 239,-147.2 369,-147.2 369,-125.2 239,-125.2"/>
<image xlink:href="../../images/primaryKeys.png" width="11px" height="12px" preserveAspectRatio="xMinYMin meet" x="244" y="-142.2"/>
<text text-anchor="start" x="259" y="-132.3" font-family="Helvetica,sans-Serif" font-size="11.00" fill="#000000">numeroEmprunt</text>
<polygon fill="none" stroke="#000000" points="239,-106.2 239,-125.2 369,-125.2 369,-106.2 239,-106.2"/>
<text text-anchor="start" x="242" y="-112.3" font-family="Helvetica,sans-Serif" font-size="11.00" fill="#000000">...</text>
<polygon fill="#ffffff" stroke="transparent" points="239,-87.2 239,-106.2 292,-106.2 292,-87.2 239,-87.2"/>
<polygon fill="none" stroke="#000000" points="239,-87.2 239,-106.2 292,-106.2 292,-87.2 239,-87.2"/>
<text text-anchor="start" x="242" y="-93.3" font-family="Helvetica,sans-Serif" font-size="11.00" fill="#000000">&lt; 2</text>
<polygon fill="#ffffff" stroke="transparent" points="292,-87.2 292,-106.2 340,-106.2 340,-87.2 292,-87.2"/>
<polygon fill="none" stroke="#000000" points="292,-87.2 292,-106.2 340,-106.2 340,-87.2 292,-87.2"/>
<text text-anchor="start" x="310.1105" y="-93.3" font-family="Helvetica,sans-Serif" font-size="11.00" fill="#000000">1 row</text>
<polygon fill="#ffffff" stroke="transparent" points="340,-87.2 340,-106.2 369,-106.2 369,-87.2 340,-87.2"/>
<polygon fill="none" stroke="#000000" points="340,-87.2 340,-106.2 369,-106.2 369,-87.2 340,-87.2"/>
<text text-anchor="start" x="359.8862" y="-93.3" font-family="Helvetica,sans-Serif" font-size="11.00" fill="#000000"> &#160;</text>
</a>
</g>
</g>
<!-- adherent -->
<g id="node2" class="node">
<title>adherent</title>
<g id="a_node2"><a xlink:href="../../tables/adherent.html" xlink:title="adherent" target="_top">
<polygon fill="#ffffff" stroke="transparent" points="8,-38.2 8,-216.2 190,-216.2 190,-38.2 8,-38.2"/>
<polygon fill="#f5f5f5" stroke="transparent" points="10,-191.2 10,-214.2 188,-214.2 188,-191.2 10,-191.2"/>
<polygon fill="none" stroke="#000000" points="10,-191.2 10,-214.2 188,-214.2 188,-191.2 10,-191.2"/>
<text text-anchor="start" x="15" y="-199.8" font-family="Helvetica,sans-Serif" font-weight="bold" font-size="11.00" fill="#000000">adherent</text>
<text text-anchor="start" x="153.0437" y="-199.3" font-family="Helvetica,sans-Serif" font-size="11.00" fill="#000000">[table]</text>
<polygon fill="none" stroke="#000000" points="10,-169.2 10,-191.2 127,-191.2 127,-169.2 10,-169.2"/>
<image xlink:href="../../images/primaryKeys.png" width="11px" height="12px" preserveAspectRatio="xMinYMin meet" x="15" y="-186.2"/>
<text text-anchor="start" x="30" y="-176.3" font-family="Helvetica,sans-Serif" font-size="11.00" fill="#000000">id</text>
<polygon fill="none" stroke="#000000" points="127,-169.2 127,-191.2 188,-191.2 188,-169.2 127,-169.2"/>
<text text-anchor="start" x="130" y="-176.9" font-family="Helvetica,sans-Serif" font-size="11.00" fill="#000000">int[10]</text>
<polygon fill="none" stroke="#000000" points="10,-147.2 10,-169.2 127,-169.2 127,-147.2 10,-147.2"/>
<text text-anchor="start" x="30" y="-154.3" font-family="Helvetica,sans-Serif" font-size="11.00" fill="#000000">numeroAdherent</text>
<polygon fill="none" stroke="#000000" points="127,-147.2 127,-169.2 188,-169.2 188,-147.2 127,-147.2"/>
<text text-anchor="start" x="129.994" y="-154.9" font-family="Helvetica,sans-Serif" font-size="11.00" fill="#000000">varchar[14]</text>
<polygon fill="none" stroke="#000000" points="10,-125.2 10,-147.2 127,-147.2 127,-125.2 10,-125.2"/>
<text text-anchor="start" x="30" y="-132.3" font-family="Helvetica,sans-Serif" font-size="11.00" fill="#000000">prenomAdherent</text>
<polygon fill="none" stroke="#000000" points="127,-125.2 127,-147.2 188,-147.2 188,-125.2 127,-125.2"/>
<text text-anchor="start" x="129.994" y="-132.9" font-family="Helvetica,sans-Serif" font-size="11.00" fill="#000000">varchar[50]</text>
<polygon fill="none" stroke="#000000" points="10,-103.2 10,-125.2 127,-125.2 127,-103.2 10,-103.2"/>
<text text-anchor="start" x="30" y="-110.3" font-family="Helvetica,sans-Serif" font-size="11.00" fill="#000000">nomAdherent</text>
<polygon fill="none" stroke="#000000" points="127,-103.2 127,-125.2 188,-125.2 188,-103.2 127,-103.2"/>
<text text-anchor="start" x="129.994" y="-110.9" font-family="Helvetica,sans-Serif" font-size="11.00" fill="#000000">varchar[60]</text>
<polygon fill="none" stroke="#000000" points="10,-81.2 10,-103.2 127,-103.2 127,-81.2 10,-81.2"/>
<text text-anchor="start" x="30" y="-88.3" font-family="Helvetica,sans-Serif" font-size="11.00" fill="#000000">mailAdherent</text>
<polygon fill="none" stroke="#000000" points="127,-81.2 127,-103.2 188,-103.2 188,-81.2 127,-81.2"/>
<text text-anchor="start" x="129.994" y="-88.9" font-family="Helvetica,sans-Serif" font-size="11.00" fill="#000000">varchar[60]</text>
<polygon fill="none" stroke="#000000" points="10,-59.2 10,-81.2 127,-81.2 127,-59.2 10,-59.2"/>
<text text-anchor="start" x="30" y="-66.3" font-family="Helvetica,sans-Serif" font-size="11.00" fill="#000000">dateAdhesion</text>
<polygon fill="none" stroke="#000000" points="127,-59.2 127,-81.2 188,-81.2 188,-59.2 127,-59.2"/>
<text text-anchor="start" x="130" y="-66.9" font-family="Helvetica,sans-Serif" font-size="11.00" fill="#000000">date[10]</text>
<polygon fill="#ffffff" stroke="transparent" points="10,-40.2 10,-59.2 63,-59.2 63,-40.2 10,-40.2"/>
<polygon fill="none" stroke="#000000" points="10,-40.2 10,-59.2 63,-59.2 63,-40.2 10,-40.2"/>
<text text-anchor="start" x="13" y="-46.3" font-family="Helvetica,sans-Serif" font-size="11.00" fill="#000000">&lt; 0</text>
<polygon fill="#ffffff" stroke="transparent" points="63,-40.2 63,-59.2 127,-59.2 127,-40.2 63,-40.2"/>
<polygon fill="none" stroke="#000000" points="63,-40.2 63,-59.2 127,-59.2 127,-40.2 63,-40.2"/>
<text text-anchor="start" x="97.1105" y="-46.3" font-family="Helvetica,sans-Serif" font-size="11.00" fill="#000000">1 row</text>
<polygon fill="#ffffff" stroke="transparent" points="127,-40.2 127,-59.2 188,-59.2 188,-40.2 127,-40.2"/>
<polygon fill="none" stroke="#000000" points="127,-40.2 127,-59.2 188,-59.2 188,-40.2 127,-40.2"/>
<text text-anchor="start" x="169.4053" y="-46.3" font-family="Helvetica,sans-Serif" font-size="11.00" fill="#000000">1 &gt;</text>
<polygon fill="none" stroke="#000000" stroke-width="2" points="9,-39.2 9,-215.2 189,-215.2 189,-39.2 9,-39.2"/>
</a>
</g>
</g>
<!-- emprunt&#45;&gt;adherent -->
<g id="edge1" class="edge">
<title>emprunt:w&#45;&gt;adherent:e</title>
<path fill="none" stroke="#000000" d="M224.276,-180.2C212.2815,-180.2 204.8229,-180.2 188,-180.2"/>
<polygon fill="#000000" stroke="#000000" points="231,-180.2001 239,-183.8 235,-180.2 239,-180.2 239,-180.2 239,-180.2 235,-180.2 239,-176.6 231,-180.2001 231,-180.2001"/>
<ellipse fill="none" stroke="#000000" cx="227.8" cy="-180.2001" rx="3.2" ry="3.2"/>
</g>
</g>
</svg>
