<?xml version="1.0" encoding="UTF-8" standalone="no"?>
<!DOCTYPE svg PUBLIC "-//W3C//DTD SVG 1.1//EN"
 "http://www.w3.org/Graphics/SVG/1.1/DTD/svg11.dtd">
<!-- Generated by graphviz version 2.40.1 (20161225.0304)
 -->
<!-- Title: twoDegreesRelationshipsDiagram Pages: 1 -->
<svg width="336pt" height="453pt"
 viewBox="0.00 0.00 336.00 452.70" xmlns="http://www.w3.org/2000/svg" xmlns:xlink="http://www.w3.org/1999/xlink">
<g id="graph0" class="graph" transform="scale(1 1) rotate(0) translate(4 448.7)">
<title>twoDegreesRelationshipsDiagram</title>
<polygon fill="#ffffff" stroke="transparent" points="-4,4 -4,-448.7 332,-448.7 332,4 -4,4"/>
<text text-anchor="middle" x="72.4936" y="-7.3" font-family="Helvetica,sans-Serif" font-size="11.00" fill="#000000">Generated by SchemaSpy</text>
<!-- blueray -->
<g id="node1" class="node">
<title>blueray</title>
<g id="a_node1"><a xlink:href="../../tables/blueray.html" xlink:title="blueray" target="_top">
<polygon fill="#ffffff" stroke="transparent" points="160,-284.7 160,-440.7 320,-440.7 320,-284.7 160,-284.7"/>
<polygon fill="#f5f5f5" stroke="transparent" points="162,-415.7 162,-438.7 318,-438.7 318,-415.7 162,-415.7"/>
<polygon fill="none" stroke="#000000" points="162,-415.7 162,-438.7 318,-438.7 318,-415.7 162,-415.7"/>
<text text-anchor="start" x="167" y="-424.3" font-family="Helvetica,sans-Serif" font-weight="bold" font-size="11.00" fill="#000000">blueray</text>
<text text-anchor="start" x="283.0437" y="-423.8" font-family="Helvetica,sans-Serif" font-size="11.00" fill="#000000">[table]</text>
<polygon fill="none" stroke="#000000" points="162,-393.7 162,-415.7 251,-415.7 251,-393.7 162,-393.7"/>
<image xlink:href="../../images/primaryKeys.png" width="11px" height="12px" preserveAspectRatio="xMinYMin meet" x="167" y="-410.7"/>
<text text-anchor="start" x="182" y="-400.8" font-family="Helvetica,sans-Serif" font-size="11.00" fill="#000000">id</text>
<polygon fill="none" stroke="#000000" points="251,-393.7 251,-415.7 318,-415.7 318,-393.7 251,-393.7"/>
<text text-anchor="start" x="254" y="-401.4" font-family="Helvetica,sans-Serif" font-size="11.00" fill="#000000">int[10]</text>
<polygon fill="none" stroke="#000000" points="162,-371.7 162,-393.7 251,-393.7 251,-371.7 162,-371.7"/>
<text text-anchor="start" x="182" y="-378.8" font-family="Helvetica,sans-Serif" font-size="11.00" fill="#000000">realisateur</text>
<polygon fill="none" stroke="#000000" points="251,-371.7 251,-393.7 318,-393.7 318,-371.7 251,-371.7"/>
<text text-anchor="start" x="253.9365" y="-379.4" font-family="Helvetica,sans-Serif" font-size="11.00" fill="#000000">varchar[255]</text>
<polygon fill="none" stroke="#000000" points="162,-349.7 162,-371.7 251,-371.7 251,-349.7 162,-349.7"/>
<text text-anchor="start" x="182" y="-356.8" font-family="Helvetica,sans-Serif" font-size="11.00" fill="#000000">dureeMin</text>
<polygon fill="none" stroke="#000000" points="251,-349.7 251,-371.7 318,-371.7 318,-349.7 251,-349.7"/>
<text text-anchor="start" x="254" y="-357.4" font-family="Helvetica,sans-Serif" font-size="11.00" fill="#000000">int[10]</text>
<polygon fill="none" stroke="#000000" points="162,-327.7 162,-349.7 251,-349.7 251,-327.7 162,-327.7"/>
<text text-anchor="start" x="182" y="-334.8" font-family="Helvetica,sans-Serif" font-size="11.00" fill="#000000">anneeSortie</text>
<polygon fill="none" stroke="#000000" points="251,-327.7 251,-349.7 318,-349.7 318,-327.7 251,-327.7"/>
<text text-anchor="start" x="254" y="-335.4" font-family="Helvetica,sans-Serif" font-size="11.00" fill="#000000">int[10]</text>
<polygon fill="none" stroke="#000000" points="162,-305.7 162,-327.7 251,-327.7 251,-305.7 162,-305.7"/>
<text text-anchor="start" x="182" y="-312.8" font-family="Helvetica,sans-Serif" font-size="11.00" fill="#000000">dateLimite</text>
<polygon fill="none" stroke="#000000" points="251,-305.7 251,-327.7 318,-327.7 318,-305.7 251,-305.7"/>
<text text-anchor="start" x="254" y="-313.4" font-family="Helvetica,sans-Serif" font-size="11.00" fill="#000000">int[10]</text>
<polygon fill="#ffffff" stroke="transparent" points="162,-286.7 162,-305.7 198,-305.7 198,-286.7 162,-286.7"/>
<polygon fill="none" stroke="#000000" points="162,-286.7 162,-305.7 198,-305.7 198,-286.7 162,-286.7"/>
<text text-anchor="start" x="165" y="-292.8" font-family="Helvetica,sans-Serif" font-size="11.00" fill="#000000">&lt; 1</text>
<polygon fill="#ffffff" stroke="transparent" points="198,-286.7 198,-305.7 251,-305.7 251,-286.7 198,-286.7"/>
<polygon fill="none" stroke="#000000" points="198,-286.7 198,-305.7 251,-305.7 251,-286.7 198,-286.7"/>
<text text-anchor="start" x="215.6105" y="-292.8" font-family="Helvetica,sans-Serif" font-size="11.00" fill="#000000">0 rows</text>
<polygon fill="#ffffff" stroke="transparent" points="251,-286.7 251,-305.7 318,-305.7 318,-286.7 251,-286.7"/>
<polygon fill="none" stroke="#000000" points="251,-286.7 251,-305.7 318,-305.7 318,-286.7 251,-286.7"/>
<text text-anchor="start" x="299.4053" y="-292.8" font-family="Helvetica,sans-Serif" font-size="11.00" fill="#000000">0 &gt;</text>
<polygon fill="none" stroke="#000000" stroke-width="2" points="161,-285.7 161,-439.7 319,-439.7 319,-285.7 161,-285.7"/>
</a>
</g>
</g>
<!-- media -->
<g id="node2" class="node">
<title>media</title>
<g id="a_node2"><a xlink:href="../../tables/media.html" xlink:title="media" target="_top">
<polygon fill="#ffffff" stroke="transparent" points="8,-140.2 8,-223.2 111,-223.2 111,-140.2 8,-140.2"/>
<polygon fill="#f5f5f5" stroke="transparent" points="8.5,-199.7 8.5,-222.7 111.5,-222.7 111.5,-199.7 8.5,-199.7"/>
<polygon fill="none" stroke="#000000" points="8.5,-199.7 8.5,-222.7 111.5,-222.7 111.5,-199.7 8.5,-199.7"/>
<text text-anchor="start" x="13.5" y="-208.3" font-family="Helvetica,sans-Serif" font-weight="bold" font-size="11.00" fill="#000000">media</text>
<text text-anchor="start" x="76.5437" y="-207.8" font-family="Helvetica,sans-Serif" font-size="11.00" fill="#000000">[table]</text>
<polygon fill="none" stroke="#000000" points="8.5,-177.7 8.5,-199.7 111.5,-199.7 111.5,-177.7 8.5,-177.7"/>
<image xlink:href="../../images/primaryKeys.png" width="11px" height="12px" preserveAspectRatio="xMinYMin meet" x="13.5" y="-194.7"/>
<text text-anchor="start" x="28.5" y="-184.8" font-family="Helvetica,sans-Serif" font-size="11.00" fill="#000000">id</text>
<polygon fill="none" stroke="#000000" points="8.5,-158.7 8.5,-177.7 111.5,-177.7 111.5,-158.7 8.5,-158.7"/>
<text text-anchor="start" x="11.5" y="-164.8" font-family="Helvetica,sans-Serif" font-size="11.00" fill="#000000">...</text>
<polygon fill="#ffffff" stroke="transparent" points="8.5,-139.7 8.5,-158.7 36.5,-158.7 36.5,-139.7 8.5,-139.7"/>
<polygon fill="none" stroke="#000000" points="8.5,-139.7 8.5,-158.7 36.5,-158.7 36.5,-139.7 8.5,-139.7"/>
<text text-anchor="start" x="11.5" y="-145.8" font-family="Helvetica,sans-Serif" font-size="11.00" fill="#000000"> &#160;</text>
<polygon fill="#ffffff" stroke="transparent" points="36.5,-139.7 36.5,-158.7 82.5,-158.7 82.5,-139.7 36.5,-139.7"/>
<polygon fill="none" stroke="#000000" points="36.5,-139.7 36.5,-158.7 82.5,-158.7 82.5,-139.7 36.5,-139.7"/>
<text text-anchor="start" x="47.1105" y="-145.8" font-family="Helvetica,sans-Serif" font-size="11.00" fill="#000000">3 rows</text>
<polygon fill="#ffffff" stroke="transparent" points="82.5,-139.7 82.5,-158.7 111.5,-158.7 111.5,-139.7 82.5,-139.7"/>
<polygon fill="none" stroke="#000000" points="82.5,-139.7 82.5,-158.7 111.5,-158.7 111.5,-139.7 82.5,-139.7"/>
<text text-anchor="start" x="92.9053" y="-145.8" font-family="Helvetica,sans-Serif" font-size="11.00" fill="#000000">4 &gt;</text>
</a>
</g>
</g>
<!-- blueray&#45;&gt;media -->
<g id="edge1" class="edge">
<title>blueray:w&#45;&gt;media:e</title>
<path fill="none" stroke="#000000" d="M151.5401,-403.737C74.4961,-388.1546 206.2377,-188.7 111.5,-188.7"/>
<polygon fill="#000000" stroke="#000000" points="161.5701,-400.6435 160.8366,-408.6098 159.2434,-408.4631 159.9769,-400.4968 161.5701,-400.6435"/>
<polyline fill="none" stroke="#000000" points="162,-404.7 158.0168,-404.3332 "/>
<ellipse fill="none" stroke="#000000" cx="154.8303" cy="-404.0398" rx="3.2" ry="3.2"/>
</g>
<!-- emprunt -->
<g id="node3" class="node">
<title>emprunt</title>
<g id="a_node3"><a xlink:href="../../tables/emprunt.html" xlink:title="emprunt" target="_top">
<polygon fill="#ffffff" stroke="transparent" points="196.5,-202.2 196.5,-263.2 283.5,-263.2 283.5,-202.2 196.5,-202.2"/>
<polygon fill="#f5f5f5" stroke="transparent" points="197,-239.7 197,-262.7 284,-262.7 284,-239.7 197,-239.7"/>
<polygon fill="none" stroke="#000000" points="197,-239.7 197,-262.7 284,-262.7 284,-239.7 197,-239.7"/>
<text text-anchor="start" x="202" y="-248.3" font-family="Helvetica,sans-Serif" font-weight="bold" font-size="11.00" fill="#000000">emprunt</text>
<text text-anchor="start" x="249.5219" y="-247.8" font-family="Helvetica,sans-Serif" font-size="11.00" fill="#000000">[table]</text>
<polygon fill="none" stroke="#000000" points="197,-220.7 197,-239.7 284,-239.7 284,-220.7 197,-220.7"/>
<text text-anchor="start" x="200" y="-226.8" font-family="Helvetica,sans-Serif" font-size="11.00" fill="#000000">...</text>
<polygon fill="#ffffff" stroke="transparent" points="197,-201.7 197,-220.7 229,-220.7 229,-201.7 197,-201.7"/>
<polygon fill="none" stroke="#000000" points="197,-201.7 197,-220.7 229,-220.7 229,-201.7 197,-201.7"/>
<text text-anchor="start" x="200" y="-207.8" font-family="Helvetica,sans-Serif" font-size="11.00" fill="#000000">&lt; 2</text>
<polygon fill="#ffffff" stroke="transparent" points="229,-201.7 229,-220.7 266,-220.7 266,-201.7 229,-201.7"/>
<polygon fill="none" stroke="#000000" points="229,-201.7 229,-220.7 266,-220.7 266,-201.7 229,-201.7"/>
<text text-anchor="start" x="236.1105" y="-207.8" font-family="Helvetica,sans-Serif" font-size="11.00" fill="#000000">1 row</text>
<polygon fill="#ffffff" stroke="transparent" points="266,-201.7 266,-220.7 284,-220.7 284,-201.7 266,-201.7"/>
<polygon fill="none" stroke="#000000" points="266,-201.7 266,-220.7 284,-220.7 284,-201.7 266,-201.7"/>
<text text-anchor="start" x="274.8862" y="-207.8" font-family="Helvetica,sans-Serif" font-size="11.00" fill="#000000"> &#160;</text>
</a>
</g>
</g>
<!-- emprunt&#45;&gt;media -->
<g id="edge2" class="edge">
<title>emprunt:w&#45;&gt;media:e</title>
<path fill="none" stroke="#000000" d="M182.5675,-227.8318C153.8638,-219.811 148.2107,-188.7 111.5,-188.7"/>
<polygon fill="#000000" stroke="#000000" points="189.0662,-228.673 196.5378,-233.2702 193.0331,-229.1865 197,-229.7 197,-229.7 197,-229.7 193.0331,-229.1865 197.4622,-226.1298 189.0662,-228.673 189.0662,-228.673"/>
<ellipse fill="none" stroke="#000000" cx="185.8927" cy="-228.2621" rx="3.2" ry="3.2"/>
</g>
<!-- livre -->
<g id="node4" class="node">
<title>livre</title>
<g id="a_node4"><a xlink:href="../../tables/livre.html" xlink:title="livre" target="_top">
<polygon fill="#ffffff" stroke="transparent" points="204.5,-120.2 204.5,-181.2 275.5,-181.2 275.5,-120.2 204.5,-120.2"/>
<polygon fill="#f5f5f5" stroke="transparent" points="205,-157.7 205,-180.7 276,-180.7 276,-157.7 205,-157.7"/>
<polygon fill="none" stroke="#000000" points="205,-157.7 205,-180.7 276,-180.7 276,-157.7 205,-157.7"/>
<text text-anchor="start" x="209.9207" y="-166.3" font-family="Helvetica,sans-Serif" font-weight="bold" font-size="11.00" fill="#000000">livre</text>
<text text-anchor="start" x="241.0437" y="-165.8" font-family="Helvetica,sans-Serif" font-size="11.00" fill="#000000">[table]</text>
<polygon fill="none" stroke="#000000" points="205,-138.7 205,-157.7 276,-157.7 276,-138.7 205,-138.7"/>
<text text-anchor="start" x="208" y="-144.8" font-family="Helvetica,sans-Serif" font-size="11.00" fill="#000000">...</text>
<polygon fill="#ffffff" stroke="transparent" points="205,-119.7 205,-138.7 226,-138.7 226,-119.7 205,-119.7"/>
<polygon fill="none" stroke="#000000" points="205,-119.7 205,-138.7 226,-138.7 226,-119.7 205,-119.7"/>
<text text-anchor="start" x="207.7027" y="-125.8" font-family="Helvetica,sans-Serif" font-size="11.00" fill="#000000">&lt; 1</text>
<polygon fill="#ffffff" stroke="transparent" points="226,-119.7 226,-138.7 264,-138.7 264,-119.7 226,-119.7"/>
<polygon fill="none" stroke="#000000" points="226,-119.7 226,-138.7 264,-138.7 264,-119.7 226,-119.7"/>
<text text-anchor="start" x="228.8053" y="-125.8" font-family="Helvetica,sans-Serif" font-size="11.00" fill="#000000">0 rows</text>
<polygon fill="#ffffff" stroke="transparent" points="264,-119.7 264,-138.7 276,-138.7 276,-119.7 264,-119.7"/>
<polygon fill="none" stroke="#000000" points="264,-119.7 264,-138.7 276,-138.7 276,-119.7 264,-119.7"/>
<text text-anchor="start" x="266.9431" y="-125.8" font-family="Helvetica,sans-Serif" font-size="11.00" fill="#000000"> &#160;</text>
</a>
</g>
</g>
<!-- livre&#45;&gt;media -->
<g id="edge3" class="edge">
<title>livre:w&#45;&gt;media:e</title>
<path fill="none" stroke="#000000" d="M194.192,-148.5563C158.8374,-154.4441 152.9758,-188.7 111.5,-188.7"/>
<polygon fill="#000000" stroke="#000000" points="203.8865,-143.7757 204.5185,-151.7507 202.9235,-151.8771 202.2915,-143.9021 203.8865,-143.7757"/>
<polyline fill="none" stroke="#000000" points="205,-147.7 201.0125,-148.016 "/>
<ellipse fill="none" stroke="#000000" cx="197.8225" cy="-148.2688" rx="3.2" ry="3.2"/>
</g>
<!-- magazine -->
<g id="node5" class="node">
<title>magazine</title>
<g id="a_node5"><a xlink:href="../../tables/magazine.html" xlink:title="magazine" target="_top">
<polygon fill="#ffffff" stroke="transparent" points="193.5,-38.2 193.5,-99.2 286.5,-99.2 286.5,-38.2 193.5,-38.2"/>
<polygon fill="#f5f5f5" stroke="transparent" points="194,-75.7 194,-98.7 287,-98.7 287,-75.7 194,-75.7"/>
<polygon fill="none" stroke="#000000" points="194,-75.7 194,-98.7 287,-98.7 287,-75.7 194,-75.7"/>
<text text-anchor="start" x="199" y="-84.3" font-family="Helvetica,sans-Serif" font-weight="bold" font-size="11.00" fill="#000000">magazine</text>
<text text-anchor="start" x="252.5219" y="-83.8" font-family="Helvetica,sans-Serif" font-size="11.00" fill="#000000">[table]</text>
<polygon fill="none" stroke="#000000" points="194,-56.7 194,-75.7 287,-75.7 287,-56.7 194,-56.7"/>
<text text-anchor="start" x="197" y="-62.8" font-family="Helvetica,sans-Serif" font-size="11.00" fill="#000000">...</text>
<polygon fill="#ffffff" stroke="transparent" points="194,-37.7 194,-56.7 226,-56.7 226,-37.7 194,-37.7"/>
<polygon fill="none" stroke="#000000" points="194,-37.7 194,-56.7 226,-56.7 226,-37.7 194,-37.7"/>
<text text-anchor="start" x="197" y="-43.8" font-family="Helvetica,sans-Serif" font-size="11.00" fill="#000000">&lt; 1</text>
<polygon fill="#ffffff" stroke="transparent" points="226,-37.7 226,-56.7 269,-56.7 269,-37.7 226,-37.7"/>
<polygon fill="none" stroke="#000000" points="226,-37.7 226,-56.7 269,-56.7 269,-37.7 226,-37.7"/>
<text text-anchor="start" x="233.6105" y="-43.8" font-family="Helvetica,sans-Serif" font-size="11.00" fill="#000000">2 rows</text>
<polygon fill="#ffffff" stroke="transparent" points="269,-37.7 269,-56.7 287,-56.7 287,-37.7 269,-37.7"/>
<polygon fill="none" stroke="#000000" points="269,-37.7 269,-56.7 287,-56.7 287,-37.7 269,-37.7"/>
<text text-anchor="start" x="277.8862" y="-43.8" font-family="Helvetica,sans-Serif" font-size="11.00" fill="#000000"> &#160;</text>
</a>
</g>
</g>
<!-- magazine&#45;&gt;media -->
<g id="edge4" class="edge">
<title>magazine:w&#45;&gt;media:e</title>
<path fill="none" stroke="#000000" d="M183.6501,-67.0803C166.812,-72.2224 165.3376,-90.9357 152,-109.7 129.1409,-141.8598 150.9562,-188.7 111.5,-188.7"/>
<polygon fill="#000000" stroke="#000000" points="192.6782,-61.8409 193.7358,-69.7707 192.1499,-69.9822 191.0923,-62.0524 192.6782,-61.8409"/>
<polyline fill="none" stroke="#000000" points="194,-65.7 190.0351,-66.2288 "/>
<ellipse fill="none" stroke="#000000" cx="186.8632" cy="-66.6518" rx="3.2" ry="3.2"/>
</g>
</g>
</svg>
