<?xml version="1.0" encoding="UTF-8" standalone="no"?>
<!DOCTYPE svg PUBLIC "-//W3C//DTD SVG 1.1//EN"
 "http://www.w3.org/Graphics/SVG/1.1/DTD/svg11.dtd">
<!-- Generated by graphviz version 2.40.1 (20161225.0304)
 -->
<!-- Title: oneDegreeRelationshipsDiagram Pages: 1 -->
<svg width="336pt" height="206pt"
 viewBox="0.00 0.00 336.00 206.20" xmlns="http://www.w3.org/2000/svg" xmlns:xlink="http://www.w3.org/1999/xlink">
<g id="graph0" class="graph" transform="scale(1 1) rotate(0) translate(4 202.2)">
<title>oneDegreeRelationshipsDiagram</title>
<polygon fill="#ffffff" stroke="transparent" points="-4,4 -4,-202.2 332,-202.2 332,4 -4,4"/>
<text text-anchor="middle" x="72.4936" y="-7.3" font-family="Helvetica,sans-Serif" font-size="11.00" fill="#000000">Generated by SchemaSpy</text>
<!-- blueray -->
<g id="node1" class="node">
<title>blueray</title>
<g id="a_node1"><a xlink:href="../../tables/blueray.html" xlink:title="blueray" target="_top">
<polygon fill="#ffffff" stroke="transparent" points="160,-38.2 160,-194.2 320,-194.2 320,-38.2 160,-38.2"/>
<polygon fill="#f5f5f5" stroke="transparent" points="162,-169.2 162,-192.2 318,-192.2 318,-169.2 162,-169.2"/>
<polygon fill="none" stroke="#000000" points="162,-169.2 162,-192.2 318,-192.2 318,-169.2 162,-169.2"/>
<text text-anchor="start" x="167" y="-177.8" font-family="Helvetica,sans-Serif" font-weight="bold" font-size="11.00" fill="#000000">blueray</text>
<text text-anchor="start" x="283.0437" y="-177.3" font-family="Helvetica,sans-Serif" font-size="11.00" fill="#000000">[table]</text>
<polygon fill="none" stroke="#000000" points="162,-147.2 162,-169.2 251,-169.2 251,-147.2 162,-147.2"/>
<image xlink:href="../../images/primaryKeys.png" width="11px" height="12px" preserveAspectRatio="xMinYMin meet" x="167" y="-164.2"/>
<text text-anchor="start" x="182" y="-154.3" font-family="Helvetica,sans-Serif" font-size="11.00" fill="#000000">id</text>
<polygon fill="none" stroke="#000000" points="251,-147.2 251,-169.2 318,-169.2 318,-147.2 251,-147.2"/>
<text text-anchor="start" x="254" y="-154.9" font-family="Helvetica,sans-Serif" font-size="11.00" fill="#000000">int[10]</text>
<polygon fill="none" stroke="#000000" points="162,-125.2 162,-147.2 251,-147.2 251,-125.2 162,-125.2"/>
<text text-anchor="start" x="182" y="-132.3" font-family="Helvetica,sans-Serif" font-size="11.00" fill="#000000">realisateur</text>
<polygon fill="none" stroke="#000000" points="251,-125.2 251,-147.2 318,-147.2 318,-125.2 251,-125.2"/>
<text text-anchor="start" x="253.9365" y="-132.9" font-family="Helvetica,sans-Serif" font-size="11.00" fill="#000000">varchar[255]</text>
<polygon fill="none" stroke="#000000" points="162,-103.2 162,-125.2 251,-125.2 251,-103.2 162,-103.2"/>
<text text-anchor="start" x="182" y="-110.3" font-family="Helvetica,sans-Serif" font-size="11.00" fill="#000000">dureeMin</text>
<polygon fill="none" stroke="#000000" points="251,-103.2 251,-125.2 318,-125.2 318,-103.2 251,-103.2"/>
<text text-anchor="start" x="254" y="-110.9" font-family="Helvetica,sans-Serif" font-size="11.00" fill="#000000">int[10]</text>
<polygon fill="none" stroke="#000000" points="162,-81.2 162,-103.2 251,-103.2 251,-81.2 162,-81.2"/>
<text text-anchor="start" x="182" y="-88.3" font-family="Helvetica,sans-Serif" font-size="11.00" fill="#000000">anneeSortie</text>
<polygon fill="none" stroke="#000000" points="251,-81.2 251,-103.2 318,-103.2 318,-81.2 251,-81.2"/>
<text text-anchor="start" x="254" y="-88.9" font-family="Helvetica,sans-Serif" font-size="11.00" fill="#000000">int[10]</text>
<polygon fill="none" stroke="#000000" points="162,-59.2 162,-81.2 251,-81.2 251,-59.2 162,-59.2"/>
<text text-anchor="start" x="182" y="-66.3" font-family="Helvetica,sans-Serif" font-size="11.00" fill="#000000">dateLimite</text>
<polygon fill="none" stroke="#000000" points="251,-59.2 251,-81.2 318,-81.2 318,-59.2 251,-59.2"/>
<text text-anchor="start" x="254" y="-66.9" font-family="Helvetica,sans-Serif" font-size="11.00" fill="#000000">int[10]</text>
<polygon fill="#ffffff" stroke="transparent" points="162,-40.2 162,-59.2 198,-59.2 198,-40.2 162,-40.2"/>
<polygon fill="none" stroke="#000000" points="162,-40.2 162,-59.2 198,-59.2 198,-40.2 162,-40.2"/>
<text text-anchor="start" x="165" y="-46.3" font-family="Helvetica,sans-Serif" font-size="11.00" fill="#000000">&lt; 1</text>
<polygon fill="#ffffff" stroke="transparent" points="198,-40.2 198,-59.2 251,-59.2 251,-40.2 198,-40.2"/>
<polygon fill="none" stroke="#000000" points="198,-40.2 198,-59.2 251,-59.2 251,-40.2 198,-40.2"/>
<text text-anchor="start" x="215.6105" y="-46.3" font-family="Helvetica,sans-Serif" font-size="11.00" fill="#000000">0 rows</text>
<polygon fill="#ffffff" stroke="transparent" points="251,-40.2 251,-59.2 318,-59.2 318,-40.2 251,-40.2"/>
<polygon fill="none" stroke="#000000" points="251,-40.2 251,-59.2 318,-59.2 318,-40.2 251,-40.2"/>
<text text-anchor="start" x="299.4053" y="-46.3" font-family="Helvetica,sans-Serif" font-size="11.00" fill="#000000">0 &gt;</text>
<polygon fill="none" stroke="#000000" stroke-width="2" points="161,-39.2 161,-193.2 319,-193.2 319,-39.2 161,-39.2"/>
</a>
</g>
</g>
<!-- media -->
<g id="node2" class="node">
<title>media</title>
<g id="a_node2"><a xlink:href="../../tables/media.html" xlink:title="media" target="_top">
<polygon fill="#ffffff" stroke="transparent" points="8,-109.7 8,-192.7 111,-192.7 111,-109.7 8,-109.7"/>
<polygon fill="#f5f5f5" stroke="transparent" points="8.5,-169.2 8.5,-192.2 111.5,-192.2 111.5,-169.2 8.5,-169.2"/>
<polygon fill="none" stroke="#000000" points="8.5,-169.2 8.5,-192.2 111.5,-192.2 111.5,-169.2 8.5,-169.2"/>
<text text-anchor="start" x="13.5" y="-177.8" font-family="Helvetica,sans-Serif" font-weight="bold" font-size="11.00" fill="#000000">media</text>
<text text-anchor="start" x="76.5437" y="-177.3" font-family="Helvetica,sans-Serif" font-size="11.00" fill="#000000">[table]</text>
<polygon fill="none" stroke="#000000" points="8.5,-147.2 8.5,-169.2 111.5,-169.2 111.5,-147.2 8.5,-147.2"/>
<image xlink:href="../../images/primaryKeys.png" width="11px" height="12px" preserveAspectRatio="xMinYMin meet" x="13.5" y="-164.2"/>
<text text-anchor="start" x="28.5" y="-154.3" font-family="Helvetica,sans-Serif" font-size="11.00" fill="#000000">id</text>
<polygon fill="none" stroke="#000000" points="8.5,-128.2 8.5,-147.2 111.5,-147.2 111.5,-128.2 8.5,-128.2"/>
<text text-anchor="start" x="11.5" y="-134.3" font-family="Helvetica,sans-Serif" font-size="11.00" fill="#000000">...</text>
<polygon fill="#ffffff" stroke="transparent" points="8.5,-109.2 8.5,-128.2 36.5,-128.2 36.5,-109.2 8.5,-109.2"/>
<polygon fill="none" stroke="#000000" points="8.5,-109.2 8.5,-128.2 36.5,-128.2 36.5,-109.2 8.5,-109.2"/>
<text text-anchor="start" x="11.5" y="-115.3" font-family="Helvetica,sans-Serif" font-size="11.00" fill="#000000"> &#160;</text>
<polygon fill="#ffffff" stroke="transparent" points="36.5,-109.2 36.5,-128.2 82.5,-128.2 82.5,-109.2 36.5,-109.2"/>
<polygon fill="none" stroke="#000000" points="36.5,-109.2 36.5,-128.2 82.5,-128.2 82.5,-109.2 36.5,-109.2"/>
<text text-anchor="start" x="47.1105" y="-115.3" font-family="Helvetica,sans-Serif" font-size="11.00" fill="#000000">3 rows</text>
<polygon fill="#ffffff" stroke="transparent" points="82.5,-109.2 82.5,-128.2 111.5,-128.2 111.5,-109.2 82.5,-109.2"/>
<polygon fill="none" stroke="#000000" points="82.5,-109.2 82.5,-128.2 111.5,-128.2 111.5,-109.2 82.5,-109.2"/>
<text text-anchor="start" x="92.9053" y="-115.3" font-family="Helvetica,sans-Serif" font-size="11.00" fill="#000000">4 &gt;</text>
</a>
</g>
</g>
<!-- blueray&#45;&gt;media -->
<g id="edge1" class="edge">
<title>blueray:w&#45;&gt;media:e</title>
<path fill="none" stroke="#000000" d="M151.3362,-158.2C136.9956,-158.2 129.9115,-158.2 111.5,-158.2"/>
<polygon fill="#000000" stroke="#000000" points="161.2,-154.2 161.2,-162.2 159.6,-162.2 159.6,-154.2 161.2,-154.2"/>
<polyline fill="none" stroke="#000000" points="162,-158.2 158,-158.2 "/>
<ellipse fill="none" stroke="#000000" cx="154.8" cy="-158.2001" rx="3.2" ry="3.2"/>
</g>
</g>
</svg>
