<?xml version="1.0" encoding="UTF-8" standalone="no"?>
<!DOCTYPE svg PUBLIC "-//W3C//DTD SVG 1.1//EN"
 "http://www.w3.org/Graphics/SVG/1.1/DTD/svg11.dtd">
<!-- Generated by graphviz version 2.40.1 (20161225.0304)
 -->
<!-- Title: oneDegreeRelationshipsDiagram Pages: 1 -->
<svg width="390pt" height="268pt"
 viewBox="0.00 0.00 390.00 267.70" xmlns="http://www.w3.org/2000/svg" xmlns:xlink="http://www.w3.org/1999/xlink">
<g id="graph0" class="graph" transform="scale(1 1) rotate(0) translate(4 263.7)">
<title>oneDegreeRelationshipsDiagram</title>
<polygon fill="#ffffff" stroke="transparent" points="-4,4 -4,-263.7 386,-263.7 386,4 -4,4"/>
<text text-anchor="middle" x="72.4936" y="-7.3" font-family="Helvetica,sans-Serif" font-size="11.00" fill="#000000">Generated by SchemaSpy</text>
<!-- emprunt -->
<g id="node1" class="node">
<title>emprunt</title>
<g id="a_node1"><a xlink:href="../../tables/emprunt.html" xlink:title="emprunt" target="_top">
<polygon fill="#ffffff" stroke="transparent" points="174,-38.2 174,-216.2 374,-216.2 374,-38.2 174,-38.2"/>
<polygon fill="#f5f5f5" stroke="transparent" points="176,-191.2 176,-214.2 372,-214.2 372,-191.2 176,-191.2"/>
<polygon fill="none" stroke="#000000" points="176,-191.2 176,-214.2 372,-214.2 372,-191.2 176,-191.2"/>
<text text-anchor="start" x="181" y="-199.8" font-family="Helvetica,sans-Serif" font-weight="bold" font-size="11.00" fill="#000000">emprunt</text>
<text text-anchor="start" x="337.0437" y="-199.3" font-family="Helvetica,sans-Serif" font-size="11.00" fill="#000000">[table]</text>
<polygon fill="#ffffff" stroke="transparent" points="176,-169.2 176,-191.2 306,-191.2 306,-169.2 176,-169.2"/>
<polygon fill="none" stroke="#000000" points="176,-169.2 176,-191.2 306,-191.2 306,-169.2 176,-169.2"/>
<image xlink:href="../../images/foreignKeys.png" width="11px" height="12px" preserveAspectRatio="xMinYMin meet" x="181" y="-186.2"/>
<text text-anchor="start" x="196" y="-176.3" font-family="Helvetica,sans-Serif" font-size="11.00" fill="#000000">adherent_id</text>
<polygon fill="none" stroke="#000000" points="306,-169.2 306,-191.2 372,-191.2 372,-169.2 306,-169.2"/>
<text text-anchor="start" x="309" y="-176.9" font-family="Helvetica,sans-Serif" font-size="11.00" fill="#000000">int[10]</text>
<polygon fill="#ffffff" stroke="transparent" points="176,-147.2 176,-169.2 306,-169.2 306,-147.2 176,-147.2"/>
<polygon fill="none" stroke="#000000" points="176,-147.2 176,-169.2 306,-169.2 306,-147.2 176,-147.2"/>
<image xlink:href="../../images/foreignKeys.png" width="11px" height="12px" preserveAspectRatio="xMinYMin meet" x="181" y="-164.2"/>
<text text-anchor="start" x="196" y="-154.3" font-family="Helvetica,sans-Serif" font-size="11.00" fill="#000000">media_id</text>
<polygon fill="none" stroke="#000000" points="306,-147.2 306,-169.2 372,-169.2 372,-147.2 306,-147.2"/>
<text text-anchor="start" x="309" y="-154.9" font-family="Helvetica,sans-Serif" font-size="11.00" fill="#000000">int[10]</text>
<polygon fill="none" stroke="#000000" points="176,-125.2 176,-147.2 306,-147.2 306,-125.2 176,-125.2"/>
<image xlink:href="../../images/primaryKeys.png" width="11px" height="12px" preserveAspectRatio="xMinYMin meet" x="181" y="-142.2"/>
<text text-anchor="start" x="196" y="-132.3" font-family="Helvetica,sans-Serif" font-size="11.00" fill="#000000">numeroEmprunt</text>
<polygon fill="none" stroke="#000000" points="306,-125.2 306,-147.2 372,-147.2 372,-125.2 306,-125.2"/>
<text text-anchor="start" x="309" y="-132.9" font-family="Helvetica,sans-Serif" font-size="11.00" fill="#000000">varchar[12]</text>
<polygon fill="none" stroke="#000000" points="176,-103.2 176,-125.2 306,-125.2 306,-103.2 176,-103.2"/>
<text text-anchor="start" x="196" y="-110.3" font-family="Helvetica,sans-Serif" font-size="11.00" fill="#000000">dateEmprunt</text>
<polygon fill="none" stroke="#000000" points="306,-103.2 306,-125.2 372,-125.2 372,-103.2 306,-103.2"/>
<text text-anchor="start" x="308.7401" y="-110.9" font-family="Helvetica,sans-Serif" font-size="11.00" fill="#000000">datetime[19]</text>
<polygon fill="none" stroke="#000000" points="176,-81.2 176,-103.2 306,-103.2 306,-81.2 176,-81.2"/>
<text text-anchor="start" x="196" y="-88.3" font-family="Helvetica,sans-Serif" font-size="11.00" fill="#000000">dateRetourEstimee</text>
<polygon fill="none" stroke="#000000" points="306,-81.2 306,-103.2 372,-103.2 372,-81.2 306,-81.2"/>
<text text-anchor="start" x="308.7401" y="-88.9" font-family="Helvetica,sans-Serif" font-size="11.00" fill="#000000">datetime[19]</text>
<polygon fill="none" stroke="#000000" points="176,-59.2 176,-81.2 306,-81.2 306,-59.2 176,-59.2"/>
<text text-anchor="start" x="196" y="-66.3" font-family="Helvetica,sans-Serif" font-size="11.00" fill="#000000">dateRetour</text>
<polygon fill="none" stroke="#000000" points="306,-59.2 306,-81.2 372,-81.2 372,-59.2 306,-59.2"/>
<text text-anchor="start" x="308.7401" y="-66.9" font-family="Helvetica,sans-Serif" font-size="11.00" fill="#000000">datetime[19]</text>
<polygon fill="#ffffff" stroke="transparent" points="176,-40.2 176,-59.2 235,-59.2 235,-40.2 176,-40.2"/>
<polygon fill="none" stroke="#000000" points="176,-40.2 176,-59.2 235,-59.2 235,-40.2 176,-40.2"/>
<text text-anchor="start" x="179" y="-46.3" font-family="Helvetica,sans-Serif" font-size="11.00" fill="#000000">&lt; 2</text>
<polygon fill="#ffffff" stroke="transparent" points="235,-40.2 235,-59.2 306,-59.2 306,-40.2 235,-40.2"/>
<polygon fill="none" stroke="#000000" points="235,-40.2 235,-59.2 306,-59.2 306,-40.2 235,-40.2"/>
<text text-anchor="start" x="276.1105" y="-46.3" font-family="Helvetica,sans-Serif" font-size="11.00" fill="#000000">1 row</text>
<polygon fill="#ffffff" stroke="transparent" points="306,-40.2 306,-59.2 372,-59.2 372,-40.2 306,-40.2"/>
<polygon fill="none" stroke="#000000" points="306,-40.2 306,-59.2 372,-59.2 372,-40.2 306,-40.2"/>
<text text-anchor="start" x="353.4053" y="-46.3" font-family="Helvetica,sans-Serif" font-size="11.00" fill="#000000">0 &gt;</text>
<polygon fill="none" stroke="#000000" stroke-width="2" points="175,-39.2 175,-215.2 373,-215.2 373,-39.2 175,-39.2"/>
</a>
</g>
</g>
<!-- adherent -->
<g id="node2" class="node">
<title>adherent</title>
<g id="a_node2"><a xlink:href="../../tables/adherent.html" xlink:title="adherent" target="_top">
<polygon fill="#ffffff" stroke="transparent" points="8,-172.7 8,-255.7 125,-255.7 125,-172.7 8,-172.7"/>
<polygon fill="#f5f5f5" stroke="transparent" points="8.5,-232.2 8.5,-255.2 125.5,-255.2 125.5,-232.2 8.5,-232.2"/>
<polygon fill="none" stroke="#000000" points="8.5,-232.2 8.5,-255.2 125.5,-255.2 125.5,-232.2 8.5,-232.2"/>
<text text-anchor="start" x="13.5" y="-240.8" font-family="Helvetica,sans-Serif" font-weight="bold" font-size="11.00" fill="#000000">adherent</text>
<text text-anchor="start" x="90.5437" y="-240.3" font-family="Helvetica,sans-Serif" font-size="11.00" fill="#000000">[table]</text>
<polygon fill="none" stroke="#000000" points="8.5,-210.2 8.5,-232.2 125.5,-232.2 125.5,-210.2 8.5,-210.2"/>
<image xlink:href="../../images/primaryKeys.png" width="11px" height="12px" preserveAspectRatio="xMinYMin meet" x="13.5" y="-227.2"/>
<text text-anchor="start" x="28.5" y="-217.3" font-family="Helvetica,sans-Serif" font-size="11.00" fill="#000000">id</text>
<polygon fill="none" stroke="#000000" points="8.5,-191.2 8.5,-210.2 125.5,-210.2 125.5,-191.2 8.5,-191.2"/>
<text text-anchor="start" x="11.5" y="-197.3" font-family="Helvetica,sans-Serif" font-size="11.00" fill="#000000">...</text>
<polygon fill="#ffffff" stroke="transparent" points="8.5,-172.2 8.5,-191.2 46.5,-191.2 46.5,-172.2 8.5,-172.2"/>
<polygon fill="none" stroke="#000000" points="8.5,-172.2 8.5,-191.2 46.5,-191.2 46.5,-172.2 8.5,-172.2"/>
<text text-anchor="start" x="11.5" y="-178.3" font-family="Helvetica,sans-Serif" font-size="11.00" fill="#000000"> &#160;</text>
<polygon fill="#ffffff" stroke="transparent" points="46.5,-172.2 46.5,-191.2 91.5,-191.2 91.5,-172.2 46.5,-172.2"/>
<polygon fill="none" stroke="#000000" points="46.5,-172.2 46.5,-191.2 91.5,-191.2 91.5,-172.2 46.5,-172.2"/>
<text text-anchor="start" x="61.6105" y="-178.3" font-family="Helvetica,sans-Serif" font-size="11.00" fill="#000000">1 row</text>
<polygon fill="#ffffff" stroke="transparent" points="91.5,-172.2 91.5,-191.2 125.5,-191.2 125.5,-172.2 91.5,-172.2"/>
<polygon fill="none" stroke="#000000" points="91.5,-172.2 91.5,-191.2 125.5,-191.2 125.5,-172.2 91.5,-172.2"/>
<text text-anchor="start" x="106.9053" y="-178.3" font-family="Helvetica,sans-Serif" font-size="11.00" fill="#000000">1 &gt;</text>
</a>
</g>
</g>
<!-- emprunt&#45;&gt;adherent -->
<g id="edge1" class="edge">
<title>emprunt:w&#45;&gt;adherent:e</title>
<path fill="none" stroke="#000000" d="M162.2601,-184.5877C148.5688,-195.1646 148.5379,-221.2 125.5,-221.2"/>
<polygon fill="#000000" stroke="#000000" points="168.3792,-182.6337 177.0952,-183.6294 172.1896,-181.4168 176,-180.2 176,-180.2 176,-180.2 172.1896,-181.4168 174.9048,-176.7706 168.3792,-182.6337 168.3792,-182.6337"/>
<ellipse fill="none" stroke="#000000" cx="165.3308" cy="-183.6072" rx="3.2" ry="3.2"/>
</g>
<!-- media -->
<g id="node3" class="node">
<title>media</title>
<g id="a_node3"><a xlink:href="../../tables/media.html" xlink:title="media" target="_top">
<polygon fill="#ffffff" stroke="transparent" points="15,-68.7 15,-151.7 118,-151.7 118,-68.7 15,-68.7"/>
<polygon fill="#f5f5f5" stroke="transparent" points="15.5,-128.2 15.5,-151.2 118.5,-151.2 118.5,-128.2 15.5,-128.2"/>
<polygon fill="none" stroke="#000000" points="15.5,-128.2 15.5,-151.2 118.5,-151.2 118.5,-128.2 15.5,-128.2"/>
<text text-anchor="start" x="20.5" y="-136.8" font-family="Helvetica,sans-Serif" font-weight="bold" font-size="11.00" fill="#000000">media</text>
<text text-anchor="start" x="83.5437" y="-136.3" font-family="Helvetica,sans-Serif" font-size="11.00" fill="#000000">[table]</text>
<polygon fill="none" stroke="#000000" points="15.5,-106.2 15.5,-128.2 118.5,-128.2 118.5,-106.2 15.5,-106.2"/>
<image xlink:href="../../images/primaryKeys.png" width="11px" height="12px" preserveAspectRatio="xMinYMin meet" x="20.5" y="-123.2"/>
<text text-anchor="start" x="35.5" y="-113.3" font-family="Helvetica,sans-Serif" font-size="11.00" fill="#000000">id</text>
<polygon fill="none" stroke="#000000" points="15.5,-87.2 15.5,-106.2 118.5,-106.2 118.5,-87.2 15.5,-87.2"/>
<text text-anchor="start" x="18.5" y="-93.3" font-family="Helvetica,sans-Serif" font-size="11.00" fill="#000000">...</text>
<polygon fill="#ffffff" stroke="transparent" points="15.5,-68.2 15.5,-87.2 43.5,-87.2 43.5,-68.2 15.5,-68.2"/>
<polygon fill="none" stroke="#000000" points="15.5,-68.2 15.5,-87.2 43.5,-87.2 43.5,-68.2 15.5,-68.2"/>
<text text-anchor="start" x="18.5" y="-74.3" font-family="Helvetica,sans-Serif" font-size="11.00" fill="#000000"> &#160;</text>
<polygon fill="#ffffff" stroke="transparent" points="43.5,-68.2 43.5,-87.2 89.5,-87.2 89.5,-68.2 43.5,-68.2"/>
<polygon fill="none" stroke="#000000" points="43.5,-68.2 43.5,-87.2 89.5,-87.2 89.5,-68.2 43.5,-68.2"/>
<text text-anchor="start" x="54.1105" y="-74.3" font-family="Helvetica,sans-Serif" font-size="11.00" fill="#000000">3 rows</text>
<polygon fill="#ffffff" stroke="transparent" points="89.5,-68.2 89.5,-87.2 118.5,-87.2 118.5,-68.2 89.5,-68.2"/>
<polygon fill="none" stroke="#000000" points="89.5,-68.2 89.5,-87.2 118.5,-87.2 118.5,-68.2 89.5,-68.2"/>
<text text-anchor="start" x="99.9053" y="-74.3" font-family="Helvetica,sans-Serif" font-size="11.00" fill="#000000">4 &gt;</text>
</a>
</g>
</g>
<!-- emprunt&#45;&gt;media -->
<g id="edge2" class="edge">
<title>emprunt:w&#45;&gt;media:e</title>
<path fill="none" stroke="#000000" d="M161.7281,-154.4163C145.3019,-144.2664 144.0018,-117.2 118.5,-117.2"/>
<polygon fill="#000000" stroke="#000000" points="168.2671,-156.1499 175.0774,-161.6798 172.1336,-157.1749 176,-158.2 176,-158.2 176,-158.2 172.1336,-157.1749 176.9226,-154.7202 168.2671,-156.1499 168.2671,-156.1499"/>
<ellipse fill="none" stroke="#000000" cx="165.174" cy="-155.3298" rx="3.2" ry="3.2"/>
</g>
</g>
</svg>
