<?xml version="1.0" encoding="UTF-8" standalone="no"?>
<!DOCTYPE svg PUBLIC "-//W3C//DTD SVG 1.1//EN"
 "http://www.w3.org/Graphics/SVG/1.1/DTD/svg11.dtd">
<!-- Generated by graphviz version 2.40.1 (20161225.0304)
 -->
<!-- Title: twoDegreesRelationshipsDiagram Pages: 1 -->
<svg width="390pt" height="475pt"
 viewBox="0.00 0.00 390.00 474.70" xmlns="http://www.w3.org/2000/svg" xmlns:xlink="http://www.w3.org/1999/xlink">
<g id="graph0" class="graph" transform="scale(1 1) rotate(0) translate(4 470.7)">
<title>twoDegreesRelationshipsDiagram</title>
<polygon fill="#ffffff" stroke="transparent" points="-4,4 -4,-470.7 386,-470.7 386,4 -4,4"/>
<text text-anchor="middle" x="72.4936" y="-7.3" font-family="Helvetica,sans-Serif" font-size="11.00" fill="#000000">Generated by SchemaSpy</text>
<!-- blueray -->
<g id="node1" class="node">
<title>blueray</title>
<g id="a_node1"><a xlink:href="../../tables/blueray.html" xlink:title="blueray" target="_top">
<polygon fill="#ffffff" stroke="transparent" points="233.5,-401.7 233.5,-462.7 314.5,-462.7 314.5,-401.7 233.5,-401.7"/>
<polygon fill="#f5f5f5" stroke="transparent" points="234,-439.2 234,-462.2 315,-462.2 315,-439.2 234,-439.2"/>
<polygon fill="none" stroke="#000000" points="234,-439.2 234,-462.2 315,-462.2 315,-439.2 234,-439.2"/>
<text text-anchor="start" x="239" y="-447.8" font-family="Helvetica,sans-Serif" font-weight="bold" font-size="11.00" fill="#000000">blueray</text>
<text text-anchor="start" x="280.5219" y="-447.3" font-family="Helvetica,sans-Serif" font-size="11.00" fill="#000000">[table]</text>
<polygon fill="none" stroke="#000000" points="234,-420.2 234,-439.2 315,-439.2 315,-420.2 234,-420.2"/>
<text text-anchor="start" x="237" y="-426.3" font-family="Helvetica,sans-Serif" font-size="11.00" fill="#000000">...</text>
<polygon fill="#ffffff" stroke="transparent" points="234,-401.2 234,-420.2 260,-420.2 260,-401.2 234,-401.2"/>
<polygon fill="none" stroke="#000000" points="234,-401.2 234,-420.2 260,-420.2 260,-401.2 234,-401.2"/>
<text text-anchor="start" x="237" y="-407.3" font-family="Helvetica,sans-Serif" font-size="11.00" fill="#000000">&lt; 1</text>
<polygon fill="#ffffff" stroke="transparent" points="260,-401.2 260,-420.2 300,-420.2 300,-401.2 260,-401.2"/>
<polygon fill="none" stroke="#000000" points="260,-401.2 260,-420.2 300,-420.2 300,-401.2 260,-401.2"/>
<text text-anchor="start" x="264.6105" y="-407.3" font-family="Helvetica,sans-Serif" font-size="11.00" fill="#000000">0 rows</text>
<polygon fill="#ffffff" stroke="transparent" points="300,-401.2 300,-420.2 315,-420.2 315,-401.2 300,-401.2"/>
<polygon fill="none" stroke="#000000" points="300,-401.2 300,-420.2 315,-420.2 315,-401.2 300,-401.2"/>
<text text-anchor="start" x="305.8862" y="-407.3" font-family="Helvetica,sans-Serif" font-size="11.00" fill="#000000"> &#160;</text>
</a>
</g>
</g>
<!-- media -->
<g id="node2" class="node">
<title>media</title>
<g id="a_node2"><a xlink:href="../../tables/media.html" xlink:title="media" target="_top">
<polygon fill="#ffffff" stroke="transparent" points="15,-266.7 15,-349.7 118,-349.7 118,-266.7 15,-266.7"/>
<polygon fill="#f5f5f5" stroke="transparent" points="15.5,-326.2 15.5,-349.2 118.5,-349.2 118.5,-326.2 15.5,-326.2"/>
<polygon fill="none" stroke="#000000" points="15.5,-326.2 15.5,-349.2 118.5,-349.2 118.5,-326.2 15.5,-326.2"/>
<text text-anchor="start" x="20.5" y="-334.8" font-family="Helvetica,sans-Serif" font-weight="bold" font-size="11.00" fill="#000000">media</text>
<text text-anchor="start" x="83.5437" y="-334.3" font-family="Helvetica,sans-Serif" font-size="11.00" fill="#000000">[table]</text>
<polygon fill="none" stroke="#000000" points="15.5,-304.2 15.5,-326.2 118.5,-326.2 118.5,-304.2 15.5,-304.2"/>
<image xlink:href="../../images/primaryKeys.png" width="11px" height="12px" preserveAspectRatio="xMinYMin meet" x="20.5" y="-321.2"/>
<text text-anchor="start" x="35.5" y="-311.3" font-family="Helvetica,sans-Serif" font-size="11.00" fill="#000000">id</text>
<polygon fill="none" stroke="#000000" points="15.5,-285.2 15.5,-304.2 118.5,-304.2 118.5,-285.2 15.5,-285.2"/>
<text text-anchor="start" x="18.5" y="-291.3" font-family="Helvetica,sans-Serif" font-size="11.00" fill="#000000">...</text>
<polygon fill="#ffffff" stroke="transparent" points="15.5,-266.2 15.5,-285.2 43.5,-285.2 43.5,-266.2 15.5,-266.2"/>
<polygon fill="none" stroke="#000000" points="15.5,-266.2 15.5,-285.2 43.5,-285.2 43.5,-266.2 15.5,-266.2"/>
<text text-anchor="start" x="18.5" y="-272.3" font-family="Helvetica,sans-Serif" font-size="11.00" fill="#000000"> &#160;</text>
<polygon fill="#ffffff" stroke="transparent" points="43.5,-266.2 43.5,-285.2 89.5,-285.2 89.5,-266.2 43.5,-266.2"/>
<polygon fill="none" stroke="#000000" points="43.5,-266.2 43.5,-285.2 89.5,-285.2 89.5,-266.2 43.5,-266.2"/>
<text text-anchor="start" x="54.1105" y="-272.3" font-family="Helvetica,sans-Serif" font-size="11.00" fill="#000000">3 rows</text>
<polygon fill="#ffffff" stroke="transparent" points="89.5,-266.2 89.5,-285.2 118.5,-285.2 118.5,-266.2 89.5,-266.2"/>
<polygon fill="none" stroke="#000000" points="89.5,-266.2 89.5,-285.2 118.5,-285.2 118.5,-266.2 89.5,-266.2"/>
<text text-anchor="start" x="99.9053" y="-272.3" font-family="Helvetica,sans-Serif" font-size="11.00" fill="#000000">4 &gt;</text>
</a>
</g>
</g>
<!-- blueray&#45;&gt;media -->
<g id="edge1" class="edge">
<title>blueray:w&#45;&gt;media:e</title>
<path fill="none" stroke="#000000" d="M223.528,-428.6988C197.3615,-425.9933 188.3309,-412.4624 166,-391.2 137.1526,-363.7328 158.3324,-315.2 118.5,-315.2"/>
<polygon fill="#000000" stroke="#000000" points="233.3922,-425.1663 233.0096,-433.1572 231.4115,-433.0807 231.794,-425.0898 233.3922,-425.1663"/>
<polyline fill="none" stroke="#000000" points="234,-429.2 230.0046,-429.0087 "/>
<ellipse fill="none" stroke="#000000" cx="226.8082" cy="-428.8557" rx="3.2" ry="3.2"/>
</g>
<!-- emprunt -->
<g id="node3" class="node">
<title>emprunt</title>
<g id="a_node3"><a xlink:href="../../tables/emprunt.html" xlink:title="emprunt" target="_top">
<polygon fill="#ffffff" stroke="transparent" points="174,-38.2 174,-216.2 374,-216.2 374,-38.2 174,-38.2"/>
<polygon fill="#f5f5f5" stroke="transparent" points="176,-191.2 176,-214.2 372,-214.2 372,-191.2 176,-191.2"/>
<polygon fill="none" stroke="#000000" points="176,-191.2 176,-214.2 372,-214.2 372,-191.2 176,-191.2"/>
<text text-anchor="start" x="181" y="-199.8" font-family="Helvetica,sans-Serif" font-weight="bold" font-size="11.00" fill="#000000">emprunt</text>
<text text-anchor="start" x="337.0437" y="-199.3" font-family="Helvetica,sans-Serif" font-size="11.00" fill="#000000">[table]</text>
<polygon fill="#ffffff" stroke="transparent" points="176,-169.2 176,-191.2 306,-191.2 306,-169.2 176,-169.2"/>
<polygon fill="none" stroke="#000000" points="176,-169.2 176,-191.2 306,-191.2 306,-169.2 176,-169.2"/>
<image xlink:href="../../images/foreignKeys.png" width="11px" height="12px" preserveAspectRatio="xMinYMin meet" x="181" y="-186.2"/>
<text text-anchor="start" x="196" y="-176.3" font-family="Helvetica,sans-Serif" font-size="11.00" fill="#000000">adherent_id</text>
<polygon fill="none" stroke="#000000" points="306,-169.2 306,-191.2 372,-191.2 372,-169.2 306,-169.2"/>
<text text-anchor="start" x="309" y="-176.9" font-family="Helvetica,sans-Serif" font-size="11.00" fill="#000000">int[10]</text>
<polygon fill="#ffffff" stroke="transparent" points="176,-147.2 176,-169.2 306,-169.2 306,-147.2 176,-147.2"/>
<polygon fill="none" stroke="#000000" points="176,-147.2 176,-169.2 306,-169.2 306,-147.2 176,-147.2"/>
<image xlink:href="../../images/foreignKeys.png" width="11px" height="12px" preserveAspectRatio="xMinYMin meet" x="181" y="-164.2"/>
<text text-anchor="start" x="196" y="-154.3" font-family="Helvetica,sans-Serif" font-size="11.00" fill="#000000">media_id</text>
<polygon fill="none" stroke="#000000" points="306,-147.2 306,-169.2 372,-169.2 372,-147.2 306,-147.2"/>
<text text-anchor="start" x="309" y="-154.9" font-family="Helvetica,sans-Serif" font-size="11.00" fill="#000000">int[10]</text>
<polygon fill="none" stroke="#000000" points="176,-125.2 176,-147.2 306,-147.2 306,-125.2 176,-125.2"/>
<image xlink:href="../../images/primaryKeys.png" width="11px" height="12px" preserveAspectRatio="xMinYMin meet" x="181" y="-142.2"/>
<text text-anchor="start" x="196" y="-132.3" font-family="Helvetica,sans-Serif" font-size="11.00" fill="#000000">numeroEmprunt</text>
<polygon fill="none" stroke="#000000" points="306,-125.2 306,-147.2 372,-147.2 372,-125.2 306,-125.2"/>
<text text-anchor="start" x="309" y="-132.9" font-family="Helvetica,sans-Serif" font-size="11.00" fill="#000000">varchar[12]</text>
<polygon fill="none" stroke="#000000" points="176,-103.2 176,-125.2 306,-125.2 306,-103.2 176,-103.2"/>
<text text-anchor="start" x="196" y="-110.3" font-family="Helvetica,sans-Serif" font-size="11.00" fill="#000000">dateEmprunt</text>
<polygon fill="none" stroke="#000000" points="306,-103.2 306,-125.2 372,-125.2 372,-103.2 306,-103.2"/>
<text text-anchor="start" x="308.7401" y="-110.9" font-family="Helvetica,sans-Serif" font-size="11.00" fill="#000000">datetime[19]</text>
<polygon fill="none" stroke="#000000" points="176,-81.2 176,-103.2 306,-103.2 306,-81.2 176,-81.2"/>
<text text-anchor="start" x="196" y="-88.3" font-family="Helvetica,sans-Serif" font-size="11.00" fill="#000000">dateRetourEstimee</text>
<polygon fill="none" stroke="#000000" points="306,-81.2 306,-103.2 372,-103.2 372,-81.2 306,-81.2"/>
<text text-anchor="start" x="308.7401" y="-88.9" font-family="Helvetica,sans-Serif" font-size="11.00" fill="#000000">datetime[19]</text>
<polygon fill="none" stroke="#000000" points="176,-59.2 176,-81.2 306,-81.2 306,-59.2 176,-59.2"/>
<text text-anchor="start" x="196" y="-66.3" font-family="Helvetica,sans-Serif" font-size="11.00" fill="#000000">dateRetour</text>
<polygon fill="none" stroke="#000000" points="306,-59.2 306,-81.2 372,-81.2 372,-59.2 306,-59.2"/>
<text text-anchor="start" x="308.7401" y="-66.9" font-family="Helvetica,sans-Serif" font-size="11.00" fill="#000000">datetime[19]</text>
<polygon fill="#ffffff" stroke="transparent" points="176,-40.2 176,-59.2 235,-59.2 235,-40.2 176,-40.2"/>
<polygon fill="none" stroke="#000000" points="176,-40.2 176,-59.2 235,-59.2 235,-40.2 176,-40.2"/>
<text text-anchor="start" x="179" y="-46.3" font-family="Helvetica,sans-Serif" font-size="11.00" fill="#000000">&lt; 2</text>
<polygon fill="#ffffff" stroke="transparent" points="235,-40.2 235,-59.2 306,-59.2 306,-40.2 235,-40.2"/>
<polygon fill="none" stroke="#000000" points="235,-40.2 235,-59.2 306,-59.2 306,-40.2 235,-40.2"/>
<text text-anchor="start" x="276.1105" y="-46.3" font-family="Helvetica,sans-Serif" font-size="11.00" fill="#000000">1 row</text>
<polygon fill="#ffffff" stroke="transparent" points="306,-40.2 306,-59.2 372,-59.2 372,-40.2 306,-40.2"/>
<polygon fill="none" stroke="#000000" points="306,-40.2 306,-59.2 372,-59.2 372,-40.2 306,-40.2"/>
<text text-anchor="start" x="353.4053" y="-46.3" font-family="Helvetica,sans-Serif" font-size="11.00" fill="#000000">0 &gt;</text>
<polygon fill="none" stroke="#000000" stroke-width="2" points="175,-39.2 175,-215.2 373,-215.2 373,-39.2 175,-39.2"/>
</a>
</g>
</g>
<!-- emprunt&#45;&gt;media -->
<g id="edge3" class="edge">
<title>emprunt:w&#45;&gt;media:e</title>
<path fill="none" stroke="#000000" d="M161.7523,-160.794C114.6115,-181.207 187.15,-315.2 118.5,-315.2"/>
<polygon fill="#000000" stroke="#000000" points="168.1294,-159.633 176.6449,-161.7418 172.0647,-158.9165 176,-158.2 176,-158.2 176,-158.2 172.0647,-158.9165 175.3551,-154.6582 168.1294,-159.633 168.1294,-159.633"/>
<ellipse fill="none" stroke="#000000" cx="164.9811" cy="-160.2062" rx="3.2" ry="3.2"/>
</g>
<!-- adherent -->
<g id="node4" class="node">
<title>adherent</title>
<g id="a_node4"><a xlink:href="../../tables/adherent.html" xlink:title="adherent" target="_top">
<polygon fill="#ffffff" stroke="transparent" points="8,-131.7 8,-214.7 125,-214.7 125,-131.7 8,-131.7"/>
<polygon fill="#f5f5f5" stroke="transparent" points="8.5,-191.2 8.5,-214.2 125.5,-214.2 125.5,-191.2 8.5,-191.2"/>
<polygon fill="none" stroke="#000000" points="8.5,-191.2 8.5,-214.2 125.5,-214.2 125.5,-191.2 8.5,-191.2"/>
<text text-anchor="start" x="13.5" y="-199.8" font-family="Helvetica,sans-Serif" font-weight="bold" font-size="11.00" fill="#000000">adherent</text>
<text text-anchor="start" x="90.5437" y="-199.3" font-family="Helvetica,sans-Serif" font-size="11.00" fill="#000000">[table]</text>
<polygon fill="none" stroke="#000000" points="8.5,-169.2 8.5,-191.2 125.5,-191.2 125.5,-169.2 8.5,-169.2"/>
<image xlink:href="../../images/primaryKeys.png" width="11px" height="12px" preserveAspectRatio="xMinYMin meet" x="13.5" y="-186.2"/>
<text text-anchor="start" x="28.5" y="-176.3" font-family="Helvetica,sans-Serif" font-size="11.00" fill="#000000">id</text>
<polygon fill="none" stroke="#000000" points="8.5,-150.2 8.5,-169.2 125.5,-169.2 125.5,-150.2 8.5,-150.2"/>
<text text-anchor="start" x="11.5" y="-156.3" font-family="Helvetica,sans-Serif" font-size="11.00" fill="#000000">...</text>
<polygon fill="#ffffff" stroke="transparent" points="8.5,-131.2 8.5,-150.2 46.5,-150.2 46.5,-131.2 8.5,-131.2"/>
<polygon fill="none" stroke="#000000" points="8.5,-131.2 8.5,-150.2 46.5,-150.2 46.5,-131.2 8.5,-131.2"/>
<text text-anchor="start" x="11.5" y="-137.3" font-family="Helvetica,sans-Serif" font-size="11.00" fill="#000000"> &#160;</text>
<polygon fill="#ffffff" stroke="transparent" points="46.5,-131.2 46.5,-150.2 91.5,-150.2 91.5,-131.2 46.5,-131.2"/>
<polygon fill="none" stroke="#000000" points="46.5,-131.2 46.5,-150.2 91.5,-150.2 91.5,-131.2 46.5,-131.2"/>
<text text-anchor="start" x="61.6105" y="-137.3" font-family="Helvetica,sans-Serif" font-size="11.00" fill="#000000">1 row</text>
<polygon fill="#ffffff" stroke="transparent" points="91.5,-131.2 91.5,-150.2 125.5,-150.2 125.5,-131.2 91.5,-131.2"/>
<polygon fill="none" stroke="#000000" points="91.5,-131.2 91.5,-150.2 125.5,-150.2 125.5,-131.2 91.5,-131.2"/>
<text text-anchor="start" x="106.9053" y="-137.3" font-family="Helvetica,sans-Serif" font-size="11.00" fill="#000000">1 &gt;</text>
</a>
</g>
</g>
<!-- emprunt&#45;&gt;adherent -->
<g id="edge2" class="edge">
<title>emprunt:w&#45;&gt;adherent:e</title>
<path fill="none" stroke="#000000" d="M161.4203,-180.2C149.5435,-180.2 142.158,-180.2 125.5,-180.2"/>
<polygon fill="#000000" stroke="#000000" points="168,-180.2001 176,-183.8 172,-180.2 176,-180.2 176,-180.2 176,-180.2 172,-180.2 176,-176.6 168,-180.2001 168,-180.2001"/>
<ellipse fill="none" stroke="#000000" cx="164.8" cy="-180.2001" rx="3.2" ry="3.2"/>
</g>
<!-- livre -->
<g id="node5" class="node">
<title>livre</title>
<g id="a_node5"><a xlink:href="../../tables/livre.html" xlink:title="livre" target="_top">
<polygon fill="#ffffff" stroke="transparent" points="238.5,-319.7 238.5,-380.7 309.5,-380.7 309.5,-319.7 238.5,-319.7"/>
<polygon fill="#f5f5f5" stroke="transparent" points="239,-357.2 239,-380.2 310,-380.2 310,-357.2 239,-357.2"/>
<polygon fill="none" stroke="#000000" points="239,-357.2 239,-380.2 310,-380.2 310,-357.2 239,-357.2"/>
<text text-anchor="start" x="243.9207" y="-365.8" font-family="Helvetica,sans-Serif" font-weight="bold" font-size="11.00" fill="#000000">livre</text>
<text text-anchor="start" x="275.0437" y="-365.3" font-family="Helvetica,sans-Serif" font-size="11.00" fill="#000000">[table]</text>
<polygon fill="none" stroke="#000000" points="239,-338.2 239,-357.2 310,-357.2 310,-338.2 239,-338.2"/>
<text text-anchor="start" x="242" y="-344.3" font-family="Helvetica,sans-Serif" font-size="11.00" fill="#000000">...</text>
<polygon fill="#ffffff" stroke="transparent" points="239,-319.2 239,-338.2 260,-338.2 260,-319.2 239,-319.2"/>
<polygon fill="none" stroke="#000000" points="239,-319.2 239,-338.2 260,-338.2 260,-319.2 239,-319.2"/>
<text text-anchor="start" x="241.7027" y="-325.3" font-family="Helvetica,sans-Serif" font-size="11.00" fill="#000000">&lt; 1</text>
<polygon fill="#ffffff" stroke="transparent" points="260,-319.2 260,-338.2 298,-338.2 298,-319.2 260,-319.2"/>
<polygon fill="none" stroke="#000000" points="260,-319.2 260,-338.2 298,-338.2 298,-319.2 260,-319.2"/>
<text text-anchor="start" x="262.8053" y="-325.3" font-family="Helvetica,sans-Serif" font-size="11.00" fill="#000000">0 rows</text>
<polygon fill="#ffffff" stroke="transparent" points="298,-319.2 298,-338.2 310,-338.2 310,-319.2 298,-319.2"/>
<polygon fill="none" stroke="#000000" points="298,-319.2 298,-338.2 310,-338.2 310,-319.2 298,-319.2"/>
<text text-anchor="start" x="300.9431" y="-325.3" font-family="Helvetica,sans-Serif" font-size="11.00" fill="#000000"> &#160;</text>
</a>
</g>
</g>
<!-- livre&#45;&gt;media -->
<g id="edge4" class="edge">
<title>livre:w&#45;&gt;media:e</title>
<path fill="none" stroke="#000000" d="M228.5392,-346.7954C182.1014,-343.0911 170.2321,-315.2 118.5,-315.2"/>
<polygon fill="#000000" stroke="#000000" points="238.3552,-343.1721 238.046,-351.1661 236.4472,-351.1042 236.7564,-343.1102 238.3552,-343.1721"/>
<polyline fill="none" stroke="#000000" points="239,-347.2 235.003,-347.0454 "/>
<ellipse fill="none" stroke="#000000" cx="231.8054" cy="-346.9217" rx="3.2" ry="3.2"/>
</g>
<!-- magazine -->
<g id="node6" class="node">
<title>magazine</title>
<g id="a_node6"><a xlink:href="../../tables/magazine.html" xlink:title="magazine" target="_top">
<polygon fill="#ffffff" stroke="transparent" points="227.5,-237.7 227.5,-298.7 320.5,-298.7 320.5,-237.7 227.5,-237.7"/>
<polygon fill="#f5f5f5" stroke="transparent" points="228,-275.2 228,-298.2 321,-298.2 321,-275.2 228,-275.2"/>
<polygon fill="none" stroke="#000000" points="228,-275.2 228,-298.2 321,-298.2 321,-275.2 228,-275.2"/>
<text text-anchor="start" x="233" y="-283.8" font-family="Helvetica,sans-Serif" font-weight="bold" font-size="11.00" fill="#000000">magazine</text>
<text text-anchor="start" x="286.5219" y="-283.3" font-family="Helvetica,sans-Serif" font-size="11.00" fill="#000000">[table]</text>
<polygon fill="none" stroke="#000000" points="228,-256.2 228,-275.2 321,-275.2 321,-256.2 228,-256.2"/>
<text text-anchor="start" x="231" y="-262.3" font-family="Helvetica,sans-Serif" font-size="11.00" fill="#000000">...</text>
<polygon fill="#ffffff" stroke="transparent" points="228,-237.2 228,-256.2 260,-256.2 260,-237.2 228,-237.2"/>
<polygon fill="none" stroke="#000000" points="228,-237.2 228,-256.2 260,-256.2 260,-237.2 228,-237.2"/>
<text text-anchor="start" x="231" y="-243.3" font-family="Helvetica,sans-Serif" font-size="11.00" fill="#000000">&lt; 1</text>
<polygon fill="#ffffff" stroke="transparent" points="260,-237.2 260,-256.2 303,-256.2 303,-237.2 260,-237.2"/>
<polygon fill="none" stroke="#000000" points="260,-237.2 260,-256.2 303,-256.2 303,-237.2 260,-237.2"/>
<text text-anchor="start" x="267.6105" y="-243.3" font-family="Helvetica,sans-Serif" font-size="11.00" fill="#000000">2 rows</text>
<polygon fill="#ffffff" stroke="transparent" points="303,-237.2 303,-256.2 321,-256.2 321,-237.2 303,-237.2"/>
<polygon fill="none" stroke="#000000" points="303,-237.2 303,-256.2 321,-256.2 321,-237.2 303,-237.2"/>
<text text-anchor="start" x="311.8862" y="-243.3" font-family="Helvetica,sans-Serif" font-size="11.00" fill="#000000"> &#160;</text>
</a>
</g>
</g>
<!-- magazine&#45;&gt;media -->
<g id="edge5" class="edge">
<title>magazine:w&#45;&gt;media:e</title>
<path fill="none" stroke="#000000" d="M217.4358,-265.9068C173.8962,-271.9841 168.2385,-315.2 118.5,-315.2"/>
<polygon fill="#000000" stroke="#000000" points="226.9347,-261.2623 227.4688,-269.2445 225.8724,-269.3513 225.3383,-261.3692 226.9347,-261.2623"/>
<polyline fill="none" stroke="#000000" points="228,-265.2 224.0089,-265.4671 "/>
<ellipse fill="none" stroke="#000000" cx="220.8161" cy="-265.6807" rx="3.2" ry="3.2"/>
</g>
</g>
</svg>
