<?xml version="1.0" encoding="UTF-8" standalone="no"?>
<!DOCTYPE svg PUBLIC "-//W3C//DTD SVG 1.1//EN"
 "http://www.w3.org/Graphics/SVG/1.1/DTD/svg11.dtd">
<!-- Generated by graphviz version 2.40.1 (20161225.0304)
 -->
<!-- Title: twoDegreesRelationshipsDiagram Pages: 1 -->
<svg width="318pt" height="431pt"
 viewBox="0.00 0.00 318.00 431.20" xmlns="http://www.w3.org/2000/svg" xmlns:xlink="http://www.w3.org/1999/xlink">
<g id="graph0" class="graph" transform="scale(1 1) rotate(0) translate(4 427.2)">
<title>twoDegreesRelationshipsDiagram</title>
<polygon fill="#ffffff" stroke="transparent" points="-4,4 -4,-427.2 314,-427.2 314,4 -4,4"/>
<text text-anchor="middle" x="72.4936" y="-7.3" font-family="Helvetica,sans-Serif" font-size="11.00" fill="#000000">Generated by SchemaSpy</text>
<!-- blueray -->
<g id="node1" class="node">
<title>blueray</title>
<g id="a_node1"><a xlink:href="../../tables/blueray.html" xlink:title="blueray" target="_top">
<polygon fill="#ffffff" stroke="transparent" points="190.5,-358.2 190.5,-419.2 271.5,-419.2 271.5,-358.2 190.5,-358.2"/>
<polygon fill="#f5f5f5" stroke="transparent" points="191,-395.7 191,-418.7 272,-418.7 272,-395.7 191,-395.7"/>
<polygon fill="none" stroke="#000000" points="191,-395.7 191,-418.7 272,-418.7 272,-395.7 191,-395.7"/>
<text text-anchor="start" x="196" y="-404.3" font-family="Helvetica,sans-Serif" font-weight="bold" font-size="11.00" fill="#000000">blueray</text>
<text text-anchor="start" x="237.5219" y="-403.8" font-family="Helvetica,sans-Serif" font-size="11.00" fill="#000000">[table]</text>
<polygon fill="none" stroke="#000000" points="191,-376.7 191,-395.7 272,-395.7 272,-376.7 191,-376.7"/>
<text text-anchor="start" x="194" y="-382.8" font-family="Helvetica,sans-Serif" font-size="11.00" fill="#000000">...</text>
<polygon fill="#ffffff" stroke="transparent" points="191,-357.7 191,-376.7 217,-376.7 217,-357.7 191,-357.7"/>
<polygon fill="none" stroke="#000000" points="191,-357.7 191,-376.7 217,-376.7 217,-357.7 191,-357.7"/>
<text text-anchor="start" x="194" y="-363.8" font-family="Helvetica,sans-Serif" font-size="11.00" fill="#000000">&lt; 1</text>
<polygon fill="#ffffff" stroke="transparent" points="217,-357.7 217,-376.7 257,-376.7 257,-357.7 217,-357.7"/>
<polygon fill="none" stroke="#000000" points="217,-357.7 217,-376.7 257,-376.7 257,-357.7 217,-357.7"/>
<text text-anchor="start" x="221.6105" y="-363.8" font-family="Helvetica,sans-Serif" font-size="11.00" fill="#000000">0 rows</text>
<polygon fill="#ffffff" stroke="transparent" points="257,-357.7 257,-376.7 272,-376.7 272,-357.7 257,-357.7"/>
<polygon fill="none" stroke="#000000" points="257,-357.7 257,-376.7 272,-376.7 272,-357.7 257,-357.7"/>
<text text-anchor="start" x="262.8862" y="-363.8" font-family="Helvetica,sans-Serif" font-size="11.00" fill="#000000"> &#160;</text>
</a>
</g>
</g>
<!-- media -->
<g id="node2" class="node">
<title>media</title>
<g id="a_node2"><a xlink:href="../../tables/media.html" xlink:title="media" target="_top">
<polygon fill="#ffffff" stroke="transparent" points="8,-212.2 8,-295.2 111,-295.2 111,-212.2 8,-212.2"/>
<polygon fill="#f5f5f5" stroke="transparent" points="8.5,-271.7 8.5,-294.7 111.5,-294.7 111.5,-271.7 8.5,-271.7"/>
<polygon fill="none" stroke="#000000" points="8.5,-271.7 8.5,-294.7 111.5,-294.7 111.5,-271.7 8.5,-271.7"/>
<text text-anchor="start" x="13.5" y="-280.3" font-family="Helvetica,sans-Serif" font-weight="bold" font-size="11.00" fill="#000000">media</text>
<text text-anchor="start" x="76.5437" y="-279.8" font-family="Helvetica,sans-Serif" font-size="11.00" fill="#000000">[table]</text>
<polygon fill="none" stroke="#000000" points="8.5,-249.7 8.5,-271.7 111.5,-271.7 111.5,-249.7 8.5,-249.7"/>
<image xlink:href="../../images/primaryKeys.png" width="11px" height="12px" preserveAspectRatio="xMinYMin meet" x="13.5" y="-266.7"/>
<text text-anchor="start" x="28.5" y="-256.8" font-family="Helvetica,sans-Serif" font-size="11.00" fill="#000000">id</text>
<polygon fill="none" stroke="#000000" points="8.5,-230.7 8.5,-249.7 111.5,-249.7 111.5,-230.7 8.5,-230.7"/>
<text text-anchor="start" x="11.5" y="-236.8" font-family="Helvetica,sans-Serif" font-size="11.00" fill="#000000">...</text>
<polygon fill="#ffffff" stroke="transparent" points="8.5,-211.7 8.5,-230.7 36.5,-230.7 36.5,-211.7 8.5,-211.7"/>
<polygon fill="none" stroke="#000000" points="8.5,-211.7 8.5,-230.7 36.5,-230.7 36.5,-211.7 8.5,-211.7"/>
<text text-anchor="start" x="11.5" y="-217.8" font-family="Helvetica,sans-Serif" font-size="11.00" fill="#000000"> &#160;</text>
<polygon fill="#ffffff" stroke="transparent" points="36.5,-211.7 36.5,-230.7 82.5,-230.7 82.5,-211.7 36.5,-211.7"/>
<polygon fill="none" stroke="#000000" points="36.5,-211.7 36.5,-230.7 82.5,-230.7 82.5,-211.7 36.5,-211.7"/>
<text text-anchor="start" x="47.1105" y="-217.8" font-family="Helvetica,sans-Serif" font-size="11.00" fill="#000000">3 rows</text>
<polygon fill="#ffffff" stroke="transparent" points="82.5,-211.7 82.5,-230.7 111.5,-230.7 111.5,-211.7 82.5,-211.7"/>
<polygon fill="none" stroke="#000000" points="82.5,-211.7 82.5,-230.7 111.5,-230.7 111.5,-211.7 82.5,-211.7"/>
<text text-anchor="start" x="92.9053" y="-217.8" font-family="Helvetica,sans-Serif" font-size="11.00" fill="#000000">4 &gt;</text>
</a>
</g>
</g>
<!-- blueray&#45;&gt;media -->
<g id="edge1" class="edge">
<title>blueray:w&#45;&gt;media:e</title>
<path fill="none" stroke="#000000" d="M180.4098,-384.1668C166.1354,-379.3789 163.5963,-364.0456 152,-347.7 127.3213,-312.9139 154.151,-260.7 111.5,-260.7"/>
<polygon fill="#000000" stroke="#000000" points="190.7814,-381.6266 189.6351,-389.5441 188.0516,-389.3148 189.1979,-381.3974 190.7814,-381.6266"/>
<polyline fill="none" stroke="#000000" points="191,-385.7 187.0413,-385.1268 "/>
<ellipse fill="none" stroke="#000000" cx="183.8743" cy="-384.6683" rx="3.2" ry="3.2"/>
</g>
<!-- emprunt -->
<g id="node3" class="node">
<title>emprunt</title>
<g id="a_node3"><a xlink:href="../../tables/emprunt.html" xlink:title="emprunt" target="_top">
<polygon fill="#ffffff" stroke="transparent" points="187.5,-276.2 187.5,-337.2 274.5,-337.2 274.5,-276.2 187.5,-276.2"/>
<polygon fill="#f5f5f5" stroke="transparent" points="188,-313.7 188,-336.7 275,-336.7 275,-313.7 188,-313.7"/>
<polygon fill="none" stroke="#000000" points="188,-313.7 188,-336.7 275,-336.7 275,-313.7 188,-313.7"/>
<text text-anchor="start" x="193" y="-322.3" font-family="Helvetica,sans-Serif" font-weight="bold" font-size="11.00" fill="#000000">emprunt</text>
<text text-anchor="start" x="240.5219" y="-321.8" font-family="Helvetica,sans-Serif" font-size="11.00" fill="#000000">[table]</text>
<polygon fill="none" stroke="#000000" points="188,-294.7 188,-313.7 275,-313.7 275,-294.7 188,-294.7"/>
<text text-anchor="start" x="191" y="-300.8" font-family="Helvetica,sans-Serif" font-size="11.00" fill="#000000">...</text>
<polygon fill="#ffffff" stroke="transparent" points="188,-275.7 188,-294.7 220,-294.7 220,-275.7 188,-275.7"/>
<polygon fill="none" stroke="#000000" points="188,-275.7 188,-294.7 220,-294.7 220,-275.7 188,-275.7"/>
<text text-anchor="start" x="191" y="-281.8" font-family="Helvetica,sans-Serif" font-size="11.00" fill="#000000">&lt; 2</text>
<polygon fill="#ffffff" stroke="transparent" points="220,-275.7 220,-294.7 257,-294.7 257,-275.7 220,-275.7"/>
<polygon fill="none" stroke="#000000" points="220,-275.7 220,-294.7 257,-294.7 257,-275.7 220,-275.7"/>
<text text-anchor="start" x="227.1105" y="-281.8" font-family="Helvetica,sans-Serif" font-size="11.00" fill="#000000">1 row</text>
<polygon fill="#ffffff" stroke="transparent" points="257,-275.7 257,-294.7 275,-294.7 275,-275.7 257,-275.7"/>
<polygon fill="none" stroke="#000000" points="257,-275.7 257,-294.7 275,-294.7 275,-275.7 257,-275.7"/>
<text text-anchor="start" x="265.8862" y="-281.8" font-family="Helvetica,sans-Serif" font-size="11.00" fill="#000000"> &#160;</text>
</a>
</g>
</g>
<!-- emprunt&#45;&gt;media -->
<g id="edge2" class="edge">
<title>emprunt:w&#45;&gt;media:e</title>
<path fill="none" stroke="#000000" d="M173.7235,-301.3881C148.6195,-292.4566 145.0182,-260.7 111.5,-260.7"/>
<polygon fill="#000000" stroke="#000000" points="180.1029,-302.4211 187.4245,-307.2537 184.0514,-303.0606 188,-303.7 188,-303.7 188,-303.7 184.0514,-303.0606 188.5755,-300.1463 180.1029,-302.4211 180.1029,-302.4211"/>
<ellipse fill="none" stroke="#000000" cx="176.944" cy="-301.9096" rx="3.2" ry="3.2"/>
</g>
<!-- livre -->
<g id="node4" class="node">
<title>livre</title>
<g id="a_node4"><a xlink:href="../../tables/livre.html" xlink:title="livre" target="_top">
<polygon fill="#ffffff" stroke="transparent" points="160,-120.7 160,-254.7 302,-254.7 302,-120.7 160,-120.7"/>
<polygon fill="#f5f5f5" stroke="transparent" points="162,-229.7 162,-252.7 300,-252.7 300,-229.7 162,-229.7"/>
<polygon fill="none" stroke="#000000" points="162,-229.7 162,-252.7 300,-252.7 300,-229.7 162,-229.7"/>
<text text-anchor="start" x="166.9207" y="-238.3" font-family="Helvetica,sans-Serif" font-weight="bold" font-size="11.00" fill="#000000">livre</text>
<text text-anchor="start" x="265.0437" y="-237.8" font-family="Helvetica,sans-Serif" font-size="11.00" fill="#000000">[table]</text>
<polygon fill="none" stroke="#000000" points="162,-207.7 162,-229.7 233,-229.7 233,-207.7 162,-207.7"/>
<image xlink:href="../../images/primaryKeys.png" width="11px" height="12px" preserveAspectRatio="xMinYMin meet" x="167" y="-224.7"/>
<text text-anchor="start" x="182" y="-214.8" font-family="Helvetica,sans-Serif" font-size="11.00" fill="#000000">id</text>
<polygon fill="none" stroke="#000000" points="233,-207.7 233,-229.7 300,-229.7 300,-207.7 233,-207.7"/>
<text text-anchor="start" x="236" y="-215.4" font-family="Helvetica,sans-Serif" font-size="11.00" fill="#000000">int[10]</text>
<polygon fill="none" stroke="#000000" points="162,-185.7 162,-207.7 233,-207.7 233,-185.7 162,-185.7"/>
<text text-anchor="start" x="182" y="-192.8" font-family="Helvetica,sans-Serif" font-size="11.00" fill="#000000">isbn</text>
<polygon fill="none" stroke="#000000" points="233,-185.7 233,-207.7 300,-207.7 300,-185.7 233,-185.7"/>
<text text-anchor="start" x="235.9365" y="-193.4" font-family="Helvetica,sans-Serif" font-size="11.00" fill="#000000">varchar[255]</text>
<polygon fill="none" stroke="#000000" points="162,-163.7 162,-185.7 233,-185.7 233,-163.7 162,-163.7"/>
<text text-anchor="start" x="182" y="-170.8" font-family="Helvetica,sans-Serif" font-size="11.00" fill="#000000">auteur</text>
<polygon fill="none" stroke="#000000" points="233,-163.7 233,-185.7 300,-185.7 300,-163.7 233,-163.7"/>
<text text-anchor="start" x="235.9365" y="-171.4" font-family="Helvetica,sans-Serif" font-size="11.00" fill="#000000">varchar[255]</text>
<polygon fill="none" stroke="#000000" points="162,-141.7 162,-163.7 233,-163.7 233,-141.7 162,-141.7"/>
<text text-anchor="start" x="182" y="-148.8" font-family="Helvetica,sans-Serif" font-size="11.00" fill="#000000">nbPages</text>
<polygon fill="none" stroke="#000000" points="233,-141.7 233,-163.7 300,-163.7 300,-141.7 233,-141.7"/>
<text text-anchor="start" x="236" y="-149.4" font-family="Helvetica,sans-Serif" font-size="11.00" fill="#000000">int[10]</text>
<polygon fill="#ffffff" stroke="transparent" points="162,-122.7 162,-141.7 189,-141.7 189,-122.7 162,-122.7"/>
<polygon fill="none" stroke="#000000" points="162,-122.7 162,-141.7 189,-141.7 189,-122.7 162,-122.7"/>
<text text-anchor="start" x="165" y="-128.8" font-family="Helvetica,sans-Serif" font-size="11.00" fill="#000000">&lt; 1</text>
<polygon fill="#ffffff" stroke="transparent" points="189,-122.7 189,-141.7 233,-141.7 233,-122.7 189,-122.7"/>
<polygon fill="none" stroke="#000000" points="189,-122.7 189,-141.7 233,-141.7 233,-122.7 189,-122.7"/>
<text text-anchor="start" x="197.6105" y="-128.8" font-family="Helvetica,sans-Serif" font-size="11.00" fill="#000000">0 rows</text>
<polygon fill="#ffffff" stroke="transparent" points="233,-122.7 233,-141.7 300,-141.7 300,-122.7 233,-122.7"/>
<polygon fill="none" stroke="#000000" points="233,-122.7 233,-141.7 300,-141.7 300,-122.7 233,-122.7"/>
<text text-anchor="start" x="281.4053" y="-128.8" font-family="Helvetica,sans-Serif" font-size="11.00" fill="#000000">0 &gt;</text>
<polygon fill="none" stroke="#000000" stroke-width="2" points="161,-121.7 161,-253.7 301,-253.7 301,-121.7 161,-121.7"/>
</a>
</g>
</g>
<!-- livre&#45;&gt;media -->
<g id="edge3" class="edge">
<title>livre:w&#45;&gt;media:e</title>
<path fill="none" stroke="#000000" d="M151.6779,-220.9581C134.292,-229.6819 136.5872,-260.7 111.5,-260.7"/>
<polygon fill="#000000" stroke="#000000" points="160.3636,-214.9634 162.0733,-222.7786 160.5103,-223.1205 158.8006,-215.3053 160.3636,-214.9634"/>
<polyline fill="none" stroke="#000000" points="162,-218.7 158.0924,-219.5549 "/>
<ellipse fill="none" stroke="#000000" cx="154.9663" cy="-220.2388" rx="3.2" ry="3.2"/>
</g>
<!-- magazine -->
<g id="node5" class="node">
<title>magazine</title>
<g id="a_node5"><a xlink:href="../../tables/magazine.html" xlink:title="magazine" target="_top">
<polygon fill="#ffffff" stroke="transparent" points="184.5,-38.2 184.5,-99.2 277.5,-99.2 277.5,-38.2 184.5,-38.2"/>
<polygon fill="#f5f5f5" stroke="transparent" points="185,-75.7 185,-98.7 278,-98.7 278,-75.7 185,-75.7"/>
<polygon fill="none" stroke="#000000" points="185,-75.7 185,-98.7 278,-98.7 278,-75.7 185,-75.7"/>
<text text-anchor="start" x="190" y="-84.3" font-family="Helvetica,sans-Serif" font-weight="bold" font-size="11.00" fill="#000000">magazine</text>
<text text-anchor="start" x="243.5219" y="-83.8" font-family="Helvetica,sans-Serif" font-size="11.00" fill="#000000">[table]</text>
<polygon fill="none" stroke="#000000" points="185,-56.7 185,-75.7 278,-75.7 278,-56.7 185,-56.7"/>
<text text-anchor="start" x="188" y="-62.8" font-family="Helvetica,sans-Serif" font-size="11.00" fill="#000000">...</text>
<polygon fill="#ffffff" stroke="transparent" points="185,-37.7 185,-56.7 217,-56.7 217,-37.7 185,-37.7"/>
<polygon fill="none" stroke="#000000" points="185,-37.7 185,-56.7 217,-56.7 217,-37.7 185,-37.7"/>
<text text-anchor="start" x="188" y="-43.8" font-family="Helvetica,sans-Serif" font-size="11.00" fill="#000000">&lt; 1</text>
<polygon fill="#ffffff" stroke="transparent" points="217,-37.7 217,-56.7 260,-56.7 260,-37.7 217,-37.7"/>
<polygon fill="none" stroke="#000000" points="217,-37.7 217,-56.7 260,-56.7 260,-37.7 217,-37.7"/>
<text text-anchor="start" x="224.6105" y="-43.8" font-family="Helvetica,sans-Serif" font-size="11.00" fill="#000000">2 rows</text>
<polygon fill="#ffffff" stroke="transparent" points="260,-37.7 260,-56.7 278,-56.7 278,-37.7 260,-37.7"/>
<polygon fill="none" stroke="#000000" points="260,-37.7 260,-56.7 278,-56.7 278,-37.7 260,-37.7"/>
<text text-anchor="start" x="268.8862" y="-43.8" font-family="Helvetica,sans-Serif" font-size="11.00" fill="#000000"> &#160;</text>
</a>
</g>
</g>
<!-- magazine&#45;&gt;media -->
<g id="edge4" class="edge">
<title>magazine:w&#45;&gt;media:e</title>
<path fill="none" stroke="#000000" d="M174.6067,-66.6572C101.2035,-81.368 200.3199,-260.7 111.5,-260.7"/>
<polygon fill="#000000" stroke="#000000" points="183.8365,-61.7902 184.5703,-69.7565 182.977,-69.9033 182.2432,-61.937 183.8365,-61.7902"/>
<polyline fill="none" stroke="#000000" points="185,-65.7 181.0169,-66.0669 "/>
<ellipse fill="none" stroke="#000000" cx="177.8303" cy="-66.3604" rx="3.2" ry="3.2"/>
</g>
</g>
</svg>
