<?xml version="1.0" encoding="UTF-8" standalone="no"?>
<!DOCTYPE svg PUBLIC "-//W3C//DTD SVG 1.1//EN"
 "http://www.w3.org/Graphics/SVG/1.1/DTD/svg11.dtd">
<!-- Generated by graphviz version 2.40.1 (20161225.0304)
 -->
<!-- Title: oneDegreeRelationshipsDiagram Pages: 1 -->
<svg width="335pt" height="162pt"
 viewBox="0.00 0.00 335.00 162.20" xmlns="http://www.w3.org/2000/svg" xmlns:xlink="http://www.w3.org/1999/xlink">
<g id="graph0" class="graph" transform="scale(1 1) rotate(0) translate(4 158.2)">
<title>oneDegreeRelationshipsDiagram</title>
<polygon fill="#ffffff" stroke="transparent" points="-4,4 -4,-158.2 331,-158.2 331,4 -4,4"/>
<text text-anchor="middle" x="72.4936" y="-7.3" font-family="Helvetica,sans-Serif" font-size="11.00" fill="#000000">Generated by SchemaSpy</text>
<!-- magazine -->
<g id="node1" class="node">
<title>magazine</title>
<g id="a_node1"><a xlink:href="../../tables/magazine.html" xlink:title="magazine" target="_top">
<polygon fill="#ffffff" stroke="transparent" points="160,-38.2 160,-150.2 319,-150.2 319,-38.2 160,-38.2"/>
<polygon fill="#f5f5f5" stroke="transparent" points="162.5,-125.2 162.5,-148.2 317.5,-148.2 317.5,-125.2 162.5,-125.2"/>
<polygon fill="none" stroke="#000000" points="162.5,-125.2 162.5,-148.2 317.5,-148.2 317.5,-125.2 162.5,-125.2"/>
<text text-anchor="start" x="167.5" y="-133.8" font-family="Helvetica,sans-Serif" font-weight="bold" font-size="11.00" fill="#000000">magazine</text>
<text text-anchor="start" x="282.5437" y="-133.3" font-family="Helvetica,sans-Serif" font-size="11.00" fill="#000000">[table]</text>
<polygon fill="none" stroke="#000000" points="162.5,-103.2 162.5,-125.2 272.5,-125.2 272.5,-103.2 162.5,-103.2"/>
<image xlink:href="../../images/primaryKeys.png" width="11px" height="12px" preserveAspectRatio="xMinYMin meet" x="167.5" y="-120.2"/>
<text text-anchor="start" x="182.5" y="-110.3" font-family="Helvetica,sans-Serif" font-size="11.00" fill="#000000">id</text>
<polygon fill="none" stroke="#000000" points="272.5,-103.2 272.5,-125.2 317.5,-125.2 317.5,-103.2 272.5,-103.2"/>
<text text-anchor="start" x="275.5" y="-110.9" font-family="Helvetica,sans-Serif" font-size="11.00" fill="#000000">int[10]</text>
<polygon fill="none" stroke="#000000" points="162.5,-81.2 162.5,-103.2 272.5,-103.2 272.5,-81.2 162.5,-81.2"/>
<text text-anchor="start" x="182.5" y="-88.3" font-family="Helvetica,sans-Serif" font-size="11.00" fill="#000000">numero</text>
<polygon fill="none" stroke="#000000" points="272.5,-81.2 272.5,-103.2 317.5,-103.2 317.5,-81.2 272.5,-81.2"/>
<text text-anchor="start" x="275.5" y="-88.9" font-family="Helvetica,sans-Serif" font-size="11.00" fill="#000000">int[10]</text>
<polygon fill="none" stroke="#000000" points="162.5,-59.2 162.5,-81.2 272.5,-81.2 272.5,-59.2 162.5,-59.2"/>
<text text-anchor="start" x="182.5" y="-66.3" font-family="Helvetica,sans-Serif" font-size="11.00" fill="#000000">datePublication</text>
<polygon fill="none" stroke="#000000" points="272.5,-59.2 272.5,-81.2 317.5,-81.2 317.5,-59.2 272.5,-59.2"/>
<text text-anchor="start" x="275.1274" y="-66.9" font-family="Helvetica,sans-Serif" font-size="11.00" fill="#000000">date[10]</text>
<polygon fill="#ffffff" stroke="transparent" points="162.5,-40.2 162.5,-59.2 208.5,-59.2 208.5,-40.2 162.5,-40.2"/>
<polygon fill="none" stroke="#000000" points="162.5,-40.2 162.5,-59.2 208.5,-59.2 208.5,-40.2 162.5,-40.2"/>
<text text-anchor="start" x="165.5" y="-46.3" font-family="Helvetica,sans-Serif" font-size="11.00" fill="#000000">&lt; 1</text>
<polygon fill="#ffffff" stroke="transparent" points="208.5,-40.2 208.5,-59.2 272.5,-59.2 272.5,-40.2 208.5,-40.2"/>
<polygon fill="none" stroke="#000000" points="208.5,-40.2 208.5,-59.2 272.5,-59.2 272.5,-40.2 208.5,-40.2"/>
<text text-anchor="start" x="237.1105" y="-46.3" font-family="Helvetica,sans-Serif" font-size="11.00" fill="#000000">2 rows</text>
<polygon fill="#ffffff" stroke="transparent" points="272.5,-40.2 272.5,-59.2 317.5,-59.2 317.5,-40.2 272.5,-40.2"/>
<polygon fill="none" stroke="#000000" points="272.5,-40.2 272.5,-59.2 317.5,-59.2 317.5,-40.2 272.5,-40.2"/>
<text text-anchor="start" x="298.9053" y="-46.3" font-family="Helvetica,sans-Serif" font-size="11.00" fill="#000000">0 &gt;</text>
<polygon fill="none" stroke="#000000" stroke-width="2" points="161,-39.2 161,-149.2 318,-149.2 318,-39.2 161,-39.2"/>
</a>
</g>
</g>
<!-- media -->
<g id="node2" class="node">
<title>media</title>
<g id="a_node2"><a xlink:href="../../tables/media.html" xlink:title="media" target="_top">
<polygon fill="#ffffff" stroke="transparent" points="8,-65.7 8,-148.7 111,-148.7 111,-65.7 8,-65.7"/>
<polygon fill="#f5f5f5" stroke="transparent" points="8.5,-125.2 8.5,-148.2 111.5,-148.2 111.5,-125.2 8.5,-125.2"/>
<polygon fill="none" stroke="#000000" points="8.5,-125.2 8.5,-148.2 111.5,-148.2 111.5,-125.2 8.5,-125.2"/>
<text text-anchor="start" x="13.5" y="-133.8" font-family="Helvetica,sans-Serif" font-weight="bold" font-size="11.00" fill="#000000">media</text>
<text text-anchor="start" x="76.5437" y="-133.3" font-family="Helvetica,sans-Serif" font-size="11.00" fill="#000000">[table]</text>
<polygon fill="none" stroke="#000000" points="8.5,-103.2 8.5,-125.2 111.5,-125.2 111.5,-103.2 8.5,-103.2"/>
<image xlink:href="../../images/primaryKeys.png" width="11px" height="12px" preserveAspectRatio="xMinYMin meet" x="13.5" y="-120.2"/>
<text text-anchor="start" x="28.5" y="-110.3" font-family="Helvetica,sans-Serif" font-size="11.00" fill="#000000">id</text>
<polygon fill="none" stroke="#000000" points="8.5,-84.2 8.5,-103.2 111.5,-103.2 111.5,-84.2 8.5,-84.2"/>
<text text-anchor="start" x="11.5" y="-90.3" font-family="Helvetica,sans-Serif" font-size="11.00" fill="#000000">...</text>
<polygon fill="#ffffff" stroke="transparent" points="8.5,-65.2 8.5,-84.2 36.5,-84.2 36.5,-65.2 8.5,-65.2"/>
<polygon fill="none" stroke="#000000" points="8.5,-65.2 8.5,-84.2 36.5,-84.2 36.5,-65.2 8.5,-65.2"/>
<text text-anchor="start" x="11.5" y="-71.3" font-family="Helvetica,sans-Serif" font-size="11.00" fill="#000000"> &#160;</text>
<polygon fill="#ffffff" stroke="transparent" points="36.5,-65.2 36.5,-84.2 82.5,-84.2 82.5,-65.2 36.5,-65.2"/>
<polygon fill="none" stroke="#000000" points="36.5,-65.2 36.5,-84.2 82.5,-84.2 82.5,-65.2 36.5,-65.2"/>
<text text-anchor="start" x="47.1105" y="-71.3" font-family="Helvetica,sans-Serif" font-size="11.00" fill="#000000">3 rows</text>
<polygon fill="#ffffff" stroke="transparent" points="82.5,-65.2 82.5,-84.2 111.5,-84.2 111.5,-65.2 82.5,-65.2"/>
<polygon fill="none" stroke="#000000" points="82.5,-65.2 82.5,-84.2 111.5,-84.2 111.5,-65.2 82.5,-65.2"/>
<text text-anchor="start" x="92.9053" y="-71.3" font-family="Helvetica,sans-Serif" font-size="11.00" fill="#000000">4 &gt;</text>
</a>
</g>
</g>
<!-- magazine&#45;&gt;media -->
<g id="edge1" class="edge">
<title>magazine:w&#45;&gt;media:e</title>
<path fill="none" stroke="#000000" d="M151.7307,-114.2C137.248,-114.2 130.0938,-114.2 111.5,-114.2"/>
<polygon fill="#000000" stroke="#000000" points="161.7,-110.2 161.7,-118.2 160.1,-118.2 160.1,-110.2 161.7,-110.2"/>
<polyline fill="none" stroke="#000000" points="162.5,-114.2 158.5,-114.2 "/>
<ellipse fill="none" stroke="#000000" cx="155.3" cy="-114.2001" rx="3.2" ry="3.2"/>
</g>
</g>
</svg>
