<?xml version="1.0" encoding="UTF-8" standalone="no"?>
<!DOCTYPE svg PUBLIC "-//W3C//DTD SVG 1.1//EN"
 "http://www.w3.org/Graphics/SVG/1.1/DTD/svg11.dtd">
<!-- Generated by graphviz version 2.40.1 (20161225.0304)
 -->
<!-- Title: twoDegreesRelationshipsDiagram Pages: 1 -->
<svg width="335pt" height="409pt"
 viewBox="0.00 0.00 335.00 408.70" xmlns="http://www.w3.org/2000/svg" xmlns:xlink="http://www.w3.org/1999/xlink">
<g id="graph0" class="graph" transform="scale(1 1) rotate(0) translate(4 404.7)">
<title>twoDegreesRelationshipsDiagram</title>
<polygon fill="#ffffff" stroke="transparent" points="-4,4 -4,-404.7 331,-404.7 331,4 -4,4"/>
<text text-anchor="middle" x="72.4936" y="-7.3" font-family="Helvetica,sans-Serif" font-size="11.00" fill="#000000">Generated by SchemaSpy</text>
<!-- blueray -->
<g id="node1" class="node">
<title>blueray</title>
<g id="a_node1"><a xlink:href="../../tables/blueray.html" xlink:title="blueray" target="_top">
<polygon fill="#ffffff" stroke="transparent" points="199,-335.7 199,-396.7 280,-396.7 280,-335.7 199,-335.7"/>
<polygon fill="#f5f5f5" stroke="transparent" points="199.5,-373.2 199.5,-396.2 280.5,-396.2 280.5,-373.2 199.5,-373.2"/>
<polygon fill="none" stroke="#000000" points="199.5,-373.2 199.5,-396.2 280.5,-396.2 280.5,-373.2 199.5,-373.2"/>
<text text-anchor="start" x="204.5" y="-381.8" font-family="Helvetica,sans-Serif" font-weight="bold" font-size="11.00" fill="#000000">blueray</text>
<text text-anchor="start" x="246.0219" y="-381.3" font-family="Helvetica,sans-Serif" font-size="11.00" fill="#000000">[table]</text>
<polygon fill="none" stroke="#000000" points="199.5,-354.2 199.5,-373.2 280.5,-373.2 280.5,-354.2 199.5,-354.2"/>
<text text-anchor="start" x="202.5" y="-360.3" font-family="Helvetica,sans-Serif" font-size="11.00" fill="#000000">...</text>
<polygon fill="#ffffff" stroke="transparent" points="199.5,-335.2 199.5,-354.2 225.5,-354.2 225.5,-335.2 199.5,-335.2"/>
<polygon fill="none" stroke="#000000" points="199.5,-335.2 199.5,-354.2 225.5,-354.2 225.5,-335.2 199.5,-335.2"/>
<text text-anchor="start" x="202.5" y="-341.3" font-family="Helvetica,sans-Serif" font-size="11.00" fill="#000000">&lt; 1</text>
<polygon fill="#ffffff" stroke="transparent" points="225.5,-335.2 225.5,-354.2 265.5,-354.2 265.5,-335.2 225.5,-335.2"/>
<polygon fill="none" stroke="#000000" points="225.5,-335.2 225.5,-354.2 265.5,-354.2 265.5,-335.2 225.5,-335.2"/>
<text text-anchor="start" x="230.1105" y="-341.3" font-family="Helvetica,sans-Serif" font-size="11.00" fill="#000000">0 rows</text>
<polygon fill="#ffffff" stroke="transparent" points="265.5,-335.2 265.5,-354.2 280.5,-354.2 280.5,-335.2 265.5,-335.2"/>
<polygon fill="none" stroke="#000000" points="265.5,-335.2 265.5,-354.2 280.5,-354.2 280.5,-335.2 265.5,-335.2"/>
<text text-anchor="start" x="271.3862" y="-341.3" font-family="Helvetica,sans-Serif" font-size="11.00" fill="#000000"> &#160;</text>
</a>
</g>
</g>
<!-- media -->
<g id="node2" class="node">
<title>media</title>
<g id="a_node2"><a xlink:href="../../tables/media.html" xlink:title="media" target="_top">
<polygon fill="#ffffff" stroke="transparent" points="8,-191.7 8,-274.7 111,-274.7 111,-191.7 8,-191.7"/>
<polygon fill="#f5f5f5" stroke="transparent" points="8.5,-251.2 8.5,-274.2 111.5,-274.2 111.5,-251.2 8.5,-251.2"/>
<polygon fill="none" stroke="#000000" points="8.5,-251.2 8.5,-274.2 111.5,-274.2 111.5,-251.2 8.5,-251.2"/>
<text text-anchor="start" x="13.5" y="-259.8" font-family="Helvetica,sans-Serif" font-weight="bold" font-size="11.00" fill="#000000">media</text>
<text text-anchor="start" x="76.5437" y="-259.3" font-family="Helvetica,sans-Serif" font-size="11.00" fill="#000000">[table]</text>
<polygon fill="none" stroke="#000000" points="8.5,-229.2 8.5,-251.2 111.5,-251.2 111.5,-229.2 8.5,-229.2"/>
<image xlink:href="../../images/primaryKeys.png" width="11px" height="12px" preserveAspectRatio="xMinYMin meet" x="13.5" y="-246.2"/>
<text text-anchor="start" x="28.5" y="-236.3" font-family="Helvetica,sans-Serif" font-size="11.00" fill="#000000">id</text>
<polygon fill="none" stroke="#000000" points="8.5,-210.2 8.5,-229.2 111.5,-229.2 111.5,-210.2 8.5,-210.2"/>
<text text-anchor="start" x="11.5" y="-216.3" font-family="Helvetica,sans-Serif" font-size="11.00" fill="#000000">...</text>
<polygon fill="#ffffff" stroke="transparent" points="8.5,-191.2 8.5,-210.2 36.5,-210.2 36.5,-191.2 8.5,-191.2"/>
<polygon fill="none" stroke="#000000" points="8.5,-191.2 8.5,-210.2 36.5,-210.2 36.5,-191.2 8.5,-191.2"/>
<text text-anchor="start" x="11.5" y="-197.3" font-family="Helvetica,sans-Serif" font-size="11.00" fill="#000000"> &#160;</text>
<polygon fill="#ffffff" stroke="transparent" points="36.5,-191.2 36.5,-210.2 82.5,-210.2 82.5,-191.2 36.5,-191.2"/>
<polygon fill="none" stroke="#000000" points="36.5,-191.2 36.5,-210.2 82.5,-210.2 82.5,-191.2 36.5,-191.2"/>
<text text-anchor="start" x="47.1105" y="-197.3" font-family="Helvetica,sans-Serif" font-size="11.00" fill="#000000">3 rows</text>
<polygon fill="#ffffff" stroke="transparent" points="82.5,-191.2 82.5,-210.2 111.5,-210.2 111.5,-191.2 82.5,-191.2"/>
<polygon fill="none" stroke="#000000" points="82.5,-191.2 82.5,-210.2 111.5,-210.2 111.5,-191.2 82.5,-191.2"/>
<text text-anchor="start" x="92.9053" y="-197.3" font-family="Helvetica,sans-Serif" font-size="11.00" fill="#000000">4 &gt;</text>
</a>
</g>
</g>
<!-- blueray&#45;&gt;media -->
<g id="edge1" class="edge">
<title>blueray:w&#45;&gt;media:e</title>
<path fill="none" stroke="#000000" d="M188.886,-362.1292C171.0862,-358.1118 166.3029,-343.2404 152,-325.2 126.0022,-292.4087 153.3469,-240.2 111.5,-240.2"/>
<polygon fill="#000000" stroke="#000000" points="199.1056,-359.1399 198.3025,-367.0995 196.7106,-366.9389 197.5137,-358.9793 199.1056,-359.1399"/>
<polyline fill="none" stroke="#000000" points="199.5,-363.2 195.5202,-362.7985 "/>
<ellipse fill="none" stroke="#000000" cx="192.3364" cy="-362.4772" rx="3.2" ry="3.2"/>
</g>
<!-- emprunt -->
<g id="node3" class="node">
<title>emprunt</title>
<g id="a_node3"><a xlink:href="../../tables/emprunt.html" xlink:title="emprunt" target="_top">
<polygon fill="#ffffff" stroke="transparent" points="196,-253.7 196,-314.7 283,-314.7 283,-253.7 196,-253.7"/>
<polygon fill="#f5f5f5" stroke="transparent" points="196.5,-291.2 196.5,-314.2 283.5,-314.2 283.5,-291.2 196.5,-291.2"/>
<polygon fill="none" stroke="#000000" points="196.5,-291.2 196.5,-314.2 283.5,-314.2 283.5,-291.2 196.5,-291.2"/>
<text text-anchor="start" x="201.5" y="-299.8" font-family="Helvetica,sans-Serif" font-weight="bold" font-size="11.00" fill="#000000">emprunt</text>
<text text-anchor="start" x="249.0219" y="-299.3" font-family="Helvetica,sans-Serif" font-size="11.00" fill="#000000">[table]</text>
<polygon fill="none" stroke="#000000" points="196.5,-272.2 196.5,-291.2 283.5,-291.2 283.5,-272.2 196.5,-272.2"/>
<text text-anchor="start" x="199.5" y="-278.3" font-family="Helvetica,sans-Serif" font-size="11.00" fill="#000000">...</text>
<polygon fill="#ffffff" stroke="transparent" points="196.5,-253.2 196.5,-272.2 228.5,-272.2 228.5,-253.2 196.5,-253.2"/>
<polygon fill="none" stroke="#000000" points="196.5,-253.2 196.5,-272.2 228.5,-272.2 228.5,-253.2 196.5,-253.2"/>
<text text-anchor="start" x="199.5" y="-259.3" font-family="Helvetica,sans-Serif" font-size="11.00" fill="#000000">&lt; 2</text>
<polygon fill="#ffffff" stroke="transparent" points="228.5,-253.2 228.5,-272.2 265.5,-272.2 265.5,-253.2 228.5,-253.2"/>
<polygon fill="none" stroke="#000000" points="228.5,-253.2 228.5,-272.2 265.5,-272.2 265.5,-253.2 228.5,-253.2"/>
<text text-anchor="start" x="235.6105" y="-259.3" font-family="Helvetica,sans-Serif" font-size="11.00" fill="#000000">1 row</text>
<polygon fill="#ffffff" stroke="transparent" points="265.5,-253.2 265.5,-272.2 283.5,-272.2 283.5,-253.2 265.5,-253.2"/>
<polygon fill="none" stroke="#000000" points="265.5,-253.2 265.5,-272.2 283.5,-272.2 283.5,-253.2 265.5,-253.2"/>
<text text-anchor="start" x="274.3862" y="-259.3" font-family="Helvetica,sans-Serif" font-size="11.00" fill="#000000"> &#160;</text>
</a>
</g>
</g>
<!-- emprunt&#45;&gt;media -->
<g id="edge2" class="edge">
<title>emprunt:w&#45;&gt;media:e</title>
<path fill="none" stroke="#000000" d="M182.1403,-279.3318C153.5914,-271.311 148.0362,-240.2 111.5,-240.2"/>
<polygon fill="#000000" stroke="#000000" points="188.5669,-280.1678 196.0355,-284.7699 192.5334,-280.6839 196.5,-281.2 196.5,-281.2 196.5,-281.2 192.5334,-280.6839 196.9645,-277.6301 188.5669,-280.1678 188.5669,-280.1678"/>
<ellipse fill="none" stroke="#000000" cx="185.3936" cy="-279.755" rx="3.2" ry="3.2"/>
</g>
<!-- livre -->
<g id="node4" class="node">
<title>livre</title>
<g id="a_node4"><a xlink:href="../../tables/livre.html" xlink:title="livre" target="_top">
<polygon fill="#ffffff" stroke="transparent" points="204,-171.7 204,-232.7 275,-232.7 275,-171.7 204,-171.7"/>
<polygon fill="#f5f5f5" stroke="transparent" points="204.5,-209.2 204.5,-232.2 275.5,-232.2 275.5,-209.2 204.5,-209.2"/>
<polygon fill="none" stroke="#000000" points="204.5,-209.2 204.5,-232.2 275.5,-232.2 275.5,-209.2 204.5,-209.2"/>
<text text-anchor="start" x="209.4207" y="-217.8" font-family="Helvetica,sans-Serif" font-weight="bold" font-size="11.00" fill="#000000">livre</text>
<text text-anchor="start" x="240.5437" y="-217.3" font-family="Helvetica,sans-Serif" font-size="11.00" fill="#000000">[table]</text>
<polygon fill="none" stroke="#000000" points="204.5,-190.2 204.5,-209.2 275.5,-209.2 275.5,-190.2 204.5,-190.2"/>
<text text-anchor="start" x="207.5" y="-196.3" font-family="Helvetica,sans-Serif" font-size="11.00" fill="#000000">...</text>
<polygon fill="#ffffff" stroke="transparent" points="204.5,-171.2 204.5,-190.2 225.5,-190.2 225.5,-171.2 204.5,-171.2"/>
<polygon fill="none" stroke="#000000" points="204.5,-171.2 204.5,-190.2 225.5,-190.2 225.5,-171.2 204.5,-171.2"/>
<text text-anchor="start" x="207.2027" y="-177.3" font-family="Helvetica,sans-Serif" font-size="11.00" fill="#000000">&lt; 1</text>
<polygon fill="#ffffff" stroke="transparent" points="225.5,-171.2 225.5,-190.2 263.5,-190.2 263.5,-171.2 225.5,-171.2"/>
<polygon fill="none" stroke="#000000" points="225.5,-171.2 225.5,-190.2 263.5,-190.2 263.5,-171.2 225.5,-171.2"/>
<text text-anchor="start" x="228.3053" y="-177.3" font-family="Helvetica,sans-Serif" font-size="11.00" fill="#000000">0 rows</text>
<polygon fill="#ffffff" stroke="transparent" points="263.5,-171.2 263.5,-190.2 275.5,-190.2 275.5,-171.2 263.5,-171.2"/>
<polygon fill="none" stroke="#000000" points="263.5,-171.2 263.5,-190.2 275.5,-190.2 275.5,-171.2 263.5,-171.2"/>
<text text-anchor="start" x="266.4431" y="-177.3" font-family="Helvetica,sans-Serif" font-size="11.00" fill="#000000"> &#160;</text>
</a>
</g>
</g>
<!-- livre&#45;&gt;media -->
<g id="edge3" class="edge">
<title>livre:w&#45;&gt;media:e</title>
<path fill="none" stroke="#000000" d="M193.7421,-200.0563C158.5576,-205.9441 152.7899,-240.2 111.5,-240.2"/>
<polygon fill="#000000" stroke="#000000" points="203.3851,-195.2761 204.02,-203.2509 202.425,-203.3778 201.7901,-195.4031 203.3851,-195.2761"/>
<polyline fill="none" stroke="#000000" points="204.5,-199.2 200.5126,-199.5174 "/>
<ellipse fill="none" stroke="#000000" cx="197.3227" cy="-199.7714" rx="3.2" ry="3.2"/>
</g>
<!-- magazine -->
<g id="node5" class="node">
<title>magazine</title>
<g id="a_node5"><a xlink:href="../../tables/magazine.html" xlink:title="magazine" target="_top">
<polygon fill="#ffffff" stroke="transparent" points="160,-38.2 160,-150.2 319,-150.2 319,-38.2 160,-38.2"/>
<polygon fill="#f5f5f5" stroke="transparent" points="162.5,-125.2 162.5,-148.2 317.5,-148.2 317.5,-125.2 162.5,-125.2"/>
<polygon fill="none" stroke="#000000" points="162.5,-125.2 162.5,-148.2 317.5,-148.2 317.5,-125.2 162.5,-125.2"/>
<text text-anchor="start" x="167.5" y="-133.8" font-family="Helvetica,sans-Serif" font-weight="bold" font-size="11.00" fill="#000000">magazine</text>
<text text-anchor="start" x="282.5437" y="-133.3" font-family="Helvetica,sans-Serif" font-size="11.00" fill="#000000">[table]</text>
<polygon fill="none" stroke="#000000" points="162.5,-103.2 162.5,-125.2 272.5,-125.2 272.5,-103.2 162.5,-103.2"/>
<image xlink:href="../../images/primaryKeys.png" width="11px" height="12px" preserveAspectRatio="xMinYMin meet" x="167.5" y="-120.2"/>
<text text-anchor="start" x="182.5" y="-110.3" font-family="Helvetica,sans-Serif" font-size="11.00" fill="#000000">id</text>
<polygon fill="none" stroke="#000000" points="272.5,-103.2 272.5,-125.2 317.5,-125.2 317.5,-103.2 272.5,-103.2"/>
<text text-anchor="start" x="275.5" y="-110.9" font-family="Helvetica,sans-Serif" font-size="11.00" fill="#000000">int[10]</text>
<polygon fill="none" stroke="#000000" points="162.5,-81.2 162.5,-103.2 272.5,-103.2 272.5,-81.2 162.5,-81.2"/>
<text text-anchor="start" x="182.5" y="-88.3" font-family="Helvetica,sans-Serif" font-size="11.00" fill="#000000">numero</text>
<polygon fill="none" stroke="#000000" points="272.5,-81.2 272.5,-103.2 317.5,-103.2 317.5,-81.2 272.5,-81.2"/>
<text text-anchor="start" x="275.5" y="-88.9" font-family="Helvetica,sans-Serif" font-size="11.00" fill="#000000">int[10]</text>
<polygon fill="none" stroke="#000000" points="162.5,-59.2 162.5,-81.2 272.5,-81.2 272.5,-59.2 162.5,-59.2"/>
<text text-anchor="start" x="182.5" y="-66.3" font-family="Helvetica,sans-Serif" font-size="11.00" fill="#000000">datePublication</text>
<polygon fill="none" stroke="#000000" points="272.5,-59.2 272.5,-81.2 317.5,-81.2 317.5,-59.2 272.5,-59.2"/>
<text text-anchor="start" x="275.1274" y="-66.9" font-family="Helvetica,sans-Serif" font-size="11.00" fill="#000000">date[10]</text>
<polygon fill="#ffffff" stroke="transparent" points="162.5,-40.2 162.5,-59.2 208.5,-59.2 208.5,-40.2 162.5,-40.2"/>
<polygon fill="none" stroke="#000000" points="162.5,-40.2 162.5,-59.2 208.5,-59.2 208.5,-40.2 162.5,-40.2"/>
<text text-anchor="start" x="165.5" y="-46.3" font-family="Helvetica,sans-Serif" font-size="11.00" fill="#000000">&lt; 1</text>
<polygon fill="#ffffff" stroke="transparent" points="208.5,-40.2 208.5,-59.2 272.5,-59.2 272.5,-40.2 208.5,-40.2"/>
<polygon fill="none" stroke="#000000" points="208.5,-40.2 208.5,-59.2 272.5,-59.2 272.5,-40.2 208.5,-40.2"/>
<text text-anchor="start" x="237.1105" y="-46.3" font-family="Helvetica,sans-Serif" font-size="11.00" fill="#000000">2 rows</text>
<polygon fill="#ffffff" stroke="transparent" points="272.5,-40.2 272.5,-59.2 317.5,-59.2 317.5,-40.2 272.5,-40.2"/>
<polygon fill="none" stroke="#000000" points="272.5,-40.2 272.5,-59.2 317.5,-59.2 317.5,-40.2 272.5,-40.2"/>
<text text-anchor="start" x="298.9053" y="-46.3" font-family="Helvetica,sans-Serif" font-size="11.00" fill="#000000">0 &gt;</text>
<polygon fill="none" stroke="#000000" stroke-width="2" points="161,-39.2 161,-149.2 318,-149.2 318,-39.2 161,-39.2"/>
</a>
</g>
</g>
<!-- magazine&#45;&gt;media -->
<g id="edge4" class="edge">
<title>magazine:w&#45;&gt;media:e</title>
<path fill="none" stroke="#000000" d="M152.1112,-115.7931C110.7861,-130.3787 167.9016,-240.2 111.5,-240.2"/>
<polygon fill="#000000" stroke="#000000" points="161.1029,-110.3675 162.3156,-118.2751 160.7341,-118.5176 159.5214,-110.61 161.1029,-110.3675"/>
<polyline fill="none" stroke="#000000" points="162.5,-114.2 158.5462,-114.8063 "/>
<ellipse fill="none" stroke="#000000" cx="155.3832" cy="-115.2914" rx="3.2" ry="3.2"/>
</g>
</g>
</svg>
