<?xml version="1.0" encoding="UTF-8" standalone="no"?>
<!DOCTYPE svg PUBLIC "-//W3C//DTD SVG 1.1//EN"
 "http://www.w3.org/Graphics/SVG/1.1/DTD/svg11.dtd">
<!-- Generated by graphviz version 2.40.1 (20161225.0304)
 -->
<!-- Title: twoDegreesRelationshipsDiagram Pages: 1 -->
<svg width="377pt" height="489pt"
 viewBox="0.00 0.00 377.00 489.20" xmlns="http://www.w3.org/2000/svg" xmlns:xlink="http://www.w3.org/1999/xlink">
<g id="graph0" class="graph" transform="scale(1 1) rotate(0) translate(4 485.2)">
<title>twoDegreesRelationshipsDiagram</title>
<polygon fill="#ffffff" stroke="transparent" points="-4,4 -4,-485.2 373,-485.2 373,4 -4,4"/>
<text text-anchor="middle" x="72.4936" y="-7.3" font-family="Helvetica,sans-Serif" font-size="11.00" fill="#000000">Generated by SchemaSpy</text>
<!-- blueray -->
<g id="node1" class="node">
<title>blueray</title>
<g id="a_node1"><a xlink:href="../../tables/blueray.html" xlink:title="blueray" target="_top">
<polygon fill="#ffffff" stroke="transparent" points="251.5,-394.2 251.5,-477.2 340.5,-477.2 340.5,-394.2 251.5,-394.2"/>
<polygon fill="#f5f5f5" stroke="transparent" points="252,-453.7 252,-476.7 341,-476.7 341,-453.7 252,-453.7"/>
<polygon fill="none" stroke="#000000" points="252,-453.7 252,-476.7 341,-476.7 341,-453.7 252,-453.7"/>
<text text-anchor="start" x="257" y="-462.3" font-family="Helvetica,sans-Serif" font-weight="bold" font-size="11.00" fill="#000000">blueray</text>
<text text-anchor="start" x="306.0437" y="-461.8" font-family="Helvetica,sans-Serif" font-size="11.00" fill="#000000">[table]</text>
<polygon fill="none" stroke="#000000" points="252,-431.7 252,-453.7 341,-453.7 341,-431.7 252,-431.7"/>
<image xlink:href="../../images/primaryKeys.png" width="11px" height="12px" preserveAspectRatio="xMinYMin meet" x="257" y="-448.7"/>
<text text-anchor="start" x="272" y="-438.8" font-family="Helvetica,sans-Serif" font-size="11.00" fill="#000000">id</text>
<polygon fill="none" stroke="#000000" points="252,-412.7 252,-431.7 341,-431.7 341,-412.7 252,-412.7"/>
<text text-anchor="start" x="255" y="-418.8" font-family="Helvetica,sans-Serif" font-size="11.00" fill="#000000">...</text>
<polygon fill="#ffffff" stroke="transparent" points="252,-393.7 252,-412.7 282,-412.7 282,-393.7 252,-393.7"/>
<polygon fill="none" stroke="#000000" points="252,-393.7 252,-412.7 282,-412.7 282,-393.7 252,-393.7"/>
<text text-anchor="start" x="255" y="-399.8" font-family="Helvetica,sans-Serif" font-size="11.00" fill="#000000">&lt; 1</text>
<polygon fill="#ffffff" stroke="transparent" points="282,-393.7 282,-412.7 324,-412.7 324,-393.7 282,-393.7"/>
<polygon fill="none" stroke="#000000" points="282,-393.7 282,-412.7 324,-412.7 324,-393.7 282,-393.7"/>
<text text-anchor="start" x="288.6105" y="-399.8" font-family="Helvetica,sans-Serif" font-size="11.00" fill="#000000">0 rows</text>
<polygon fill="#ffffff" stroke="transparent" points="324,-393.7 324,-412.7 341,-412.7 341,-393.7 324,-393.7"/>
<polygon fill="none" stroke="#000000" points="324,-393.7 324,-412.7 341,-412.7 341,-393.7 324,-393.7"/>
<text text-anchor="start" x="331.8862" y="-399.8" font-family="Helvetica,sans-Serif" font-size="11.00" fill="#000000"> &#160;</text>
</a>
</g>
</g>
<!-- media -->
<g id="node2" class="node">
<title>media</title>
<g id="a_node2"><a xlink:href="../../tables/media.html" xlink:title="media" target="_top">
<polygon fill="#ffffff" stroke="transparent" points="8,-190.7 8,-368.7 182,-368.7 182,-190.7 8,-190.7"/>
<polygon fill="#f5f5f5" stroke="transparent" points="10,-343.7 10,-366.7 180,-366.7 180,-343.7 10,-343.7"/>
<polygon fill="none" stroke="#000000" points="10,-343.7 10,-366.7 180,-366.7 180,-343.7 10,-343.7"/>
<text text-anchor="start" x="15" y="-352.3" font-family="Helvetica,sans-Serif" font-weight="bold" font-size="11.00" fill="#000000">media</text>
<text text-anchor="start" x="145.0437" y="-351.8" font-family="Helvetica,sans-Serif" font-size="11.00" fill="#000000">[table]</text>
<polygon fill="none" stroke="#000000" points="10,-321.7 10,-343.7 113,-343.7 113,-321.7 10,-321.7"/>
<image xlink:href="../../images/primaryKeys.png" width="11px" height="12px" preserveAspectRatio="xMinYMin meet" x="15" y="-338.7"/>
<text text-anchor="start" x="30" y="-328.8" font-family="Helvetica,sans-Serif" font-size="11.00" fill="#000000">id</text>
<polygon fill="none" stroke="#000000" points="113,-321.7 113,-343.7 180,-343.7 180,-321.7 113,-321.7"/>
<text text-anchor="start" x="116" y="-329.4" font-family="Helvetica,sans-Serif" font-size="11.00" fill="#000000">int[10]</text>
<polygon fill="none" stroke="#000000" points="10,-299.7 10,-321.7 113,-321.7 113,-299.7 10,-299.7"/>
<text text-anchor="start" x="30" y="-306.8" font-family="Helvetica,sans-Serif" font-size="11.00" fill="#000000">titre</text>
<polygon fill="none" stroke="#000000" points="113,-299.7 113,-321.7 180,-321.7 180,-299.7 113,-299.7"/>
<text text-anchor="start" x="115.9365" y="-307.4" font-family="Helvetica,sans-Serif" font-size="11.00" fill="#000000">varchar[255]</text>
<polygon fill="none" stroke="#000000" points="10,-277.7 10,-299.7 113,-299.7 113,-277.7 10,-277.7"/>
<text text-anchor="start" x="30" y="-284.8" font-family="Helvetica,sans-Serif" font-size="11.00" fill="#000000">dateCreation</text>
<polygon fill="none" stroke="#000000" points="113,-277.7 113,-299.7 180,-299.7 180,-277.7 113,-277.7"/>
<text text-anchor="start" x="116" y="-285.4" font-family="Helvetica,sans-Serif" font-size="11.00" fill="#000000">datetime[19]</text>
<polygon fill="none" stroke="#000000" points="10,-255.7 10,-277.7 113,-277.7 113,-255.7 10,-255.7"/>
<text text-anchor="start" x="30" y="-262.8" font-family="Helvetica,sans-Serif" font-size="11.00" fill="#000000">dureeEmprunt</text>
<polygon fill="none" stroke="#000000" points="113,-255.7 113,-277.7 180,-277.7 180,-255.7 113,-255.7"/>
<text text-anchor="start" x="116" y="-263.4" font-family="Helvetica,sans-Serif" font-size="11.00" fill="#000000">int[10]</text>
<polygon fill="none" stroke="#000000" points="10,-233.7 10,-255.7 113,-255.7 113,-233.7 10,-233.7"/>
<text text-anchor="start" x="30" y="-240.8" font-family="Helvetica,sans-Serif" font-size="11.00" fill="#000000">type</text>
<polygon fill="none" stroke="#000000" points="113,-233.7 113,-255.7 180,-255.7 180,-233.7 113,-233.7"/>
<text text-anchor="start" x="115.9365" y="-241.4" font-family="Helvetica,sans-Serif" font-size="11.00" fill="#000000">varchar[255]</text>
<polygon fill="none" stroke="#000000" points="10,-211.7 10,-233.7 113,-233.7 113,-211.7 10,-211.7"/>
<text text-anchor="start" x="30" y="-218.8" font-family="Helvetica,sans-Serif" font-size="11.00" fill="#000000">statut</text>
<polygon fill="none" stroke="#000000" points="113,-211.7 113,-233.7 180,-233.7 180,-211.7 113,-211.7"/>
<text text-anchor="start" x="115.9365" y="-219.4" font-family="Helvetica,sans-Serif" font-size="11.00" fill="#000000">varchar[255]</text>
<polygon fill="#ffffff" stroke="transparent" points="10,-192.7 10,-211.7 53,-211.7 53,-192.7 10,-192.7"/>
<polygon fill="none" stroke="#000000" points="10,-192.7 10,-211.7 53,-211.7 53,-192.7 10,-192.7"/>
<text text-anchor="start" x="13" y="-198.8" font-family="Helvetica,sans-Serif" font-size="11.00" fill="#000000">&lt; 0</text>
<polygon fill="#ffffff" stroke="transparent" points="53,-192.7 53,-211.7 113,-211.7 113,-192.7 53,-192.7"/>
<polygon fill="none" stroke="#000000" points="53,-192.7 53,-211.7 113,-211.7 113,-192.7 53,-192.7"/>
<text text-anchor="start" x="77.6105" y="-198.8" font-family="Helvetica,sans-Serif" font-size="11.00" fill="#000000">3 rows</text>
<polygon fill="#ffffff" stroke="transparent" points="113,-192.7 113,-211.7 180,-211.7 180,-192.7 113,-192.7"/>
<polygon fill="none" stroke="#000000" points="113,-192.7 113,-211.7 180,-211.7 180,-192.7 113,-192.7"/>
<text text-anchor="start" x="161.4053" y="-198.8" font-family="Helvetica,sans-Serif" font-size="11.00" fill="#000000">4 &gt;</text>
<polygon fill="none" stroke="#000000" stroke-width="2" points="9,-191.7 9,-367.7 181,-367.7 181,-191.7 9,-191.7"/>
</a>
</g>
</g>
<!-- blueray&#45;&gt;media -->
<g id="edge1" class="edge">
<title>blueray:w&#45;&gt;media:e</title>
<path fill="none" stroke="#000000" d="M241.6655,-441.3092C199.0721,-428.5757 234.5504,-332.7 180,-332.7"/>
<polygon fill="#000000" stroke="#000000" points="251.7407,-438.629 250.6736,-446.5576 249.0879,-446.3441 250.155,-438.4156 251.7407,-438.629"/>
<polyline fill="none" stroke="#000000" points="252,-442.7 248.0357,-442.1665 "/>
<ellipse fill="none" stroke="#000000" cx="244.8643" cy="-441.7396" rx="3.2" ry="3.2"/>
</g>
<!-- emprunt -->
<g id="node3" class="node">
<title>emprunt</title>
<g id="a_node3"><a xlink:href="../../tables/emprunt.html" xlink:title="emprunt" target="_top">
<polygon fill="#ffffff" stroke="transparent" points="231,-38.2 231,-165.2 361,-165.2 361,-38.2 231,-38.2"/>
<polygon fill="#f5f5f5" stroke="transparent" points="231,-141.7 231,-164.7 361,-164.7 361,-141.7 231,-141.7"/>
<polygon fill="none" stroke="#000000" points="231,-141.7 231,-164.7 361,-164.7 361,-141.7 231,-141.7"/>
<text text-anchor="start" x="236" y="-150.3" font-family="Helvetica,sans-Serif" font-weight="bold" font-size="11.00" fill="#000000">emprunt</text>
<text text-anchor="start" x="326.0437" y="-149.8" font-family="Helvetica,sans-Serif" font-size="11.00" fill="#000000">[table]</text>
<polygon fill="#ffffff" stroke="transparent" points="231,-119.7 231,-141.7 361,-141.7 361,-119.7 231,-119.7"/>
<polygon fill="none" stroke="#000000" points="231,-119.7 231,-141.7 361,-141.7 361,-119.7 231,-119.7"/>
<image xlink:href="../../images/foreignKeys.png" width="11px" height="12px" preserveAspectRatio="xMinYMin meet" x="236" y="-136.7"/>
<text text-anchor="start" x="251" y="-126.8" font-family="Helvetica,sans-Serif" font-size="11.00" fill="#000000">adherent_id</text>
<polygon fill="#ffffff" stroke="transparent" points="231,-97.7 231,-119.7 361,-119.7 361,-97.7 231,-97.7"/>
<polygon fill="none" stroke="#000000" points="231,-97.7 231,-119.7 361,-119.7 361,-97.7 231,-97.7"/>
<image xlink:href="../../images/foreignKeys.png" width="11px" height="12px" preserveAspectRatio="xMinYMin meet" x="236" y="-114.7"/>
<text text-anchor="start" x="251" y="-104.8" font-family="Helvetica,sans-Serif" font-size="11.00" fill="#000000">media_id</text>
<polygon fill="none" stroke="#000000" points="231,-75.7 231,-97.7 361,-97.7 361,-75.7 231,-75.7"/>
<image xlink:href="../../images/primaryKeys.png" width="11px" height="12px" preserveAspectRatio="xMinYMin meet" x="236" y="-92.7"/>
<text text-anchor="start" x="251" y="-82.8" font-family="Helvetica,sans-Serif" font-size="11.00" fill="#000000">numeroEmprunt</text>
<polygon fill="none" stroke="#000000" points="231,-56.7 231,-75.7 361,-75.7 361,-56.7 231,-56.7"/>
<text text-anchor="start" x="234" y="-62.8" font-family="Helvetica,sans-Serif" font-size="11.00" fill="#000000">...</text>
<polygon fill="#ffffff" stroke="transparent" points="231,-37.7 231,-56.7 284,-56.7 284,-37.7 231,-37.7"/>
<polygon fill="none" stroke="#000000" points="231,-37.7 231,-56.7 284,-56.7 284,-37.7 231,-37.7"/>
<text text-anchor="start" x="234" y="-43.8" font-family="Helvetica,sans-Serif" font-size="11.00" fill="#000000">&lt; 2</text>
<polygon fill="#ffffff" stroke="transparent" points="284,-37.7 284,-56.7 332,-56.7 332,-37.7 284,-37.7"/>
<polygon fill="none" stroke="#000000" points="284,-37.7 284,-56.7 332,-56.7 332,-37.7 284,-37.7"/>
<text text-anchor="start" x="302.1105" y="-43.8" font-family="Helvetica,sans-Serif" font-size="11.00" fill="#000000">1 row</text>
<polygon fill="#ffffff" stroke="transparent" points="332,-37.7 332,-56.7 361,-56.7 361,-37.7 332,-37.7"/>
<polygon fill="none" stroke="#000000" points="332,-37.7 332,-56.7 361,-56.7 361,-37.7 332,-37.7"/>
<text text-anchor="start" x="351.8862" y="-43.8" font-family="Helvetica,sans-Serif" font-size="11.00" fill="#000000"> &#160;</text>
</a>
</g>
</g>
<!-- emprunt&#45;&gt;media -->
<g id="edge3" class="edge">
<title>emprunt:w&#45;&gt;media:e</title>
<path fill="none" stroke="#000000" d="M216.4558,-110.6365C144.8901,-132.5301 276.5195,-332.7 180,-332.7"/>
<polygon fill="#000000" stroke="#000000" points="223.07,-109.7559 231.4752,-112.2685 227.035,-109.2279 231,-108.7 231,-108.7 231,-108.7 227.035,-109.2279 230.5248,-105.1315 223.07,-109.7559 223.07,-109.7559"/>
<ellipse fill="none" stroke="#000000" cx="219.898" cy="-110.1783" rx="3.2" ry="3.2"/>
</g>
<!-- adherent -->
<g id="node4" class="node">
<title>adherent</title>
<g id="a_node4"><a xlink:href="../../tables/adherent.html" xlink:title="adherent" target="_top">
<polygon fill="#ffffff" stroke="transparent" points="50.5,-103.2 50.5,-164.2 139.5,-164.2 139.5,-103.2 50.5,-103.2"/>
<polygon fill="#f5f5f5" stroke="transparent" points="51,-140.7 51,-163.7 140,-163.7 140,-140.7 51,-140.7"/>
<polygon fill="none" stroke="#000000" points="51,-140.7 51,-163.7 140,-163.7 140,-140.7 51,-140.7"/>
<text text-anchor="start" x="56" y="-149.3" font-family="Helvetica,sans-Serif" font-weight="bold" font-size="11.00" fill="#000000">adherent</text>
<text text-anchor="start" x="105.5219" y="-148.8" font-family="Helvetica,sans-Serif" font-size="11.00" fill="#000000">[table]</text>
<polygon fill="none" stroke="#000000" points="51,-121.7 51,-140.7 140,-140.7 140,-121.7 51,-121.7"/>
<text text-anchor="start" x="54" y="-127.8" font-family="Helvetica,sans-Serif" font-size="11.00" fill="#000000">...</text>
<polygon fill="#ffffff" stroke="transparent" points="51,-102.7 51,-121.7 75,-121.7 75,-102.7 51,-102.7"/>
<polygon fill="none" stroke="#000000" points="51,-102.7 51,-121.7 75,-121.7 75,-102.7 51,-102.7"/>
<text text-anchor="start" x="54" y="-108.8" font-family="Helvetica,sans-Serif" font-size="11.00" fill="#000000"> &#160;</text>
<polygon fill="#ffffff" stroke="transparent" points="75,-102.7 75,-121.7 113,-121.7 113,-102.7 75,-102.7"/>
<polygon fill="none" stroke="#000000" points="75,-102.7 75,-121.7 113,-121.7 113,-102.7 75,-102.7"/>
<text text-anchor="start" x="83.1105" y="-108.8" font-family="Helvetica,sans-Serif" font-size="11.00" fill="#000000">1 row</text>
<polygon fill="#ffffff" stroke="transparent" points="113,-102.7 113,-121.7 140,-121.7 140,-102.7 113,-102.7"/>
<polygon fill="none" stroke="#000000" points="113,-102.7 113,-121.7 140,-121.7 140,-102.7 113,-102.7"/>
<text text-anchor="start" x="121.4053" y="-108.8" font-family="Helvetica,sans-Serif" font-size="11.00" fill="#000000">1 &gt;</text>
</a>
</g>
</g>
<!-- emprunt&#45;&gt;adherent -->
<g id="edge2" class="edge">
<title>emprunt:w&#45;&gt;adherent:e</title>
<path fill="none" stroke="#000000" d="M216.3485,-130.7C187.3347,-130.7 175.0729,-130.7 140,-130.7"/>
<polygon fill="#000000" stroke="#000000" points="223,-130.7001 231,-134.3 227,-130.7 231,-130.7 231,-130.7 231,-130.7 227,-130.7 231,-127.1 223,-130.7001 223,-130.7001"/>
<ellipse fill="none" stroke="#000000" cx="219.8" cy="-130.7001" rx="3.2" ry="3.2"/>
</g>
<!-- livre -->
<g id="node5" class="node">
<title>livre</title>
<g id="a_node5"><a xlink:href="../../tables/livre.html" xlink:title="livre" target="_top">
<polygon fill="#ffffff" stroke="transparent" points="260.5,-290.2 260.5,-373.2 331.5,-373.2 331.5,-290.2 260.5,-290.2"/>
<polygon fill="#f5f5f5" stroke="transparent" points="261,-349.7 261,-372.7 332,-372.7 332,-349.7 261,-349.7"/>
<polygon fill="none" stroke="#000000" points="261,-349.7 261,-372.7 332,-372.7 332,-349.7 261,-349.7"/>
<text text-anchor="start" x="265.9207" y="-358.3" font-family="Helvetica,sans-Serif" font-weight="bold" font-size="11.00" fill="#000000">livre</text>
<text text-anchor="start" x="297.0437" y="-357.8" font-family="Helvetica,sans-Serif" font-size="11.00" fill="#000000">[table]</text>
<polygon fill="none" stroke="#000000" points="261,-327.7 261,-349.7 332,-349.7 332,-327.7 261,-327.7"/>
<image xlink:href="../../images/primaryKeys.png" width="11px" height="12px" preserveAspectRatio="xMinYMin meet" x="266" y="-344.7"/>
<text text-anchor="start" x="281" y="-334.8" font-family="Helvetica,sans-Serif" font-size="11.00" fill="#000000">id</text>
<polygon fill="none" stroke="#000000" points="261,-308.7 261,-327.7 332,-327.7 332,-308.7 261,-308.7"/>
<text text-anchor="start" x="264" y="-314.8" font-family="Helvetica,sans-Serif" font-size="11.00" fill="#000000">...</text>
<polygon fill="#ffffff" stroke="transparent" points="261,-289.7 261,-308.7 282,-308.7 282,-289.7 261,-289.7"/>
<polygon fill="none" stroke="#000000" points="261,-289.7 261,-308.7 282,-308.7 282,-289.7 261,-289.7"/>
<text text-anchor="start" x="263.7027" y="-295.8" font-family="Helvetica,sans-Serif" font-size="11.00" fill="#000000">&lt; 1</text>
<polygon fill="#ffffff" stroke="transparent" points="282,-289.7 282,-308.7 320,-308.7 320,-289.7 282,-289.7"/>
<polygon fill="none" stroke="#000000" points="282,-289.7 282,-308.7 320,-308.7 320,-289.7 282,-289.7"/>
<text text-anchor="start" x="284.8053" y="-295.8" font-family="Helvetica,sans-Serif" font-size="11.00" fill="#000000">0 rows</text>
<polygon fill="#ffffff" stroke="transparent" points="320,-289.7 320,-308.7 332,-308.7 332,-289.7 320,-289.7"/>
<polygon fill="none" stroke="#000000" points="320,-289.7 320,-308.7 332,-308.7 332,-289.7 320,-289.7"/>
<text text-anchor="start" x="322.9431" y="-295.8" font-family="Helvetica,sans-Serif" font-size="11.00" fill="#000000"> &#160;</text>
</a>
</g>
</g>
<!-- livre&#45;&gt;media -->
<g id="edge4" class="edge">
<title>livre:w&#45;&gt;media:e</title>
<path fill="none" stroke="#000000" d="M250.425,-338.5139C222.7409,-337.5011 212.2914,-332.7 180,-332.7"/>
<polygon fill="#000000" stroke="#000000" points="260.2706,-334.6865 260.1297,-342.6853 258.5299,-342.6571 258.6708,-334.6584 260.2706,-334.6865"/>
<polyline fill="none" stroke="#000000" points="261,-338.7 257.0006,-338.6296 "/>
<ellipse fill="none" stroke="#000000" cx="253.8011" cy="-338.5732" rx="3.2" ry="3.2"/>
</g>
<!-- magazine -->
<g id="node6" class="node">
<title>magazine</title>
<g id="a_node6"><a xlink:href="../../tables/magazine.html" xlink:title="magazine" target="_top">
<polygon fill="#ffffff" stroke="transparent" points="241,-186.2 241,-269.2 351,-269.2 351,-186.2 241,-186.2"/>
<polygon fill="#f5f5f5" stroke="transparent" points="241,-245.7 241,-268.7 351,-268.7 351,-245.7 241,-245.7"/>
<polygon fill="none" stroke="#000000" points="241,-245.7 241,-268.7 351,-268.7 351,-245.7 241,-245.7"/>
<text text-anchor="start" x="246" y="-254.3" font-family="Helvetica,sans-Serif" font-weight="bold" font-size="11.00" fill="#000000">magazine</text>
<text text-anchor="start" x="316.0437" y="-253.8" font-family="Helvetica,sans-Serif" font-size="11.00" fill="#000000">[table]</text>
<polygon fill="none" stroke="#000000" points="241,-223.7 241,-245.7 351,-245.7 351,-223.7 241,-223.7"/>
<image xlink:href="../../images/primaryKeys.png" width="11px" height="12px" preserveAspectRatio="xMinYMin meet" x="246" y="-240.7"/>
<text text-anchor="start" x="261" y="-230.8" font-family="Helvetica,sans-Serif" font-size="11.00" fill="#000000">id</text>
<polygon fill="none" stroke="#000000" points="241,-204.7 241,-223.7 351,-223.7 351,-204.7 241,-204.7"/>
<text text-anchor="start" x="244" y="-210.8" font-family="Helvetica,sans-Serif" font-size="11.00" fill="#000000">...</text>
<polygon fill="#ffffff" stroke="transparent" points="241,-185.7 241,-204.7 281,-204.7 281,-185.7 241,-185.7"/>
<polygon fill="none" stroke="#000000" points="241,-185.7 241,-204.7 281,-204.7 281,-185.7 241,-185.7"/>
<text text-anchor="start" x="244" y="-191.8" font-family="Helvetica,sans-Serif" font-size="11.00" fill="#000000">&lt; 1</text>
<polygon fill="#ffffff" stroke="transparent" points="281,-185.7 281,-204.7 329,-204.7 329,-185.7 281,-185.7"/>
<polygon fill="none" stroke="#000000" points="281,-185.7 281,-204.7 329,-204.7 329,-185.7 281,-185.7"/>
<text text-anchor="start" x="293.6105" y="-191.8" font-family="Helvetica,sans-Serif" font-size="11.00" fill="#000000">2 rows</text>
<polygon fill="#ffffff" stroke="transparent" points="329,-185.7 329,-204.7 351,-204.7 351,-185.7 329,-185.7"/>
<polygon fill="none" stroke="#000000" points="329,-185.7 329,-204.7 351,-204.7 351,-185.7 329,-185.7"/>
<text text-anchor="start" x="341.8862" y="-191.8" font-family="Helvetica,sans-Serif" font-size="11.00" fill="#000000"> &#160;</text>
</a>
</g>
</g>
<!-- magazine&#45;&gt;media -->
<g id="edge5" class="edge">
<title>magazine:w&#45;&gt;media:e</title>
<path fill="none" stroke="#000000" d="M230.5883,-236.401C195.6302,-249.4144 227.2959,-332.7 180,-332.7"/>
<polygon fill="#000000" stroke="#000000" points="239.5655,-230.8813 240.8554,-238.7767 239.2764,-239.0346 237.9864,-231.1393 239.5655,-230.8813"/>
<polyline fill="none" stroke="#000000" points="241,-234.7 237.0523,-235.345 "/>
<ellipse fill="none" stroke="#000000" cx="233.8942" cy="-235.8609" rx="3.2" ry="3.2"/>
</g>
</g>
</svg>
