<?xml version="1.0" encoding="UTF-8" standalone="no"?>
<!DOCTYPE svg PUBLIC "-//W3C//DTD SVG 1.1//EN"
 "http://www.w3.org/Graphics/SVG/1.1/DTD/svg11.dtd">
<!-- Generated by graphviz version 2.40.1 (20161225.0304)
 -->
<!-- Title: oneDegreeRelationshipsDiagram Pages: 1 -->
<svg width="377pt" height="489pt"
 viewBox="0.00 0.00 377.00 489.20" xmlns="http://www.w3.org/2000/svg" xmlns:xlink="http://www.w3.org/1999/xlink">
<g id="graph0" class="graph" transform="scale(1 1) rotate(0) translate(4 485.2)">
<title>oneDegreeRelationshipsDiagram</title>
<polygon fill="#ffffff" stroke="transparent" points="-4,4 -4,-485.2 373,-485.2 373,4 -4,4"/>
<text text-anchor="middle" x="72.4936" y="-7.3" font-family="Helvetica,sans-Serif" font-size="11.00" fill="#000000">Generated by SchemaSpy</text>
<!-- blueray -->
<g id="node1" class="node">
<title>blueray</title>
<g id="a_node1"><a xlink:href="../../tables/blueray.html" xlink:title="blueray" target="_top">
<polygon fill="#ffffff" stroke="transparent" points="251.5,-394.2 251.5,-477.2 340.5,-477.2 340.5,-394.2 251.5,-394.2"/>
<polygon fill="#f5f5f5" stroke="transparent" points="252,-453.7 252,-476.7 341,-476.7 341,-453.7 252,-453.7"/>
<polygon fill="none" stroke="#000000" points="252,-453.7 252,-476.7 341,-476.7 341,-453.7 252,-453.7"/>
<text text-anchor="start" x="257" y="-462.3" font-family="Helvetica,sans-Serif" font-weight="bold" font-size="11.00" fill="#000000">blueray</text>
<text text-anchor="start" x="306.0437" y="-461.8" font-family="Helvetica,sans-Serif" font-size="11.00" fill="#000000">[table]</text>
<polygon fill="none" stroke="#000000" points="252,-431.7 252,-453.7 341,-453.7 341,-431.7 252,-431.7"/>
<image xlink:href="../../images/primaryKeys.png" width="11px" height="12px" preserveAspectRatio="xMinYMin meet" x="257" y="-448.7"/>
<text text-anchor="start" x="272" y="-438.8" font-family="Helvetica,sans-Serif" font-size="11.00" fill="#000000">id</text>
<polygon fill="none" stroke="#000000" points="252,-412.7 252,-431.7 341,-431.7 341,-412.7 252,-412.7"/>
<text text-anchor="start" x="255" y="-418.8" font-family="Helvetica,sans-Serif" font-size="11.00" fill="#000000">...</text>
<polygon fill="#ffffff" stroke="transparent" points="252,-393.7 252,-412.7 282,-412.7 282,-393.7 252,-393.7"/>
<polygon fill="none" stroke="#000000" points="252,-393.7 252,-412.7 282,-412.7 282,-393.7 252,-393.7"/>
<text text-anchor="start" x="255" y="-399.8" font-family="Helvetica,sans-Serif" font-size="11.00" fill="#000000">&lt; 1</text>
<polygon fill="#ffffff" stroke="transparent" points="282,-393.7 282,-412.7 324,-412.7 324,-393.7 282,-393.7"/>
<polygon fill="none" stroke="#000000" points="282,-393.7 282,-412.7 324,-412.7 324,-393.7 282,-393.7"/>
<text text-anchor="start" x="288.6105" y="-399.8" font-family="Helvetica,sans-Serif" font-size="11.00" fill="#000000">0 rows</text>
<polygon fill="#ffffff" stroke="transparent" points="324,-393.7 324,-412.7 341,-412.7 341,-393.7 324,-393.7"/>
<polygon fill="none" stroke="#000000" points="324,-393.7 324,-412.7 341,-412.7 341,-393.7 324,-393.7"/>
<text text-anchor="start" x="331.8862" y="-399.8" font-family="Helvetica,sans-Serif" font-size="11.00" fill="#000000"> &#160;</text>
</a>
</g>
</g>
<!-- media -->
<g id="node2" class="node">
<title>media</title>
<g id="a_node2"><a xlink:href="../../tables/media.html" xlink:title="media" target="_top">
<polygon fill="#ffffff" stroke="transparent" points="8,-111.7 8,-289.7 182,-289.7 182,-111.7 8,-111.7"/>
<polygon fill="#f5f5f5" stroke="transparent" points="10,-264.7 10,-287.7 180,-287.7 180,-264.7 10,-264.7"/>
<polygon fill="none" stroke="#000000" points="10,-264.7 10,-287.7 180,-287.7 180,-264.7 10,-264.7"/>
<text text-anchor="start" x="15" y="-273.3" font-family="Helvetica,sans-Serif" font-weight="bold" font-size="11.00" fill="#000000">media</text>
<text text-anchor="start" x="145.0437" y="-272.8" font-family="Helvetica,sans-Serif" font-size="11.00" fill="#000000">[table]</text>
<polygon fill="none" stroke="#000000" points="10,-242.7 10,-264.7 113,-264.7 113,-242.7 10,-242.7"/>
<image xlink:href="../../images/primaryKeys.png" width="11px" height="12px" preserveAspectRatio="xMinYMin meet" x="15" y="-259.7"/>
<text text-anchor="start" x="30" y="-249.8" font-family="Helvetica,sans-Serif" font-size="11.00" fill="#000000">id</text>
<polygon fill="none" stroke="#000000" points="113,-242.7 113,-264.7 180,-264.7 180,-242.7 113,-242.7"/>
<text text-anchor="start" x="116" y="-250.4" font-family="Helvetica,sans-Serif" font-size="11.00" fill="#000000">int[10]</text>
<polygon fill="none" stroke="#000000" points="10,-220.7 10,-242.7 113,-242.7 113,-220.7 10,-220.7"/>
<text text-anchor="start" x="30" y="-227.8" font-family="Helvetica,sans-Serif" font-size="11.00" fill="#000000">titre</text>
<polygon fill="none" stroke="#000000" points="113,-220.7 113,-242.7 180,-242.7 180,-220.7 113,-220.7"/>
<text text-anchor="start" x="115.9365" y="-228.4" font-family="Helvetica,sans-Serif" font-size="11.00" fill="#000000">varchar[255]</text>
<polygon fill="none" stroke="#000000" points="10,-198.7 10,-220.7 113,-220.7 113,-198.7 10,-198.7"/>
<text text-anchor="start" x="30" y="-205.8" font-family="Helvetica,sans-Serif" font-size="11.00" fill="#000000">dateCreation</text>
<polygon fill="none" stroke="#000000" points="113,-198.7 113,-220.7 180,-220.7 180,-198.7 113,-198.7"/>
<text text-anchor="start" x="116" y="-206.4" font-family="Helvetica,sans-Serif" font-size="11.00" fill="#000000">datetime[19]</text>
<polygon fill="none" stroke="#000000" points="10,-176.7 10,-198.7 113,-198.7 113,-176.7 10,-176.7"/>
<text text-anchor="start" x="30" y="-183.8" font-family="Helvetica,sans-Serif" font-size="11.00" fill="#000000">dureeEmprunt</text>
<polygon fill="none" stroke="#000000" points="113,-176.7 113,-198.7 180,-198.7 180,-176.7 113,-176.7"/>
<text text-anchor="start" x="116" y="-184.4" font-family="Helvetica,sans-Serif" font-size="11.00" fill="#000000">int[10]</text>
<polygon fill="none" stroke="#000000" points="10,-154.7 10,-176.7 113,-176.7 113,-154.7 10,-154.7"/>
<text text-anchor="start" x="30" y="-161.8" font-family="Helvetica,sans-Serif" font-size="11.00" fill="#000000">type</text>
<polygon fill="none" stroke="#000000" points="113,-154.7 113,-176.7 180,-176.7 180,-154.7 113,-154.7"/>
<text text-anchor="start" x="115.9365" y="-162.4" font-family="Helvetica,sans-Serif" font-size="11.00" fill="#000000">varchar[255]</text>
<polygon fill="none" stroke="#000000" points="10,-132.7 10,-154.7 113,-154.7 113,-132.7 10,-132.7"/>
<text text-anchor="start" x="30" y="-139.8" font-family="Helvetica,sans-Serif" font-size="11.00" fill="#000000">statut</text>
<polygon fill="none" stroke="#000000" points="113,-132.7 113,-154.7 180,-154.7 180,-132.7 113,-132.7"/>
<text text-anchor="start" x="115.9365" y="-140.4" font-family="Helvetica,sans-Serif" font-size="11.00" fill="#000000">varchar[255]</text>
<polygon fill="#ffffff" stroke="transparent" points="10,-113.7 10,-132.7 53,-132.7 53,-113.7 10,-113.7"/>
<polygon fill="none" stroke="#000000" points="10,-113.7 10,-132.7 53,-132.7 53,-113.7 10,-113.7"/>
<text text-anchor="start" x="13" y="-119.8" font-family="Helvetica,sans-Serif" font-size="11.00" fill="#000000">&lt; 0</text>
<polygon fill="#ffffff" stroke="transparent" points="53,-113.7 53,-132.7 113,-132.7 113,-113.7 53,-113.7"/>
<polygon fill="none" stroke="#000000" points="53,-113.7 53,-132.7 113,-132.7 113,-113.7 53,-113.7"/>
<text text-anchor="start" x="77.6105" y="-119.8" font-family="Helvetica,sans-Serif" font-size="11.00" fill="#000000">3 rows</text>
<polygon fill="#ffffff" stroke="transparent" points="113,-113.7 113,-132.7 180,-132.7 180,-113.7 113,-113.7"/>
<polygon fill="none" stroke="#000000" points="113,-113.7 113,-132.7 180,-132.7 180,-113.7 113,-113.7"/>
<text text-anchor="start" x="161.4053" y="-119.8" font-family="Helvetica,sans-Serif" font-size="11.00" fill="#000000">4 &gt;</text>
<polygon fill="none" stroke="#000000" stroke-width="2" points="9,-112.7 9,-288.7 181,-288.7 181,-112.7 9,-112.7"/>
</a>
</g>
</g>
<!-- blueray&#45;&gt;media -->
<g id="edge1" class="edge">
<title>blueray:w&#45;&gt;media:e</title>
<path fill="none" stroke="#000000" d="M241.4763,-441.6831C171.0084,-426.8068 266.0264,-253.7 180,-253.7"/>
<polygon fill="#000000" stroke="#000000" points="251.5885,-438.6416 250.819,-446.6045 249.2264,-446.4506 249.9959,-438.4877 251.5885,-438.6416"/>
<polyline fill="none" stroke="#000000" points="252,-442.7 248.0185,-442.3153 "/>
<ellipse fill="none" stroke="#000000" cx="244.8334" cy="-442.0075" rx="3.2" ry="3.2"/>
</g>
<!-- emprunt -->
<g id="node3" class="node">
<title>emprunt</title>
<g id="a_node3"><a xlink:href="../../tables/emprunt.html" xlink:title="emprunt" target="_top">
<polygon fill="#ffffff" stroke="transparent" points="231,-246.2 231,-373.2 361,-373.2 361,-246.2 231,-246.2"/>
<polygon fill="#f5f5f5" stroke="transparent" points="231,-349.7 231,-372.7 361,-372.7 361,-349.7 231,-349.7"/>
<polygon fill="none" stroke="#000000" points="231,-349.7 231,-372.7 361,-372.7 361,-349.7 231,-349.7"/>
<text text-anchor="start" x="236" y="-358.3" font-family="Helvetica,sans-Serif" font-weight="bold" font-size="11.00" fill="#000000">emprunt</text>
<text text-anchor="start" x="326.0437" y="-357.8" font-family="Helvetica,sans-Serif" font-size="11.00" fill="#000000">[table]</text>
<polygon fill="#ffffff" stroke="transparent" points="231,-327.7 231,-349.7 361,-349.7 361,-327.7 231,-327.7"/>
<polygon fill="none" stroke="#000000" points="231,-327.7 231,-349.7 361,-349.7 361,-327.7 231,-327.7"/>
<image xlink:href="../../images/foreignKeys.png" width="11px" height="12px" preserveAspectRatio="xMinYMin meet" x="236" y="-344.7"/>
<text text-anchor="start" x="251" y="-334.8" font-family="Helvetica,sans-Serif" font-size="11.00" fill="#000000">adherent_id</text>
<polygon fill="#ffffff" stroke="transparent" points="231,-305.7 231,-327.7 361,-327.7 361,-305.7 231,-305.7"/>
<polygon fill="none" stroke="#000000" points="231,-305.7 231,-327.7 361,-327.7 361,-305.7 231,-305.7"/>
<image xlink:href="../../images/foreignKeys.png" width="11px" height="12px" preserveAspectRatio="xMinYMin meet" x="236" y="-322.7"/>
<text text-anchor="start" x="251" y="-312.8" font-family="Helvetica,sans-Serif" font-size="11.00" fill="#000000">media_id</text>
<polygon fill="none" stroke="#000000" points="231,-283.7 231,-305.7 361,-305.7 361,-283.7 231,-283.7"/>
<image xlink:href="../../images/primaryKeys.png" width="11px" height="12px" preserveAspectRatio="xMinYMin meet" x="236" y="-300.7"/>
<text text-anchor="start" x="251" y="-290.8" font-family="Helvetica,sans-Serif" font-size="11.00" fill="#000000">numeroEmprunt</text>
<polygon fill="none" stroke="#000000" points="231,-264.7 231,-283.7 361,-283.7 361,-264.7 231,-264.7"/>
<text text-anchor="start" x="234" y="-270.8" font-family="Helvetica,sans-Serif" font-size="11.00" fill="#000000">...</text>
<polygon fill="#ffffff" stroke="transparent" points="231,-245.7 231,-264.7 284,-264.7 284,-245.7 231,-245.7"/>
<polygon fill="none" stroke="#000000" points="231,-245.7 231,-264.7 284,-264.7 284,-245.7 231,-245.7"/>
<text text-anchor="start" x="234" y="-251.8" font-family="Helvetica,sans-Serif" font-size="11.00" fill="#000000">&lt; 2</text>
<polygon fill="#ffffff" stroke="transparent" points="284,-245.7 284,-264.7 332,-264.7 332,-245.7 284,-245.7"/>
<polygon fill="none" stroke="#000000" points="284,-245.7 284,-264.7 332,-264.7 332,-245.7 284,-245.7"/>
<text text-anchor="start" x="302.1105" y="-251.8" font-family="Helvetica,sans-Serif" font-size="11.00" fill="#000000">1 row</text>
<polygon fill="#ffffff" stroke="transparent" points="332,-245.7 332,-264.7 361,-264.7 361,-245.7 332,-245.7"/>
<polygon fill="none" stroke="#000000" points="332,-245.7 332,-264.7 361,-264.7 361,-245.7 332,-245.7"/>
<text text-anchor="start" x="351.8862" y="-251.8" font-family="Helvetica,sans-Serif" font-size="11.00" fill="#000000"> &#160;</text>
</a>
</g>
</g>
<!-- emprunt&#45;&gt;media -->
<g id="edge2" class="edge">
<title>emprunt:w&#45;&gt;media:e</title>
<path fill="none" stroke="#000000" d="M216.9033,-311.7565C200.525,-296.9048 209.8329,-253.7 180,-253.7"/>
<polygon fill="#000000" stroke="#000000" points="223.4507,-314.0526 229.8087,-320.0972 227.2254,-315.3763 231,-316.7 231,-316.7 231,-316.7 227.2254,-315.3763 232.1913,-313.3028 223.4507,-314.0526 223.4507,-314.0526"/>
<ellipse fill="none" stroke="#000000" cx="220.431" cy="-312.9936" rx="3.2" ry="3.2"/>
</g>
<!-- livre -->
<g id="node4" class="node">
<title>livre</title>
<g id="a_node4"><a xlink:href="../../tables/livre.html" xlink:title="livre" target="_top">
<polygon fill="#ffffff" stroke="transparent" points="260.5,-142.2 260.5,-225.2 331.5,-225.2 331.5,-142.2 260.5,-142.2"/>
<polygon fill="#f5f5f5" stroke="transparent" points="261,-201.7 261,-224.7 332,-224.7 332,-201.7 261,-201.7"/>
<polygon fill="none" stroke="#000000" points="261,-201.7 261,-224.7 332,-224.7 332,-201.7 261,-201.7"/>
<text text-anchor="start" x="265.9207" y="-210.3" font-family="Helvetica,sans-Serif" font-weight="bold" font-size="11.00" fill="#000000">livre</text>
<text text-anchor="start" x="297.0437" y="-209.8" font-family="Helvetica,sans-Serif" font-size="11.00" fill="#000000">[table]</text>
<polygon fill="none" stroke="#000000" points="261,-179.7 261,-201.7 332,-201.7 332,-179.7 261,-179.7"/>
<image xlink:href="../../images/primaryKeys.png" width="11px" height="12px" preserveAspectRatio="xMinYMin meet" x="266" y="-196.7"/>
<text text-anchor="start" x="281" y="-186.8" font-family="Helvetica,sans-Serif" font-size="11.00" fill="#000000">id</text>
<polygon fill="none" stroke="#000000" points="261,-160.7 261,-179.7 332,-179.7 332,-160.7 261,-160.7"/>
<text text-anchor="start" x="264" y="-166.8" font-family="Helvetica,sans-Serif" font-size="11.00" fill="#000000">...</text>
<polygon fill="#ffffff" stroke="transparent" points="261,-141.7 261,-160.7 282,-160.7 282,-141.7 261,-141.7"/>
<polygon fill="none" stroke="#000000" points="261,-141.7 261,-160.7 282,-160.7 282,-141.7 261,-141.7"/>
<text text-anchor="start" x="263.7027" y="-147.8" font-family="Helvetica,sans-Serif" font-size="11.00" fill="#000000">&lt; 1</text>
<polygon fill="#ffffff" stroke="transparent" points="282,-141.7 282,-160.7 320,-160.7 320,-141.7 282,-141.7"/>
<polygon fill="none" stroke="#000000" points="282,-141.7 282,-160.7 320,-160.7 320,-141.7 282,-141.7"/>
<text text-anchor="start" x="284.8053" y="-147.8" font-family="Helvetica,sans-Serif" font-size="11.00" fill="#000000">0 rows</text>
<polygon fill="#ffffff" stroke="transparent" points="320,-141.7 320,-160.7 332,-160.7 332,-141.7 320,-141.7"/>
<polygon fill="none" stroke="#000000" points="320,-141.7 320,-160.7 332,-160.7 332,-141.7 320,-141.7"/>
<text text-anchor="start" x="322.9431" y="-147.8" font-family="Helvetica,sans-Serif" font-size="11.00" fill="#000000"> &#160;</text>
</a>
</g>
</g>
<!-- livre&#45;&gt;media -->
<g id="edge3" class="edge">
<title>livre:w&#45;&gt;media:e</title>
<path fill="none" stroke="#000000" d="M250.4078,-192.0158C216.7363,-201.0629 221.6877,-253.7 180,-253.7"/>
<polygon fill="#000000" stroke="#000000" points="259.7129,-186.8291 260.6993,-194.7681 259.1115,-194.9654 258.1252,-187.0264 259.7129,-186.8291"/>
<polyline fill="none" stroke="#000000" points="261,-190.7 257.0305,-191.1932 "/>
<ellipse fill="none" stroke="#000000" cx="253.8549" cy="-191.5877" rx="3.2" ry="3.2"/>
</g>
<!-- magazine -->
<g id="node5" class="node">
<title>magazine</title>
<g id="a_node5"><a xlink:href="../../tables/magazine.html" xlink:title="magazine" target="_top">
<polygon fill="#ffffff" stroke="transparent" points="241,-38.2 241,-121.2 351,-121.2 351,-38.2 241,-38.2"/>
<polygon fill="#f5f5f5" stroke="transparent" points="241,-97.7 241,-120.7 351,-120.7 351,-97.7 241,-97.7"/>
<polygon fill="none" stroke="#000000" points="241,-97.7 241,-120.7 351,-120.7 351,-97.7 241,-97.7"/>
<text text-anchor="start" x="246" y="-106.3" font-family="Helvetica,sans-Serif" font-weight="bold" font-size="11.00" fill="#000000">magazine</text>
<text text-anchor="start" x="316.0437" y="-105.8" font-family="Helvetica,sans-Serif" font-size="11.00" fill="#000000">[table]</text>
<polygon fill="none" stroke="#000000" points="241,-75.7 241,-97.7 351,-97.7 351,-75.7 241,-75.7"/>
<image xlink:href="../../images/primaryKeys.png" width="11px" height="12px" preserveAspectRatio="xMinYMin meet" x="246" y="-92.7"/>
<text text-anchor="start" x="261" y="-82.8" font-family="Helvetica,sans-Serif" font-size="11.00" fill="#000000">id</text>
<polygon fill="none" stroke="#000000" points="241,-56.7 241,-75.7 351,-75.7 351,-56.7 241,-56.7"/>
<text text-anchor="start" x="244" y="-62.8" font-family="Helvetica,sans-Serif" font-size="11.00" fill="#000000">...</text>
<polygon fill="#ffffff" stroke="transparent" points="241,-37.7 241,-56.7 281,-56.7 281,-37.7 241,-37.7"/>
<polygon fill="none" stroke="#000000" points="241,-37.7 241,-56.7 281,-56.7 281,-37.7 241,-37.7"/>
<text text-anchor="start" x="244" y="-43.8" font-family="Helvetica,sans-Serif" font-size="11.00" fill="#000000">&lt; 1</text>
<polygon fill="#ffffff" stroke="transparent" points="281,-37.7 281,-56.7 329,-56.7 329,-37.7 281,-37.7"/>
<polygon fill="none" stroke="#000000" points="281,-37.7 281,-56.7 329,-56.7 329,-37.7 281,-37.7"/>
<text text-anchor="start" x="293.6105" y="-43.8" font-family="Helvetica,sans-Serif" font-size="11.00" fill="#000000">2 rows</text>
<polygon fill="#ffffff" stroke="transparent" points="329,-37.7 329,-56.7 351,-56.7 351,-37.7 329,-37.7"/>
<polygon fill="none" stroke="#000000" points="329,-37.7 329,-56.7 351,-56.7 351,-37.7 329,-37.7"/>
<text text-anchor="start" x="341.8862" y="-43.8" font-family="Helvetica,sans-Serif" font-size="11.00" fill="#000000"> &#160;</text>
</a>
</g>
</g>
<!-- magazine&#45;&gt;media -->
<g id="edge4" class="edge">
<title>magazine:w&#45;&gt;media:e</title>
<path fill="none" stroke="#000000" d="M230.6433,-87.8556C171.0379,-102.6104 255.1603,-253.7 180,-253.7"/>
<polygon fill="#000000" stroke="#000000" points="239.7613,-82.8134 240.6485,-90.7641 239.0584,-90.9415 238.1712,-82.9908 239.7613,-82.8134"/>
<polyline fill="none" stroke="#000000" points="241,-86.7 237.0247,-87.1436 "/>
<ellipse fill="none" stroke="#000000" cx="233.8444" cy="-87.4985" rx="3.2" ry="3.2"/>
</g>
</g>
</svg>
