<?xml version="1.0" encoding="UTF-8" standalone="no"?>
<!DOCTYPE svg PUBLIC "-//W3C//DTD SVG 1.1//EN"
 "http://www.w3.org/Graphics/SVG/1.1/DTD/svg11.dtd">
<!-- Generated by graphviz version 2.40.1 (20161225.0304)
 -->
<!-- Title: largeRelationshipsDiagram Pages: 1 -->
<svg width="320pt" height="677pt"
 viewBox="0.00 0.00 320.00 677.20" xmlns="http://www.w3.org/2000/svg" xmlns:xlink="http://www.w3.org/1999/xlink">
<g id="graph0" class="graph" transform="scale(1 1) rotate(0) translate(4 673.2)">
<title>largeRelationshipsDiagram</title>
<polygon fill="#ffffff" stroke="transparent" points="-4,4 -4,-673.2 316,-673.2 316,4 -4,4"/>
<text text-anchor="middle" x="72.4936" y="-7.3" font-family="Helvetica,sans-Serif" font-size="11.00" fill="#000000">Generated by SchemaSpy</text>
<!-- emprunt -->
<g id="node1" class="node">
<title>emprunt</title>
<g id="a_node1"><a xlink:href="../../tables/emprunt.html" xlink:title="emprunt" target="_top">
<polygon fill="#ffffff" stroke="transparent" points="174,-491.2 174,-665.2 304,-665.2 304,-491.2 174,-491.2"/>
<polygon fill="#f5f5f5" stroke="transparent" points="174,-642.2 174,-665.2 304,-665.2 304,-642.2 174,-642.2"/>
<polygon fill="none" stroke="#000000" points="174,-642.2 174,-665.2 304,-665.2 304,-642.2 174,-642.2"/>
<text text-anchor="start" x="179" y="-650.8" font-family="Helvetica,sans-Serif" font-weight="bold" font-size="11.00" fill="#000000">emprunt</text>
<text text-anchor="start" x="269.0437" y="-650.3" font-family="Helvetica,sans-Serif" font-size="11.00" fill="#000000">[table]</text>
<polygon fill="#ffffff" stroke="transparent" points="174,-620.2 174,-642.2 304,-642.2 304,-620.2 174,-620.2"/>
<polygon fill="none" stroke="#000000" points="174,-620.2 174,-642.2 304,-642.2 304,-620.2 174,-620.2"/>
<image xlink:href="../../images/foreignKeys.png" width="11px" height="12px" preserveAspectRatio="xMinYMin meet" x="179" y="-637.2"/>
<text text-anchor="start" x="194" y="-627.3" font-family="Helvetica,sans-Serif" font-size="11.00" fill="#000000">adherent_id</text>
<polygon fill="#ffffff" stroke="transparent" points="174,-598.2 174,-620.2 304,-620.2 304,-598.2 174,-598.2"/>
<polygon fill="none" stroke="#000000" points="174,-598.2 174,-620.2 304,-620.2 304,-598.2 174,-598.2"/>
<image xlink:href="../../images/foreignKeys.png" width="11px" height="12px" preserveAspectRatio="xMinYMin meet" x="179" y="-615.2"/>
<text text-anchor="start" x="194" y="-605.3" font-family="Helvetica,sans-Serif" font-size="11.00" fill="#000000">media_id</text>
<polygon fill="none" stroke="#000000" points="174,-576.2 174,-598.2 304,-598.2 304,-576.2 174,-576.2"/>
<image xlink:href="../../images/primaryKeys.png" width="11px" height="12px" preserveAspectRatio="xMinYMin meet" x="179" y="-593.2"/>
<text text-anchor="start" x="194" y="-583.3" font-family="Helvetica,sans-Serif" font-size="11.00" fill="#000000">numeroEmprunt</text>
<polygon fill="none" stroke="#000000" points="174,-554.2 174,-576.2 304,-576.2 304,-554.2 174,-554.2"/>
<text text-anchor="start" x="194" y="-561.3" font-family="Helvetica,sans-Serif" font-size="11.00" fill="#000000">dateEmprunt</text>
<polygon fill="none" stroke="#000000" points="174,-532.2 174,-554.2 304,-554.2 304,-532.2 174,-532.2"/>
<text text-anchor="start" x="194" y="-539.3" font-family="Helvetica,sans-Serif" font-size="11.00" fill="#000000">dateRetourEstimee</text>
<polygon fill="none" stroke="#000000" points="174,-510.2 174,-532.2 304,-532.2 304,-510.2 174,-510.2"/>
<text text-anchor="start" x="194" y="-517.3" font-family="Helvetica,sans-Serif" font-size="11.00" fill="#000000">dateRetour</text>
<polygon fill="#ffffff" stroke="transparent" points="174,-491.2 174,-510.2 227,-510.2 227,-491.2 174,-491.2"/>
<polygon fill="none" stroke="#000000" points="174,-491.2 174,-510.2 227,-510.2 227,-491.2 174,-491.2"/>
<text text-anchor="start" x="177" y="-497.3" font-family="Helvetica,sans-Serif" font-size="11.00" fill="#000000">&lt; 2</text>
<polygon fill="#ffffff" stroke="transparent" points="227,-491.2 227,-510.2 275,-510.2 275,-491.2 227,-491.2"/>
<polygon fill="none" stroke="#000000" points="227,-491.2 227,-510.2 275,-510.2 275,-491.2 227,-491.2"/>
<text text-anchor="start" x="245.1105" y="-497.3" font-family="Helvetica,sans-Serif" font-size="11.00" fill="#000000">1 row</text>
<polygon fill="#ffffff" stroke="transparent" points="275,-491.2 275,-510.2 304,-510.2 304,-491.2 275,-491.2"/>
<polygon fill="none" stroke="#000000" points="275,-491.2 275,-510.2 304,-510.2 304,-491.2 275,-491.2"/>
<text text-anchor="start" x="294.8862" y="-497.3" font-family="Helvetica,sans-Serif" font-size="11.00" fill="#000000"> &#160;</text>
</a>
</g>
</g>
<!-- media -->
<g id="node3" class="node">
<title>media</title>
<g id="a_node3"><a xlink:href="../../tables/media.html" xlink:title="media" target="_top">
<polygon fill="#ffffff" stroke="transparent" points="15,-232.2 15,-406.2 118,-406.2 118,-232.2 15,-232.2"/>
<polygon fill="#f5f5f5" stroke="transparent" points="15.5,-383.2 15.5,-406.2 118.5,-406.2 118.5,-383.2 15.5,-383.2"/>
<polygon fill="none" stroke="#000000" points="15.5,-383.2 15.5,-406.2 118.5,-406.2 118.5,-383.2 15.5,-383.2"/>
<text text-anchor="start" x="20.5" y="-391.8" font-family="Helvetica,sans-Serif" font-weight="bold" font-size="11.00" fill="#000000">media</text>
<text text-anchor="start" x="83.5437" y="-391.3" font-family="Helvetica,sans-Serif" font-size="11.00" fill="#000000">[table]</text>
<polygon fill="none" stroke="#000000" points="15.5,-361.2 15.5,-383.2 118.5,-383.2 118.5,-361.2 15.5,-361.2"/>
<image xlink:href="../../images/primaryKeys.png" width="11px" height="12px" preserveAspectRatio="xMinYMin meet" x="20.5" y="-378.2"/>
<text text-anchor="start" x="35.5" y="-368.3" font-family="Helvetica,sans-Serif" font-size="11.00" fill="#000000">id</text>
<polygon fill="none" stroke="#000000" points="15.5,-339.2 15.5,-361.2 118.5,-361.2 118.5,-339.2 15.5,-339.2"/>
<text text-anchor="start" x="35.5" y="-346.3" font-family="Helvetica,sans-Serif" font-size="11.00" fill="#000000">titre</text>
<polygon fill="none" stroke="#000000" points="15.5,-317.2 15.5,-339.2 118.5,-339.2 118.5,-317.2 15.5,-317.2"/>
<text text-anchor="start" x="35.5" y="-324.3" font-family="Helvetica,sans-Serif" font-size="11.00" fill="#000000">dateCreation</text>
<polygon fill="none" stroke="#000000" points="15.5,-295.2 15.5,-317.2 118.5,-317.2 118.5,-295.2 15.5,-295.2"/>
<text text-anchor="start" x="35.5" y="-302.3" font-family="Helvetica,sans-Serif" font-size="11.00" fill="#000000">dureeEmprunt</text>
<polygon fill="none" stroke="#000000" points="15.5,-273.2 15.5,-295.2 118.5,-295.2 118.5,-273.2 15.5,-273.2"/>
<text text-anchor="start" x="35.5" y="-280.3" font-family="Helvetica,sans-Serif" font-size="11.00" fill="#000000">type</text>
<polygon fill="none" stroke="#000000" points="15.5,-251.2 15.5,-273.2 118.5,-273.2 118.5,-251.2 15.5,-251.2"/>
<text text-anchor="start" x="35.5" y="-258.3" font-family="Helvetica,sans-Serif" font-size="11.00" fill="#000000">statut</text>
<polygon fill="#ffffff" stroke="transparent" points="15.5,-232.2 15.5,-251.2 43.5,-251.2 43.5,-232.2 15.5,-232.2"/>
<polygon fill="none" stroke="#000000" points="15.5,-232.2 15.5,-251.2 43.5,-251.2 43.5,-232.2 15.5,-232.2"/>
<text text-anchor="start" x="18.5" y="-238.3" font-family="Helvetica,sans-Serif" font-size="11.00" fill="#000000"> &#160;</text>
<polygon fill="#ffffff" stroke="transparent" points="43.5,-232.2 43.5,-251.2 89.5,-251.2 89.5,-232.2 43.5,-232.2"/>
<polygon fill="none" stroke="#000000" points="43.5,-232.2 43.5,-251.2 89.5,-251.2 89.5,-232.2 43.5,-232.2"/>
<text text-anchor="start" x="54.1105" y="-238.3" font-family="Helvetica,sans-Serif" font-size="11.00" fill="#000000">3 rows</text>
<polygon fill="#ffffff" stroke="transparent" points="89.5,-232.2 89.5,-251.2 118.5,-251.2 118.5,-232.2 89.5,-232.2"/>
<polygon fill="none" stroke="#000000" points="89.5,-232.2 89.5,-251.2 118.5,-251.2 118.5,-232.2 89.5,-232.2"/>
<text text-anchor="start" x="99.9053" y="-238.3" font-family="Helvetica,sans-Serif" font-size="11.00" fill="#000000">4 &gt;</text>
</a>
</g>
</g>
<!-- emprunt&#45;&gt;media -->
<g id="edge3" class="edge">
<title>emprunt:w&#45;&gt;media:e</title>
<path fill="none" stroke="#000000" d="M159.53,-607.4286C81.4612,-585.7408 221.1893,-372.2 118.5,-372.2"/>
<polygon fill="#000000" stroke="#000000" points="166.0593,-608.2279 173.5625,-612.7733 170.0296,-608.7139 174,-609.2 174,-609.2 174,-609.2 170.0296,-608.7139 174.4375,-605.6267 166.0593,-608.2279 166.0593,-608.2279"/>
<ellipse fill="none" stroke="#000000" cx="162.883" cy="-607.839" rx="3.2" ry="3.2"/>
</g>
<!-- adherent -->
<g id="node5" class="node">
<title>adherent</title>
<g id="a_node5"><a xlink:href="../../tables/adherent.html" xlink:title="adherent" target="_top">
<polygon fill="#ffffff" stroke="transparent" points="8,-491.2 8,-665.2 125,-665.2 125,-491.2 8,-491.2"/>
<polygon fill="#f5f5f5" stroke="transparent" points="8.5,-642.2 8.5,-665.2 125.5,-665.2 125.5,-642.2 8.5,-642.2"/>
<polygon fill="none" stroke="#000000" points="8.5,-642.2 8.5,-665.2 125.5,-665.2 125.5,-642.2 8.5,-642.2"/>
<text text-anchor="start" x="13.5" y="-650.8" font-family="Helvetica,sans-Serif" font-weight="bold" font-size="11.00" fill="#000000">adherent</text>
<text text-anchor="start" x="90.5437" y="-650.3" font-family="Helvetica,sans-Serif" font-size="11.00" fill="#000000">[table]</text>
<polygon fill="none" stroke="#000000" points="8.5,-620.2 8.5,-642.2 125.5,-642.2 125.5,-620.2 8.5,-620.2"/>
<image xlink:href="../../images/primaryKeys.png" width="11px" height="12px" preserveAspectRatio="xMinYMin meet" x="13.5" y="-637.2"/>
<text text-anchor="start" x="28.5" y="-627.3" font-family="Helvetica,sans-Serif" font-size="11.00" fill="#000000">id</text>
<polygon fill="none" stroke="#000000" points="8.5,-598.2 8.5,-620.2 125.5,-620.2 125.5,-598.2 8.5,-598.2"/>
<text text-anchor="start" x="28.5" y="-605.3" font-family="Helvetica,sans-Serif" font-size="11.00" fill="#000000">numeroAdherent</text>
<polygon fill="none" stroke="#000000" points="8.5,-576.2 8.5,-598.2 125.5,-598.2 125.5,-576.2 8.5,-576.2"/>
<text text-anchor="start" x="28.5" y="-583.3" font-family="Helvetica,sans-Serif" font-size="11.00" fill="#000000">prenomAdherent</text>
<polygon fill="none" stroke="#000000" points="8.5,-554.2 8.5,-576.2 125.5,-576.2 125.5,-554.2 8.5,-554.2"/>
<text text-anchor="start" x="28.5" y="-561.3" font-family="Helvetica,sans-Serif" font-size="11.00" fill="#000000">nomAdherent</text>
<polygon fill="none" stroke="#000000" points="8.5,-532.2 8.5,-554.2 125.5,-554.2 125.5,-532.2 8.5,-532.2"/>
<text text-anchor="start" x="28.5" y="-539.3" font-family="Helvetica,sans-Serif" font-size="11.00" fill="#000000">mailAdherent</text>
<polygon fill="none" stroke="#000000" points="8.5,-510.2 8.5,-532.2 125.5,-532.2 125.5,-510.2 8.5,-510.2"/>
<text text-anchor="start" x="28.5" y="-517.3" font-family="Helvetica,sans-Serif" font-size="11.00" fill="#000000">dateAdhesion</text>
<polygon fill="#ffffff" stroke="transparent" points="8.5,-491.2 8.5,-510.2 46.5,-510.2 46.5,-491.2 8.5,-491.2"/>
<polygon fill="none" stroke="#000000" points="8.5,-491.2 8.5,-510.2 46.5,-510.2 46.5,-491.2 8.5,-491.2"/>
<text text-anchor="start" x="11.5" y="-497.3" font-family="Helvetica,sans-Serif" font-size="11.00" fill="#000000"> &#160;</text>
<polygon fill="#ffffff" stroke="transparent" points="46.5,-491.2 46.5,-510.2 91.5,-510.2 91.5,-491.2 46.5,-491.2"/>
<polygon fill="none" stroke="#000000" points="46.5,-491.2 46.5,-510.2 91.5,-510.2 91.5,-491.2 46.5,-491.2"/>
<text text-anchor="start" x="61.6105" y="-497.3" font-family="Helvetica,sans-Serif" font-size="11.00" fill="#000000">1 row</text>
<polygon fill="#ffffff" stroke="transparent" points="91.5,-491.2 91.5,-510.2 125.5,-510.2 125.5,-491.2 91.5,-491.2"/>
<polygon fill="none" stroke="#000000" points="91.5,-491.2 91.5,-510.2 125.5,-510.2 125.5,-491.2 91.5,-491.2"/>
<text text-anchor="start" x="106.9053" y="-497.3" font-family="Helvetica,sans-Serif" font-size="11.00" fill="#000000">1 &gt;</text>
</a>
</g>
</g>
<!-- emprunt&#45;&gt;adherent -->
<g id="edge2" class="edge">
<title>emprunt:w&#45;&gt;adherent:e</title>
<path fill="none" stroke="#000000" d="M159.2829,-631.2C148.2886,-631.2 141.1615,-631.2 125.5,-631.2"/>
<polygon fill="#000000" stroke="#000000" points="166,-631.2001 174,-634.8 170,-631.2 174,-631.2 174,-631.2 174,-631.2 170,-631.2 174,-627.6 166,-631.2001 166,-631.2001"/>
<ellipse fill="none" stroke="#000000" cx="162.8" cy="-631.2001" rx="3.2" ry="3.2"/>
</g>
<!-- magazine -->
<g id="node2" class="node">
<title>magazine</title>
<g id="a_node2"><a xlink:href="../../tables/magazine.html" xlink:title="magazine" target="_top">
<polygon fill="#ffffff" stroke="transparent" points="184,-362.2 184,-470.2 294,-470.2 294,-362.2 184,-362.2"/>
<polygon fill="#f5f5f5" stroke="transparent" points="184,-447.2 184,-470.2 294,-470.2 294,-447.2 184,-447.2"/>
<polygon fill="none" stroke="#000000" points="184,-447.2 184,-470.2 294,-470.2 294,-447.2 184,-447.2"/>
<text text-anchor="start" x="189" y="-455.8" font-family="Helvetica,sans-Serif" font-weight="bold" font-size="11.00" fill="#000000">magazine</text>
<text text-anchor="start" x="259.0437" y="-455.3" font-family="Helvetica,sans-Serif" font-size="11.00" fill="#000000">[table]</text>
<polygon fill="none" stroke="#000000" points="184,-425.2 184,-447.2 294,-447.2 294,-425.2 184,-425.2"/>
<image xlink:href="../../images/primaryKeys.png" width="11px" height="12px" preserveAspectRatio="xMinYMin meet" x="189" y="-442.2"/>
<text text-anchor="start" x="204" y="-432.3" font-family="Helvetica,sans-Serif" font-size="11.00" fill="#000000">id</text>
<polygon fill="none" stroke="#000000" points="184,-403.2 184,-425.2 294,-425.2 294,-403.2 184,-403.2"/>
<text text-anchor="start" x="204" y="-410.3" font-family="Helvetica,sans-Serif" font-size="11.00" fill="#000000">numero</text>
<polygon fill="none" stroke="#000000" points="184,-381.2 184,-403.2 294,-403.2 294,-381.2 184,-381.2"/>
<text text-anchor="start" x="204" y="-388.3" font-family="Helvetica,sans-Serif" font-size="11.00" fill="#000000">datePublication</text>
<polygon fill="#ffffff" stroke="transparent" points="184,-362.2 184,-381.2 224,-381.2 224,-362.2 184,-362.2"/>
<polygon fill="none" stroke="#000000" points="184,-362.2 184,-381.2 224,-381.2 224,-362.2 184,-362.2"/>
<text text-anchor="start" x="187" y="-368.3" font-family="Helvetica,sans-Serif" font-size="11.00" fill="#000000">&lt; 1</text>
<polygon fill="#ffffff" stroke="transparent" points="224,-362.2 224,-381.2 272,-381.2 272,-362.2 224,-362.2"/>
<polygon fill="none" stroke="#000000" points="224,-362.2 224,-381.2 272,-381.2 272,-362.2 224,-362.2"/>
<text text-anchor="start" x="236.6105" y="-368.3" font-family="Helvetica,sans-Serif" font-size="11.00" fill="#000000">2 rows</text>
<polygon fill="#ffffff" stroke="transparent" points="272,-362.2 272,-381.2 294,-381.2 294,-362.2 272,-362.2"/>
<polygon fill="none" stroke="#000000" points="272,-362.2 272,-381.2 294,-381.2 294,-362.2 272,-362.2"/>
<text text-anchor="start" x="284.8862" y="-368.3" font-family="Helvetica,sans-Serif" font-size="11.00" fill="#000000"> &#160;</text>
</a>
</g>
</g>
<!-- magazine&#45;&gt;media -->
<g id="edge5" class="edge">
<title>magazine:w&#45;&gt;media:e</title>
<path fill="none" stroke="#000000" d="M173.5899,-434.4882C145.8653,-424.3104 155.226,-372.2 118.5,-372.2"/>
<polygon fill="#000000" stroke="#000000" points="183.8597,-432.1232 182.5615,-440.0172 180.9827,-439.7575 182.2809,-431.8636 183.8597,-432.1232"/>
<polyline fill="none" stroke="#000000" points="184,-436.2 180.053,-435.5509 "/>
<ellipse fill="none" stroke="#000000" cx="176.8954" cy="-435.0317" rx="3.2" ry="3.2"/>
</g>
<!-- blueray -->
<g id="node4" class="node">
<title>blueray</title>
<g id="a_node4"><a xlink:href="../../tables/blueray.html" xlink:title="blueray" target="_top">
<polygon fill="#ffffff" stroke="transparent" points="194.5,-189.2 194.5,-341.2 283.5,-341.2 283.5,-189.2 194.5,-189.2"/>
<polygon fill="#f5f5f5" stroke="transparent" points="195,-318.2 195,-341.2 284,-341.2 284,-318.2 195,-318.2"/>
<polygon fill="none" stroke="#000000" points="195,-318.2 195,-341.2 284,-341.2 284,-318.2 195,-318.2"/>
<text text-anchor="start" x="200" y="-326.8" font-family="Helvetica,sans-Serif" font-weight="bold" font-size="11.00" fill="#000000">blueray</text>
<text text-anchor="start" x="249.0437" y="-326.3" font-family="Helvetica,sans-Serif" font-size="11.00" fill="#000000">[table]</text>
<polygon fill="none" stroke="#000000" points="195,-296.2 195,-318.2 284,-318.2 284,-296.2 195,-296.2"/>
<image xlink:href="../../images/primaryKeys.png" width="11px" height="12px" preserveAspectRatio="xMinYMin meet" x="200" y="-313.2"/>
<text text-anchor="start" x="215" y="-303.3" font-family="Helvetica,sans-Serif" font-size="11.00" fill="#000000">id</text>
<polygon fill="none" stroke="#000000" points="195,-274.2 195,-296.2 284,-296.2 284,-274.2 195,-274.2"/>
<text text-anchor="start" x="215" y="-281.3" font-family="Helvetica,sans-Serif" font-size="11.00" fill="#000000">realisateur</text>
<polygon fill="none" stroke="#000000" points="195,-252.2 195,-274.2 284,-274.2 284,-252.2 195,-252.2"/>
<text text-anchor="start" x="215" y="-259.3" font-family="Helvetica,sans-Serif" font-size="11.00" fill="#000000">dureeMin</text>
<polygon fill="none" stroke="#000000" points="195,-230.2 195,-252.2 284,-252.2 284,-230.2 195,-230.2"/>
<text text-anchor="start" x="215" y="-237.3" font-family="Helvetica,sans-Serif" font-size="11.00" fill="#000000">anneeSortie</text>
<polygon fill="none" stroke="#000000" points="195,-208.2 195,-230.2 284,-230.2 284,-208.2 195,-208.2"/>
<text text-anchor="start" x="215" y="-215.3" font-family="Helvetica,sans-Serif" font-size="11.00" fill="#000000">dateLimite</text>
<polygon fill="#ffffff" stroke="transparent" points="195,-189.2 195,-208.2 225,-208.2 225,-189.2 195,-189.2"/>
<polygon fill="none" stroke="#000000" points="195,-189.2 195,-208.2 225,-208.2 225,-189.2 195,-189.2"/>
<text text-anchor="start" x="198" y="-195.3" font-family="Helvetica,sans-Serif" font-size="11.00" fill="#000000">&lt; 1</text>
<polygon fill="#ffffff" stroke="transparent" points="225,-189.2 225,-208.2 267,-208.2 267,-189.2 225,-189.2"/>
<polygon fill="none" stroke="#000000" points="225,-189.2 225,-208.2 267,-208.2 267,-189.2 225,-189.2"/>
<text text-anchor="start" x="231.6105" y="-195.3" font-family="Helvetica,sans-Serif" font-size="11.00" fill="#000000">0 rows</text>
<polygon fill="#ffffff" stroke="transparent" points="267,-189.2 267,-208.2 284,-208.2 284,-189.2 267,-189.2"/>
<polygon fill="none" stroke="#000000" points="267,-189.2 267,-208.2 284,-208.2 284,-189.2 267,-189.2"/>
<text text-anchor="start" x="274.8862" y="-195.3" font-family="Helvetica,sans-Serif" font-size="11.00" fill="#000000"> &#160;</text>
</a>
</g>
</g>
<!-- blueray&#45;&gt;media -->
<g id="edge1" class="edge">
<title>blueray:w&#45;&gt;media:e</title>
<path fill="none" stroke="#000000" d="M184.2802,-308.6797C152.209,-318.355 159.1073,-372.2 118.5,-372.2"/>
<polygon fill="#000000" stroke="#000000" points="193.6605,-303.347 194.7545,-311.2718 193.1695,-311.4906 192.0755,-303.5658 193.6605,-303.347"/>
<polyline fill="none" stroke="#000000" points="195,-307.2 191.0376,-307.747 "/>
<ellipse fill="none" stroke="#000000" cx="187.8676" cy="-308.1846" rx="3.2" ry="3.2"/>
</g>
<!-- livre -->
<g id="node6" class="node">
<title>livre</title>
<g id="a_node6"><a xlink:href="../../tables/livre.html" xlink:title="livre" target="_top">
<polygon fill="#ffffff" stroke="transparent" points="203.5,-38.2 203.5,-168.2 274.5,-168.2 274.5,-38.2 203.5,-38.2"/>
<polygon fill="#f5f5f5" stroke="transparent" points="204,-145.2 204,-168.2 275,-168.2 275,-145.2 204,-145.2"/>
<polygon fill="none" stroke="#000000" points="204,-145.2 204,-168.2 275,-168.2 275,-145.2 204,-145.2"/>
<text text-anchor="start" x="208.9207" y="-153.8" font-family="Helvetica,sans-Serif" font-weight="bold" font-size="11.00" fill="#000000">livre</text>
<text text-anchor="start" x="240.0437" y="-153.3" font-family="Helvetica,sans-Serif" font-size="11.00" fill="#000000">[table]</text>
<polygon fill="none" stroke="#000000" points="204,-123.2 204,-145.2 275,-145.2 275,-123.2 204,-123.2"/>
<image xlink:href="../../images/primaryKeys.png" width="11px" height="12px" preserveAspectRatio="xMinYMin meet" x="209" y="-140.2"/>
<text text-anchor="start" x="224" y="-130.3" font-family="Helvetica,sans-Serif" font-size="11.00" fill="#000000">id</text>
<polygon fill="none" stroke="#000000" points="204,-101.2 204,-123.2 275,-123.2 275,-101.2 204,-101.2"/>
<text text-anchor="start" x="224" y="-108.3" font-family="Helvetica,sans-Serif" font-size="11.00" fill="#000000">isbn</text>
<polygon fill="none" stroke="#000000" points="204,-79.2 204,-101.2 275,-101.2 275,-79.2 204,-79.2"/>
<text text-anchor="start" x="224" y="-86.3" font-family="Helvetica,sans-Serif" font-size="11.00" fill="#000000">auteur</text>
<polygon fill="none" stroke="#000000" points="204,-57.2 204,-79.2 275,-79.2 275,-57.2 204,-57.2"/>
<text text-anchor="start" x="224" y="-64.3" font-family="Helvetica,sans-Serif" font-size="11.00" fill="#000000">nbPages</text>
<polygon fill="#ffffff" stroke="transparent" points="204,-38.2 204,-57.2 225,-57.2 225,-38.2 204,-38.2"/>
<polygon fill="none" stroke="#000000" points="204,-38.2 204,-57.2 225,-57.2 225,-38.2 204,-38.2"/>
<text text-anchor="start" x="206.7027" y="-44.3" font-family="Helvetica,sans-Serif" font-size="11.00" fill="#000000">&lt; 1</text>
<polygon fill="#ffffff" stroke="transparent" points="225,-38.2 225,-57.2 263,-57.2 263,-38.2 225,-38.2"/>
<polygon fill="none" stroke="#000000" points="225,-38.2 225,-57.2 263,-57.2 263,-38.2 225,-38.2"/>
<text text-anchor="start" x="227.8053" y="-44.3" font-family="Helvetica,sans-Serif" font-size="11.00" fill="#000000">0 rows</text>
<polygon fill="#ffffff" stroke="transparent" points="263,-38.2 263,-57.2 275,-57.2 275,-38.2 263,-38.2"/>
<polygon fill="none" stroke="#000000" points="263,-38.2 263,-57.2 275,-57.2 275,-38.2 263,-38.2"/>
<text text-anchor="start" x="265.9431" y="-44.3" font-family="Helvetica,sans-Serif" font-size="11.00" fill="#000000"> &#160;</text>
</a>
</g>
</g>
<!-- livre&#45;&gt;media -->
<g id="edge4" class="edge">
<title>livre:w&#45;&gt;media:e</title>
<path fill="none" stroke="#000000" d="M193.6183,-134.9697C100.5761,-149.7423 227.1644,-372.2 118.5,-372.2"/>
<polygon fill="#000000" stroke="#000000" points="202.9064,-130.2701 203.498,-138.2482 201.9024,-138.3665 201.3108,-130.3884 202.9064,-130.2701"/>
<polyline fill="none" stroke="#000000" points="204,-134.2 200.0109,-134.4958 "/>
<ellipse fill="none" stroke="#000000" cx="196.8197" cy="-134.7324" rx="3.2" ry="3.2"/>
</g>
</g>
</svg>
