<?xml version="1.0" encoding="UTF-8" standalone="no"?>
<!DOCTYPE svg PUBLIC "-//W3C//DTD SVG 1.1//EN"
 "http://www.w3.org/Graphics/SVG/1.1/DTD/svg11.dtd">
<!-- Generated by graphviz version 2.40.1 (20161225.0304)
 -->
<!-- Title: compactRelationshipsDiagram Pages: 1 -->
<svg width="320pt" height="489pt"
 viewBox="0.00 0.00 320.00 489.20" xmlns="http://www.w3.org/2000/svg" xmlns:xlink="http://www.w3.org/1999/xlink">
<g id="graph0" class="graph" transform="scale(1 1) rotate(0) translate(4 485.2)">
<title>compactRelationshipsDiagram</title>
<polygon fill="#ffffff" stroke="transparent" points="-4,4 -4,-485.2 316,-485.2 316,4 -4,4"/>
<text text-anchor="middle" x="72.4936" y="-7.3" font-family="Helvetica,sans-Serif" font-size="11.00" fill="#000000">Generated by SchemaSpy</text>
<!-- emprunt -->
<g id="node1" class="node">
<title>emprunt</title>
<g id="a_node1"><a xlink:href="../../tables/emprunt.html" xlink:title="emprunt" target="_top">
<polygon fill="#ffffff" stroke="transparent" points="174,-350.2 174,-477.2 304,-477.2 304,-350.2 174,-350.2"/>
<polygon fill="#f5f5f5" stroke="transparent" points="174,-453.7 174,-476.7 304,-476.7 304,-453.7 174,-453.7"/>
<polygon fill="none" stroke="#000000" points="174,-453.7 174,-476.7 304,-476.7 304,-453.7 174,-453.7"/>
<text text-anchor="start" x="179" y="-462.3" font-family="Helvetica,sans-Serif" font-weight="bold" font-size="11.00" fill="#000000">emprunt</text>
<text text-anchor="start" x="269.0437" y="-461.8" font-family="Helvetica,sans-Serif" font-size="11.00" fill="#000000">[table]</text>
<polygon fill="#ffffff" stroke="transparent" points="174,-431.7 174,-453.7 304,-453.7 304,-431.7 174,-431.7"/>
<polygon fill="none" stroke="#000000" points="174,-431.7 174,-453.7 304,-453.7 304,-431.7 174,-431.7"/>
<image xlink:href="../../images/foreignKeys.png" width="11px" height="12px" preserveAspectRatio="xMinYMin meet" x="179" y="-448.7"/>
<text text-anchor="start" x="194" y="-438.8" font-family="Helvetica,sans-Serif" font-size="11.00" fill="#000000">adherent_id</text>
<polygon fill="#ffffff" stroke="transparent" points="174,-409.7 174,-431.7 304,-431.7 304,-409.7 174,-409.7"/>
<polygon fill="none" stroke="#000000" points="174,-409.7 174,-431.7 304,-431.7 304,-409.7 174,-409.7"/>
<image xlink:href="../../images/foreignKeys.png" width="11px" height="12px" preserveAspectRatio="xMinYMin meet" x="179" y="-426.7"/>
<text text-anchor="start" x="194" y="-416.8" font-family="Helvetica,sans-Serif" font-size="11.00" fill="#000000">media_id</text>
<polygon fill="none" stroke="#000000" points="174,-387.7 174,-409.7 304,-409.7 304,-387.7 174,-387.7"/>
<image xlink:href="../../images/primaryKeys.png" width="11px" height="12px" preserveAspectRatio="xMinYMin meet" x="179" y="-404.7"/>
<text text-anchor="start" x="194" y="-394.8" font-family="Helvetica,sans-Serif" font-size="11.00" fill="#000000">numeroEmprunt</text>
<polygon fill="none" stroke="#000000" points="174,-368.7 174,-387.7 304,-387.7 304,-368.7 174,-368.7"/>
<text text-anchor="start" x="177" y="-374.8" font-family="Helvetica,sans-Serif" font-size="11.00" fill="#000000">...</text>
<polygon fill="#ffffff" stroke="transparent" points="174,-349.7 174,-368.7 227,-368.7 227,-349.7 174,-349.7"/>
<polygon fill="none" stroke="#000000" points="174,-349.7 174,-368.7 227,-368.7 227,-349.7 174,-349.7"/>
<text text-anchor="start" x="177" y="-355.8" font-family="Helvetica,sans-Serif" font-size="11.00" fill="#000000">&lt; 2</text>
<polygon fill="#ffffff" stroke="transparent" points="227,-349.7 227,-368.7 275,-368.7 275,-349.7 227,-349.7"/>
<polygon fill="none" stroke="#000000" points="227,-349.7 227,-368.7 275,-368.7 275,-349.7 227,-349.7"/>
<text text-anchor="start" x="245.1105" y="-355.8" font-family="Helvetica,sans-Serif" font-size="11.00" fill="#000000">1 row</text>
<polygon fill="#ffffff" stroke="transparent" points="275,-349.7 275,-368.7 304,-368.7 304,-349.7 275,-349.7"/>
<polygon fill="none" stroke="#000000" points="275,-349.7 275,-368.7 304,-368.7 304,-349.7 275,-349.7"/>
<text text-anchor="start" x="294.8862" y="-355.8" font-family="Helvetica,sans-Serif" font-size="11.00" fill="#000000"> &#160;</text>
</a>
</g>
</g>
<!-- media -->
<g id="node3" class="node">
<title>media</title>
<g id="a_node3"><a xlink:href="../../tables/media.html" xlink:title="media" target="_top">
<polygon fill="#ffffff" stroke="transparent" points="15,-194.2 15,-277.2 118,-277.2 118,-194.2 15,-194.2"/>
<polygon fill="#f5f5f5" stroke="transparent" points="15.5,-253.7 15.5,-276.7 118.5,-276.7 118.5,-253.7 15.5,-253.7"/>
<polygon fill="none" stroke="#000000" points="15.5,-253.7 15.5,-276.7 118.5,-276.7 118.5,-253.7 15.5,-253.7"/>
<text text-anchor="start" x="20.5" y="-262.3" font-family="Helvetica,sans-Serif" font-weight="bold" font-size="11.00" fill="#000000">media</text>
<text text-anchor="start" x="83.5437" y="-261.8" font-family="Helvetica,sans-Serif" font-size="11.00" fill="#000000">[table]</text>
<polygon fill="none" stroke="#000000" points="15.5,-231.7 15.5,-253.7 118.5,-253.7 118.5,-231.7 15.5,-231.7"/>
<image xlink:href="../../images/primaryKeys.png" width="11px" height="12px" preserveAspectRatio="xMinYMin meet" x="20.5" y="-248.7"/>
<text text-anchor="start" x="35.5" y="-238.8" font-family="Helvetica,sans-Serif" font-size="11.00" fill="#000000">id</text>
<polygon fill="none" stroke="#000000" points="15.5,-212.7 15.5,-231.7 118.5,-231.7 118.5,-212.7 15.5,-212.7"/>
<text text-anchor="start" x="18.5" y="-218.8" font-family="Helvetica,sans-Serif" font-size="11.00" fill="#000000">...</text>
<polygon fill="#ffffff" stroke="transparent" points="15.5,-193.7 15.5,-212.7 43.5,-212.7 43.5,-193.7 15.5,-193.7"/>
<polygon fill="none" stroke="#000000" points="15.5,-193.7 15.5,-212.7 43.5,-212.7 43.5,-193.7 15.5,-193.7"/>
<text text-anchor="start" x="18.5" y="-199.8" font-family="Helvetica,sans-Serif" font-size="11.00" fill="#000000"> &#160;</text>
<polygon fill="#ffffff" stroke="transparent" points="43.5,-193.7 43.5,-212.7 89.5,-212.7 89.5,-193.7 43.5,-193.7"/>
<polygon fill="none" stroke="#000000" points="43.5,-193.7 43.5,-212.7 89.5,-212.7 89.5,-193.7 43.5,-193.7"/>
<text text-anchor="start" x="54.1105" y="-199.8" font-family="Helvetica,sans-Serif" font-size="11.00" fill="#000000">3 rows</text>
<polygon fill="#ffffff" stroke="transparent" points="89.5,-193.7 89.5,-212.7 118.5,-212.7 118.5,-193.7 89.5,-193.7"/>
<polygon fill="none" stroke="#000000" points="89.5,-193.7 89.5,-212.7 118.5,-212.7 118.5,-193.7 89.5,-193.7"/>
<text text-anchor="start" x="99.9053" y="-199.8" font-family="Helvetica,sans-Serif" font-size="11.00" fill="#000000">4 &gt;</text>
</a>
</g>
</g>
<!-- emprunt&#45;&gt;media -->
<g id="edge3" class="edge">
<title>emprunt:w&#45;&gt;media:e</title>
<path fill="none" stroke="#000000" d="M159.5894,-418.3183C105.3014,-397.1959 195.7027,-242.7 118.5,-242.7"/>
<polygon fill="#000000" stroke="#000000" points="166.1071,-419.3955 173.413,-424.2518 170.0535,-420.0477 174,-420.7 174,-420.7 174,-420.7 170.0535,-420.0477 174.587,-417.1482 166.1071,-419.3955 166.1071,-419.3955"/>
<ellipse fill="none" stroke="#000000" cx="162.9499" cy="-418.8737" rx="3.2" ry="3.2"/>
</g>
<!-- adherent -->
<g id="node5" class="node">
<title>adherent</title>
<g id="a_node5"><a xlink:href="../../tables/adherent.html" xlink:title="adherent" target="_top">
<polygon fill="#ffffff" stroke="transparent" points="8,-394.2 8,-477.2 125,-477.2 125,-394.2 8,-394.2"/>
<polygon fill="#f5f5f5" stroke="transparent" points="8.5,-453.7 8.5,-476.7 125.5,-476.7 125.5,-453.7 8.5,-453.7"/>
<polygon fill="none" stroke="#000000" points="8.5,-453.7 8.5,-476.7 125.5,-476.7 125.5,-453.7 8.5,-453.7"/>
<text text-anchor="start" x="13.5" y="-462.3" font-family="Helvetica,sans-Serif" font-weight="bold" font-size="11.00" fill="#000000">adherent</text>
<text text-anchor="start" x="90.5437" y="-461.8" font-family="Helvetica,sans-Serif" font-size="11.00" fill="#000000">[table]</text>
<polygon fill="none" stroke="#000000" points="8.5,-431.7 8.5,-453.7 125.5,-453.7 125.5,-431.7 8.5,-431.7"/>
<image xlink:href="../../images/primaryKeys.png" width="11px" height="12px" preserveAspectRatio="xMinYMin meet" x="13.5" y="-448.7"/>
<text text-anchor="start" x="28.5" y="-438.8" font-family="Helvetica,sans-Serif" font-size="11.00" fill="#000000">id</text>
<polygon fill="none" stroke="#000000" points="8.5,-412.7 8.5,-431.7 125.5,-431.7 125.5,-412.7 8.5,-412.7"/>
<text text-anchor="start" x="11.5" y="-418.8" font-family="Helvetica,sans-Serif" font-size="11.00" fill="#000000">...</text>
<polygon fill="#ffffff" stroke="transparent" points="8.5,-393.7 8.5,-412.7 46.5,-412.7 46.5,-393.7 8.5,-393.7"/>
<polygon fill="none" stroke="#000000" points="8.5,-393.7 8.5,-412.7 46.5,-412.7 46.5,-393.7 8.5,-393.7"/>
<text text-anchor="start" x="11.5" y="-399.8" font-family="Helvetica,sans-Serif" font-size="11.00" fill="#000000"> &#160;</text>
<polygon fill="#ffffff" stroke="transparent" points="46.5,-393.7 46.5,-412.7 91.5,-412.7 91.5,-393.7 46.5,-393.7"/>
<polygon fill="none" stroke="#000000" points="46.5,-393.7 46.5,-412.7 91.5,-412.7 91.5,-393.7 46.5,-393.7"/>
<text text-anchor="start" x="61.6105" y="-399.8" font-family="Helvetica,sans-Serif" font-size="11.00" fill="#000000">1 row</text>
<polygon fill="#ffffff" stroke="transparent" points="91.5,-393.7 91.5,-412.7 125.5,-412.7 125.5,-393.7 91.5,-393.7"/>
<polygon fill="none" stroke="#000000" points="91.5,-393.7 91.5,-412.7 125.5,-412.7 125.5,-393.7 91.5,-393.7"/>
<text text-anchor="start" x="106.9053" y="-399.8" font-family="Helvetica,sans-Serif" font-size="11.00" fill="#000000">1 &gt;</text>
</a>
</g>
</g>
<!-- emprunt&#45;&gt;adherent -->
<g id="edge2" class="edge">
<title>emprunt:w&#45;&gt;adherent:e</title>
<path fill="none" stroke="#000000" d="M159.2829,-442.7C148.2886,-442.7 141.1615,-442.7 125.5,-442.7"/>
<polygon fill="#000000" stroke="#000000" points="166,-442.7001 174,-446.3 170,-442.7 174,-442.7 174,-442.7 174,-442.7 170,-442.7 174,-439.1 166,-442.7001 166,-442.7001"/>
<ellipse fill="none" stroke="#000000" cx="162.8" cy="-442.7001" rx="3.2" ry="3.2"/>
</g>
<!-- magazine -->
<g id="node2" class="node">
<title>magazine</title>
<g id="a_node2"><a xlink:href="../../tables/magazine.html" xlink:title="magazine" target="_top">
<polygon fill="#ffffff" stroke="transparent" points="184,-246.2 184,-329.2 294,-329.2 294,-246.2 184,-246.2"/>
<polygon fill="#f5f5f5" stroke="transparent" points="184,-305.7 184,-328.7 294,-328.7 294,-305.7 184,-305.7"/>
<polygon fill="none" stroke="#000000" points="184,-305.7 184,-328.7 294,-328.7 294,-305.7 184,-305.7"/>
<text text-anchor="start" x="189" y="-314.3" font-family="Helvetica,sans-Serif" font-weight="bold" font-size="11.00" fill="#000000">magazine</text>
<text text-anchor="start" x="259.0437" y="-313.8" font-family="Helvetica,sans-Serif" font-size="11.00" fill="#000000">[table]</text>
<polygon fill="none" stroke="#000000" points="184,-283.7 184,-305.7 294,-305.7 294,-283.7 184,-283.7"/>
<image xlink:href="../../images/primaryKeys.png" width="11px" height="12px" preserveAspectRatio="xMinYMin meet" x="189" y="-300.7"/>
<text text-anchor="start" x="204" y="-290.8" font-family="Helvetica,sans-Serif" font-size="11.00" fill="#000000">id</text>
<polygon fill="none" stroke="#000000" points="184,-264.7 184,-283.7 294,-283.7 294,-264.7 184,-264.7"/>
<text text-anchor="start" x="187" y="-270.8" font-family="Helvetica,sans-Serif" font-size="11.00" fill="#000000">...</text>
<polygon fill="#ffffff" stroke="transparent" points="184,-245.7 184,-264.7 224,-264.7 224,-245.7 184,-245.7"/>
<polygon fill="none" stroke="#000000" points="184,-245.7 184,-264.7 224,-264.7 224,-245.7 184,-245.7"/>
<text text-anchor="start" x="187" y="-251.8" font-family="Helvetica,sans-Serif" font-size="11.00" fill="#000000">&lt; 1</text>
<polygon fill="#ffffff" stroke="transparent" points="224,-245.7 224,-264.7 272,-264.7 272,-245.7 224,-245.7"/>
<polygon fill="none" stroke="#000000" points="224,-245.7 224,-264.7 272,-264.7 272,-245.7 224,-245.7"/>
<text text-anchor="start" x="236.6105" y="-251.8" font-family="Helvetica,sans-Serif" font-size="11.00" fill="#000000">2 rows</text>
<polygon fill="#ffffff" stroke="transparent" points="272,-245.7 272,-264.7 294,-264.7 294,-245.7 272,-245.7"/>
<polygon fill="none" stroke="#000000" points="272,-245.7 272,-264.7 294,-264.7 294,-245.7 272,-245.7"/>
<text text-anchor="start" x="284.8862" y="-251.8" font-family="Helvetica,sans-Serif" font-size="11.00" fill="#000000"> &#160;</text>
</a>
</g>
</g>
<!-- magazine&#45;&gt;media -->
<g id="edge5" class="edge">
<title>magazine:w&#45;&gt;media:e</title>
<path fill="none" stroke="#000000" d="M173.6667,-293.0867C148.1831,-284.3097 151.7494,-242.7 118.5,-242.7"/>
<polygon fill="#000000" stroke="#000000" points="183.8266,-290.6245 182.5925,-298.5287 181.0117,-298.2819 182.2458,-290.3776 183.8266,-290.6245"/>
<polyline fill="none" stroke="#000000" points="184,-294.7 180.0479,-294.0829 "/>
<ellipse fill="none" stroke="#000000" cx="176.8862" cy="-293.5893" rx="3.2" ry="3.2"/>
</g>
<!-- blueray -->
<g id="node4" class="node">
<title>blueray</title>
<g id="a_node4"><a xlink:href="../../tables/blueray.html" xlink:title="blueray" target="_top">
<polygon fill="#ffffff" stroke="transparent" points="194.5,-142.2 194.5,-225.2 283.5,-225.2 283.5,-142.2 194.5,-142.2"/>
<polygon fill="#f5f5f5" stroke="transparent" points="195,-201.7 195,-224.7 284,-224.7 284,-201.7 195,-201.7"/>
<polygon fill="none" stroke="#000000" points="195,-201.7 195,-224.7 284,-224.7 284,-201.7 195,-201.7"/>
<text text-anchor="start" x="200" y="-210.3" font-family="Helvetica,sans-Serif" font-weight="bold" font-size="11.00" fill="#000000">blueray</text>
<text text-anchor="start" x="249.0437" y="-209.8" font-family="Helvetica,sans-Serif" font-size="11.00" fill="#000000">[table]</text>
<polygon fill="none" stroke="#000000" points="195,-179.7 195,-201.7 284,-201.7 284,-179.7 195,-179.7"/>
<image xlink:href="../../images/primaryKeys.png" width="11px" height="12px" preserveAspectRatio="xMinYMin meet" x="200" y="-196.7"/>
<text text-anchor="start" x="215" y="-186.8" font-family="Helvetica,sans-Serif" font-size="11.00" fill="#000000">id</text>
<polygon fill="none" stroke="#000000" points="195,-160.7 195,-179.7 284,-179.7 284,-160.7 195,-160.7"/>
<text text-anchor="start" x="198" y="-166.8" font-family="Helvetica,sans-Serif" font-size="11.00" fill="#000000">...</text>
<polygon fill="#ffffff" stroke="transparent" points="195,-141.7 195,-160.7 225,-160.7 225,-141.7 195,-141.7"/>
<polygon fill="none" stroke="#000000" points="195,-141.7 195,-160.7 225,-160.7 225,-141.7 195,-141.7"/>
<text text-anchor="start" x="198" y="-147.8" font-family="Helvetica,sans-Serif" font-size="11.00" fill="#000000">&lt; 1</text>
<polygon fill="#ffffff" stroke="transparent" points="225,-141.7 225,-160.7 267,-160.7 267,-141.7 225,-141.7"/>
<polygon fill="none" stroke="#000000" points="225,-141.7 225,-160.7 267,-160.7 267,-141.7 225,-141.7"/>
<text text-anchor="start" x="231.6105" y="-147.8" font-family="Helvetica,sans-Serif" font-size="11.00" fill="#000000">0 rows</text>
<polygon fill="#ffffff" stroke="transparent" points="267,-141.7 267,-160.7 284,-160.7 284,-141.7 267,-141.7"/>
<polygon fill="none" stroke="#000000" points="267,-141.7 267,-160.7 284,-160.7 284,-141.7 267,-141.7"/>
<text text-anchor="start" x="274.8862" y="-147.8" font-family="Helvetica,sans-Serif" font-size="11.00" fill="#000000"> &#160;</text>
</a>
</g>
</g>
<!-- blueray&#45;&gt;media -->
<g id="edge1" class="edge">
<title>blueray:w&#45;&gt;media:e</title>
<path fill="none" stroke="#000000" d="M184.5952,-191.9854C154.5502,-199.993 155.7569,-242.7 118.5,-242.7"/>
<polygon fill="#000000" stroke="#000000" points="193.7156,-186.8283 194.6965,-194.7679 193.1086,-194.9641 192.1276,-187.0245 193.7156,-186.8283"/>
<polyline fill="none" stroke="#000000" points="195,-190.7 191.0302,-191.1905 "/>
<ellipse fill="none" stroke="#000000" cx="187.8543" cy="-191.5828" rx="3.2" ry="3.2"/>
</g>
<!-- livre -->
<g id="node6" class="node">
<title>livre</title>
<g id="a_node6"><a xlink:href="../../tables/livre.html" xlink:title="livre" target="_top">
<polygon fill="#ffffff" stroke="transparent" points="203.5,-38.2 203.5,-121.2 274.5,-121.2 274.5,-38.2 203.5,-38.2"/>
<polygon fill="#f5f5f5" stroke="transparent" points="204,-97.7 204,-120.7 275,-120.7 275,-97.7 204,-97.7"/>
<polygon fill="none" stroke="#000000" points="204,-97.7 204,-120.7 275,-120.7 275,-97.7 204,-97.7"/>
<text text-anchor="start" x="208.9207" y="-106.3" font-family="Helvetica,sans-Serif" font-weight="bold" font-size="11.00" fill="#000000">livre</text>
<text text-anchor="start" x="240.0437" y="-105.8" font-family="Helvetica,sans-Serif" font-size="11.00" fill="#000000">[table]</text>
<polygon fill="none" stroke="#000000" points="204,-75.7 204,-97.7 275,-97.7 275,-75.7 204,-75.7"/>
<image xlink:href="../../images/primaryKeys.png" width="11px" height="12px" preserveAspectRatio="xMinYMin meet" x="209" y="-92.7"/>
<text text-anchor="start" x="224" y="-82.8" font-family="Helvetica,sans-Serif" font-size="11.00" fill="#000000">id</text>
<polygon fill="none" stroke="#000000" points="204,-56.7 204,-75.7 275,-75.7 275,-56.7 204,-56.7"/>
<text text-anchor="start" x="207" y="-62.8" font-family="Helvetica,sans-Serif" font-size="11.00" fill="#000000">...</text>
<polygon fill="#ffffff" stroke="transparent" points="204,-37.7 204,-56.7 225,-56.7 225,-37.7 204,-37.7"/>
<polygon fill="none" stroke="#000000" points="204,-37.7 204,-56.7 225,-56.7 225,-37.7 204,-37.7"/>
<text text-anchor="start" x="206.7027" y="-43.8" font-family="Helvetica,sans-Serif" font-size="11.00" fill="#000000">&lt; 1</text>
<polygon fill="#ffffff" stroke="transparent" points="225,-37.7 225,-56.7 263,-56.7 263,-37.7 225,-37.7"/>
<polygon fill="none" stroke="#000000" points="225,-37.7 225,-56.7 263,-56.7 263,-37.7 225,-37.7"/>
<text text-anchor="start" x="227.8053" y="-43.8" font-family="Helvetica,sans-Serif" font-size="11.00" fill="#000000">0 rows</text>
<polygon fill="#ffffff" stroke="transparent" points="263,-37.7 263,-56.7 275,-56.7 275,-37.7 263,-37.7"/>
<polygon fill="none" stroke="#000000" points="263,-37.7 263,-56.7 275,-56.7 275,-37.7 263,-37.7"/>
<text text-anchor="start" x="265.9431" y="-43.8" font-family="Helvetica,sans-Serif" font-size="11.00" fill="#000000"> &#160;</text>
</a>
</g>
</g>
<!-- livre&#45;&gt;media -->
<g id="edge4" class="edge">
<title>livre:w&#45;&gt;media:e</title>
<path fill="none" stroke="#000000" d="M193.468,-87.7795C131.6669,-101.5624 193.7034,-242.7 118.5,-242.7"/>
<polygon fill="#000000" stroke="#000000" points="202.7963,-82.8024 203.612,-90.7607 202.0204,-90.9239 201.2046,-82.9656 202.7963,-82.8024"/>
<polyline fill="none" stroke="#000000" points="204,-86.7 200.0208,-87.1079 "/>
<ellipse fill="none" stroke="#000000" cx="196.8375" cy="-87.4342" rx="3.2" ry="3.2"/>
</g>
</g>
</svg>
